STARTFONT 2.1
FONT -Adobe-Utopia-Regular-R-Normal--33-240-100-100-P-180-ISO10646-1
SIZE 24 100 100
FONTBOUNDINGBOX 43 50 -5 -13
COMMENT $XFree86$
COMMENT ISO10646-1 extension by Markus Kuhn <mkuhn@acm.org>, 2001-03-20
STARTPROPERTIES 28
FOUNDRY "Adobe"
FAMILY_NAME "Utopia"
WEIGHT_NAME "Regular"
SLANT "R"
SETWIDTH_NAME "Normal"
ADD_STYLE_NAME ""
PIXEL_SIZE 33
POINT_SIZE 240
RESOLUTION_X 100
RESOLUTION_Y 100
SPACING "P"
AVERAGE_WIDTH 180
CHARSET_REGISTRY "ISO10646"
CHARSET_ENCODING "1"
CAP_HEIGHT 23
X_HEIGHT 16
RELATIVE_SETWIDTH 50
RELATIVE_WEIGHT 50
WEIGHT 136
FACE_NAME "Utopia Regular"
COPYRIGHT "Copyright (c) 1989, 1991 Adobe Systems Incorporated.  All Rights Reserved."
NOTICE "Utopia is a registered trademark of Adobe Systems Incorporated."
DESTINATION 0
FONT_ASCENT 31
FONT_DESCENT 8
DEFAULT_CHAR 0
_ADOBE_PSFONT "Utopia-Regular"
_DEC_DEVICE_FONTNAMES "PS=Utopia-Regular"
ENDPROPERTIES
CHARS 756
STARTCHAR char0
ENCODING 0
SWIDTH 798 0
DWIDTH 27 0
BBX 23 23 1 0
BITMAP
AAAAAA
000000
800002
000000
800002
000000
800002
000000
800002
000000
800002
000000
800002
000000
800002
000000
800002
000000
800002
000000
800002
000000
AAAAAA
ENDCHAR
STARTCHAR space
ENCODING 32
SWIDTH 225 0
DWIDTH 8 0
BBX 0 0 0 0
BITMAP
ENDCHAR
STARTCHAR exclam
ENCODING 33
SWIDTH 242 0
DWIDTH 8 0
BBX 4 24 2 0
BITMAP
60
F0
F0
F0
F0
60
60
60
60
60
60
60
60
60
60
60
40
00
00
00
60
F0
F0
60
ENDCHAR
STARTCHAR quotedbl
ENCODING 34
SWIDTH 458 0
DWIDTH 15 0
BBX 9 9 3 16
BITMAP
E380
E380
E380
E380
6300
6300
4100
4100
4100
ENDCHAR
STARTCHAR numbersign
ENCODING 35
SWIDTH 530 0
DWIDTH 18 0
BBX 17 22 0 0
BITMAP
018600
018600
010600
030400
030C00
030C00
020C00
3FFF80
3FFF80
061800
041800
0C3000
FFFE00
FFFE00
182000
186000
186000
186000
306000
30C000
30C000
30C000
ENDCHAR
STARTCHAR dollar
ENCODING 36
SWIDTH 530 0
DWIDTH 18 0
BBX 14 28 2 -3
BITMAP
0200
0200
0F80
3AF0
7278
6238
E210
E200
E200
F200
7A00
7E00
1FC0
0FE0
03F0
02F8
023C
021C
021C
021C
C218
E218
F238
7A70
1F80
0200
0200
0200
ENDCHAR
STARTCHAR percent
ENCODING 37
SWIDTH 838 0
DWIDTH 28 0
BBX 24 24 2 -1
BITMAP
1E0030
610060
61FFE0
C0C0C0
C0C180
C0C180
C0C300
C0C300
C0C600
618C00
638C00
1E1878
001986
003186
006303
006303
00C303
008303
018303
030303
030186
06018E
0C0078
040000
ENDCHAR
STARTCHAR ampersand
ENCODING 38
SWIDTH 706 0
DWIDTH 24 0
BBX 21 23 2 0
BITMAP
078000
0C7000
183000
383800
383800
383800
387000
1C6000
1FC020
0F0070
0F0070
1B8070
31C060
70E060
E070C0
E078C0
E03D80
E01F00
F00F00
700F80
7C1BE0
1FF0F0
078038
ENDCHAR
STARTCHAR quotesingle
ENCODING 39
SWIDTH 278 0
DWIDTH 9 0
BBX 3 9 3 16
BITMAP
E0
E0
E0
E0
40
40
40
40
40
ENDCHAR
STARTCHAR parenleft
ENCODING 40
SWIDTH 350 0
DWIDTH 12 0
BBX 7 28 4 -4
BITMAP
06
1C
18
30
20
60
60
60
C0
C0
C0
C0
C0
C0
C0
C0
C0
C0
C0
C0
60
60
60
30
30
18
1C
06
ENDCHAR
STARTCHAR parenright
ENCODING 41
SWIDTH 350 0
DWIDTH 12 0
BBX 7 28 1 -4
BITMAP
C0
70
30
18
08
0C
0C
0C
04
06
06
06
06
06
06
06
06
06
06
04
0C
0C
0C
18
18
30
70
C0
ENDCHAR
STARTCHAR asterisk
ENCODING 42
SWIDTH 412 0
DWIDTH 14 0
BBX 10 12 2 12
BITMAP
0C00
0C00
4C80
EDC0
7B80
0C00
1E00
7B80
EDC0
4C80
0C00
0C00
ENDCHAR
STARTCHAR plus
ENCODING 43
SWIDTH 570 0
DWIDTH 19 0
BBX 16 17 2 0
BITMAP
0180
0180
0180
0180
0180
0180
0180
0180
FFFF
FFFF
0180
0180
0180
0180
0180
0180
0180
ENDCHAR
STARTCHAR comma
ENCODING 44
SWIDTH 265 0
DWIDTH 9 0
BBX 5 9 2 -5
BITMAP
30
70
78
38
38
30
20
40
80
ENDCHAR
STARTCHAR hyphen
ENCODING 45
SWIDTH 392 0
DWIDTH 13 0
BBX 8 2 3 7
BITMAP
FF
FF
ENDCHAR
STARTCHAR period
ENCODING 46
SWIDTH 265 0
DWIDTH 9 0
BBX 4 4 2 0
BITMAP
60
F0
F0
60
ENDCHAR
STARTCHAR slash
ENCODING 47
SWIDTH 460 0
DWIDTH 15 0
BBX 9 24 3 0
BITMAP
0180
0380
0300
0300
0300
0600
0600
0600
0E00
0C00
0C00
0C00
1800
1800
1800
3800
3000
3000
3000
6000
6000
6000
E000
C000
ENDCHAR
STARTCHAR zero
ENCODING 48
SWIDTH 530 0
DWIDTH 18 0
BBX 14 23 2 0
BITMAP
0780
1CE0
3870
7038
7038
7038
7038
E01C
E01C
E01C
E01C
E01C
E01C
E01C
E01C
E01C
7038
7038
7038
7038
3870
1CE0
0780
ENDCHAR
STARTCHAR one
ENCODING 49
SWIDTH 530 0
DWIDTH 18 0
BBX 11 23 4 0
BITMAP
0600
FE00
3E00
0E00
0E00
0E00
0E00
0E00
0E00
0E00
0E00
0E00
0E00
0E00
0E00
0E00
0E00
0E00
0E00
0E00
0E00
0E00
FFE0
ENDCHAR
STARTCHAR two
ENCODING 50
SWIDTH 530 0
DWIDTH 18 0
BBX 16 23 1 0
BITMAP
07E0
1C38
383C
781C
701E
301E
001E
001E
001C
003C
0038
0070
00E0
0180
0300
0600
0C00
1800
3001
3002
7FFE
7FFE
FFFE
ENDCHAR
STARTCHAR three
ENCODING 51
SWIDTH 530 0
DWIDTH 18 0
BBX 15 23 1 0
BITMAP
0FE0
3C70
3038
701C
601C
201C
001C
001C
0038
0060
1F80
0070
0038
003C
001C
001E
001E
401E
E01C
E01C
F038
7870
0FC0
ENDCHAR
STARTCHAR four
ENCODING 52
SWIDTH 530 0
DWIDTH 18 0
BBX 15 23 1 0
BITMAP
0070
0070
00F0
01F0
0170
0370
0270
0670
0C70
0870
1870
1070
3070
6070
4070
FFFE
FFFE
0070
0070
0070
0070
0070
03FC
ENDCHAR
STARTCHAR five
ENCODING 53
SWIDTH 530 0
DWIDTH 18 0
BBX 15 23 1 0
BITMAP
3FFC
3FFC
3FFC
3000
3000
3000
3000
3000
2000
23E0
3C78
301C
001C
000E
000E
000E
000E
000E
600E
F01C
7018
3C30
0FC0
ENDCHAR
STARTCHAR six
ENCODING 54
SWIDTH 530 0
DWIDTH 18 0
BBX 14 23 2 0
BITMAP
03E0
0C78
383C
301C
7008
7000
6000
6000
E000
E1C0
E7F0
E878
F038
F03C
E01C
E01C
E01C
601C
701C
7038
3038
1870
07C0
ENDCHAR
STARTCHAR seven
ENCODING 55
SWIDTH 530 0
DWIDTH 18 0
BBX 15 23 2 0
BITMAP
7FFE
7FFC
FFFC
C008
8018
0018
0030
0020
0060
00C0
0080
0180
0180
0300
0300
0600
0600
0600
0600
0E00
0E00
0E00
0E00
ENDCHAR
STARTCHAR eight
ENCODING 56
SWIDTH 530 0
DWIDTH 18 0
BBX 14 23 2 0
BITMAP
0F80
38E0
7070
F078
E038
E038
E038
E038
7070
7070
38E0
1FC0
3870
7038
7038
601C
E01C
E01C
E01C
7038
7038
3870
0FC0
ENDCHAR
STARTCHAR nine
ENCODING 57
SWIDTH 530 0
DWIDTH 18 0
BBX 15 23 1 0
BITMAP
07E0
1870
3038
701C
E01C
E01C
E00E
E00E
E00E
F00E
701E
782E
3FCE
0F0E
000E
000E
001C
001C
301C
7038
7838
3CF0
0FC0
ENDCHAR
STARTCHAR colon
ENCODING 58
SWIDTH 265 0
DWIDTH 9 0
BBX 4 17 2 0
BITMAP
60
F0
F0
F0
00
00
00
00
00
00
00
00
00
F0
F0
F0
60
ENDCHAR
STARTCHAR semicolon
ENCODING 59
SWIDTH 265 0
DWIDTH 9 0
BBX 5 21 2 -4
BITMAP
30
78
78
70
00
00
00
00
00
00
00
20
70
78
38
38
30
30
60
40
80
ENDCHAR
STARTCHAR less
ENCODING 60
SWIDTH 570 0
DWIDTH 19 0
BBX 16 17 2 0
BITMAP
0001
0007
001F
00FC
03E0
0F80
3E00
F000
C000
F000
7C00
0F80
03E0
00F8
001F
0007
0001
ENDCHAR
STARTCHAR equal
ENCODING 61
SWIDTH 570 0
DWIDTH 19 0
BBX 16 9 2 4
BITMAP
FFFF
FFFF
0000
0000
0000
0000
0000
FFFF
FFFF
ENDCHAR
STARTCHAR greater
ENCODING 62
SWIDTH 570 0
DWIDTH 19 0
BBX 16 17 1 0
BITMAP
8000
E000
F800
3F00
07C0
01F0
007C
000F
0003
000F
003E
01F0
07C0
1F00
F800
E000
8000
ENDCHAR
STARTCHAR question
ENCODING 63
SWIDTH 389 0
DWIDTH 13 0
BBX 11 24 1 0
BITMAP
1E00
79C0
70E0
E0E0
60E0
00E0
01C0
01C0
0380
0700
0E00
1C00
1800
3800
3800
3C00
0F80
0000
0000
0000
0E00
1E00
0E00
0C00
ENDCHAR
STARTCHAR at
ENCODING 64
SWIDTH 793 0
DWIDTH 26 0
BBX 24 24 1 0
BITMAP
001F00
00F0E0
038030
070008
0E000C
1C0006
3807C2
3838C2
7070C3
70E1C3
60C183
61C383
E1C382
E38706
E38B04
E39B0C
61E310
70C1E0
700000
380000
1C0000
0E0000
03C1C0
007E00
ENDCHAR
STARTCHAR A
ENCODING 65
SWIDTH 635 0
DWIDTH 21 0
BBX 23 24 -1 0
BITMAP
003800
003800
003C00
005C00
005C00
004E00
00CE00
008E00
008F00
018700
010700
010780
030380
030380
07FFC0
0601C0
0401C0
0C01E0
0C00E0
0C00E0
1800F0
180070
380078
FF03FE
ENDCHAR
STARTCHAR B
ENCODING 66
SWIDTH 646 0
DWIDTH 22 0
BBX 19 24 1 0
BITMAP
FFF000
1C1F00
1C0780
1C0380
1C03C0
1C03C0
1C03C0
1C03C0
1C0380
1C0700
1C1E00
1FF800
1C0F00
1C0780
1C03C0
1C01C0
1C01E0
1C01E0
1C01E0
1C01C0
1C01C0
1C0380
1E0F80
FFFC00
ENDCHAR
STARTCHAR C
ENCODING 67
SWIDTH 684 0
DWIDTH 23 0
BBX 20 24 1 0
BITMAP
007F00
03C1F0
0F0070
1E0030
3C0030
380010
780000
780000
700000
700000
F00000
F00000
F00000
F00000
F00000
700000
780000
780010
380010
3C0010
1E0030
0F0070
03C1F0
00FF80
ENDCHAR
STARTCHAR D
ENCODING 68
SWIDTH 779 0
DWIDTH 26 0
BBX 24 24 1 0
BITMAP
FFFF00
1C07E0
1C00F0
1C0078
1C003C
1C001C
1C001E
1C000E
1C000E
1C000F
1C000F
1C000F
1C000F
1C000F
1C000F
1C000E
1C001E
1C001E
1C001C
1C003C
1C0078
1C00F0
1E03C0
FFFF00
ENDCHAR
STARTCHAR E
ENCODING 69
SWIDTH 606 0
DWIDTH 20 0
BBX 18 24 1 0
BITMAP
FFFF80
1C0380
1C0180
1C0080
1C0080
1C0000
1C0000
1C0000
1C0200
1C0200
1C0600
1FFE00
1C0600
1C0200
1C0200
1C0000
1C0000
1C0000
1C0040
1C00C0
1C00C0
1C01C0
1E0380
FFFF80
ENDCHAR
STARTCHAR F
ENCODING 70
SWIDTH 580 0
DWIDTH 19 0
BBX 17 24 1 0
BITMAP
FFFF80
1C0380
1C0180
1C0080
1C0080
1C0000
1C0000
1C0000
1C0000
1C0200
1C0200
1C0600
1FFE00
1C0600
1C0200
1C0200
1C0000
1C0000
1C0000
1C0000
1C0000
1C0000
1C0000
FFC000
ENDCHAR
STARTCHAR G
ENCODING 71
SWIDTH 734 0
DWIDTH 24 0
BBX 23 24 1 0
BITMAP
003F80
03E0F8
0F0038
1E0018
3C0018
380008
780000
780000
700000
700000
F00000
F00000
F00000
F003FE
700038
700038
780038
780038
780038
3C0038
1E0038
0F0038
07C078
00FF80
ENDCHAR
STARTCHAR H
ENCODING 72
SWIDTH 798 0
DWIDTH 27 0
BBX 24 24 1 0
BITMAP
FF81FF
1C0038
1C0038
1C0038
1C0038
1C0038
1C0038
1C0038
1C0038
1C0038
1C0038
1FFFF8
1C0038
1C0038
1C0038
1C0038
1C0038
1C0038
1C0038
1C0038
1C0038
1C0038
1C0038
FF81FF
ENDCHAR
STARTCHAR I
ENCODING 73
SWIDTH 349 0
DWIDTH 12 0
BBX 9 24 1 0
BITMAP
FF80
1C00
1C00
1C00
1C00
1C00
1C00
1C00
1C00
1C00
1C00
1C00
1C00
1C00
1C00
1C00
1C00
1C00
1C00
1C00
1C00
1C00
1C00
FF80
ENDCHAR
STARTCHAR J
ENCODING 74
SWIDTH 350 0
DWIDTH 12 0
BBX 10 27 1 -3
BITMAP
7FC0
0E00
0E00
0E00
0E00
0E00
0E00
0E00
0E00
0E00
0E00
0E00
0E00
0E00
0E00
0E00
0E00
0E00
0E00
0E00
0E00
0E00
0C00
1C00
3C00
7000
8000
ENDCHAR
STARTCHAR K
ENCODING 75
SWIDTH 658 0
DWIDTH 22 0
BBX 21 24 1 0
BITMAP
FF87F8
1C01C0
1C0380
1C0700
1C0E00
1C0C00
1C1800
1C3000
1C6000
1C8000
1D8000
1FC000
1DE000
1DF000
1CF800
1C7800
1C3C00
1C1E00
1C1F00
1C0F80
1C0780
1C03C0
1C01F0
FF8038
ENDCHAR
STARTCHAR L
ENCODING 76
SWIDTH 568 0
DWIDTH 19 0
BBX 17 24 1 0
BITMAP
FF8000
1C0000
1C0000
1C0000
1C0000
1C0000
1C0000
1C0000
1C0000
1C0000
1C0000
1C0000
1C0000
1C0000
1C0000
1C0000
1C0000
1C0000
1C0080
1C0080
1C0080
1C0180
1E0780
FFFF80
ENDCHAR
STARTCHAR M
ENCODING 77
SWIDTH 944 0
DWIDTH 31 0
BBX 29 24 1 0
BITMAP
FE0003F8
1F0003C0
1F0003C0
1F8007C0
1F8005C0
1B800DC0
1BC00DC0
19C009C0
19E019C0
18E011C0
18E031C0
18F021C0
187061C0
187861C0
183841C0
183CC1C0
183C81C0
181D81C0
181F01C0
180F01C0
180F01C0
180601C0
3C0601C0
FF040FF8
ENDCHAR
STARTCHAR N
ENCODING 78
SWIDTH 780 0
DWIDTH 26 0
BBX 24 24 1 0
BITMAP
FE00FF
1F003C
1F0018
1F8018
1BC018
1BC018
19E018
18E018
18F018
187818
183818
183C18
181E18
180E18
180F18
180798
180398
1803D8
1801F8
1800F8
1800F8
180078
3C0038
FF0038
ENDCHAR
STARTCHAR O
ENCODING 79
SWIDTH 762 0
DWIDTH 25 0
BBX 23 24 1 0
BITMAP
00FE00
0783C0
0E00E0
1C0070
380038
380038
78003C
70001C
70001C
F0001E
F0001E
F0001E
F0001E
F0001E
F0001E
70001C
70001C
78003C
380038
380038
1C0070
0E00E0
0783C0
00FE00
ENDCHAR
STARTCHAR P
ENCODING 80
SWIDTH 600 0
DWIDTH 20 0
BBX 18 24 1 0
BITMAP
FFF800
1C1F00
1C0700
1C0780
1C0380
1C03C0
1C03C0
1C03C0
1C03C0
1C0380
1C0780
1C0700
1C1E00
1FF800
1C0000
1C0000
1C0000
1C0000
1C0000
1C0000
1C0000
1C0000
1C0000
FF8000
ENDCHAR
STARTCHAR Q
ENCODING 81
SWIDTH 762 0
DWIDTH 25 0
BBX 23 30 1 -6
BITMAP
00FE00
0783C0
0E00E0
1C0070
380038
380038
78003C
70001C
70001C
F0001E
F0001E
F0001E
F0001E
F0001E
F0001E
70001C
70001C
78003C
380038
380038
1C0070
0E00E0
0783C0
00FF00
001E00
001F00
000F00
0007C0
0003E0
0000FC
ENDCHAR
STARTCHAR R
ENCODING 82
SWIDTH 644 0
DWIDTH 21 0
BBX 20 24 1 0
BITMAP
FFFC00
1C1F00
1C0780
1C0380
1C03C0
1C03C0
1C03C0
1C03C0
1C0380
1C0780
1C0700
1C1E00
1FF000
1C1E00
1C0F00
1C0700
1C0700
1C0780
1C0780
1C0780
1C0380
1C03C0
1C01E0
FF80F0
ENDCHAR
STARTCHAR S
ENCODING 83
SWIDTH 541 0
DWIDTH 18 0
BBX 15 24 2 0
BITMAP
0FE0
3838
7018
6018
E018
E008
E000
F000
7800
7E00
3FC0
0FF0
03F8
00FC
007C
001E
000E
800E
C00E
C00E
E00C
F018
7830
1FC0
ENDCHAR
STARTCHAR T
ENCODING 84
SWIDTH 621 0
DWIDTH 21 0
BBX 19 24 1 0
BITMAP
FFFFE0
E0E0E0
C0E060
80E020
80E020
80E020
00E000
00E000
00E000
00E000
00E000
00E000
00E000
00E000
00E000
00E000
00E000
00E000
00E000
00E000
00E000
00E000
00E000
0FFE00
ENDCHAR
STARTCHAR U
ENCODING 85
SWIDTH 791 0
DWIDTH 26 0
BBX 24 24 1 0
BITMAP
FF81FF
1C0038
1C0038
1C0038
1C0038
1C0038
1C0038
1C0038
1C0038
1C0038
1C0038
1C0038
1C0038
1C0038
1C0038
1C0038
1C0038
1C0038
0C0030
0E0070
0E0070
0700E0
0381C0
007E00
ENDCHAR
STARTCHAR V
ENCODING 86
SWIDTH 634 0
DWIDTH 21 0
BBX 23 24 0 0
BITMAP
FF80FE
3C0038
1C0030
1E0030
1E0060
0E0060
0F0060
0700C0
0700C0
0780C0
038080
038180
03C100
01C300
01C300
01E200
00E600
00E600
00F400
007C00
007C00
007800
003800
003800
ENDCHAR
STARTCHAR W
ENCODING 87
SWIDTH 940 0
DWIDTH 31 0
BBX 33 24 0 0
BITMAP
FF00007F80
3C01C00E00
1C01C00C00
1C01E00C00
1C03E00800
1E03E01800
0E03601800
0E02701800
0E06701000
0706303000
0706383000
070C383000
070C382000
038C1C2000
03881C6000
03981C4000
03980E4000
01D80E4000
01D00EC000
01F00F8000
01F0078000
00F0078000
00E0078000
00E0030000
ENDCHAR
STARTCHAR X
ENCODING 88
SWIDTH 624 0
DWIDTH 21 0
BBX 22 24 0 0
BITMAP
FF03F8
3C00E0
1C00C0
0E0180
0F0300
070600
078400
03CC00
01D800
01F000
00F000
00F000
00F800
00FC00
01FC00
039E00
030E00
070F00
060780
0E0780
1C03C0
1801E0
3801E0
FF07FC
ENDCHAR
STARTCHAR Y
ENCODING 89
SWIDTH 588 0
DWIDTH 20 0
BBX 21 24 0 0
BITMAP
FF83F8
3C00E0
1C00C0
1E0180
0E0180
0F0300
070300
078200
038600
03C400
01CC00
01E800
00F800
00F000
007000
007000
007000
007000
007000
007000
007000
007000
007000
07FE00
ENDCHAR
STARTCHAR Z
ENCODING 90
SWIDTH 610 0
DWIDTH 20 0
BBX 19 24 0 0
BITMAP
3FFFE0
3803E0
3003C0
200780
200F80
200F00
001E00
003E00
003C00
007800
007800
00F000
01E000
01E000
03C000
078000
078000
0F0000
1E0020
1E0020
3C0020
780060
7801E0
FFFFE0
ENDCHAR
STARTCHAR bracketleft
ENCODING 91
SWIDTH 330 0
DWIDTH 11 0
BBX 5 28 4 -4
BITMAP
F8
C0
C0
C0
C0
C0
C0
C0
C0
C0
C0
C0
C0
C0
C0
C0
C0
C0
C0
C0
C0
C0
C0
C0
C0
C0
C0
F8
ENDCHAR
STARTCHAR backslash
ENCODING 92
SWIDTH 460 0
DWIDTH 15 0
BBX 9 24 3 0
BITMAP
C000
E000
6000
6000
6000
3000
3000
3000
3800
1800
1800
1800
0C00
0C00
0C00
0E00
0600
0600
0600
0300
0300
0300
0380
0180
ENDCHAR
STARTCHAR bracketright
ENCODING 93
SWIDTH 330 0
DWIDTH 11 0
BBX 5 28 2 -4
BITMAP
F8
18
18
18
18
18
18
18
18
18
18
18
18
18
18
18
18
18
18
18
18
18
18
18
18
18
18
F8
ENDCHAR
STARTCHAR asciicircum
ENCODING 94
SWIDTH 570 0
DWIDTH 19 0
BBX 15 14 2 9
BITMAP
0380
0380
06C0
06C0
0C60
0C60
0C70
1830
1830
3018
3018
701C
600C
E00E
ENDCHAR
STARTCHAR underscore
ENCODING 95
SWIDTH 500 0
DWIDTH 17 0
BBX 17 2 0 -4
BITMAP
FFFF80
FFFF80
ENDCHAR
STARTCHAR grave
ENCODING 96
SWIDTH 400 0
DWIDTH 13 0
BBX 7 6 2 18
BITMAP
40
E0
70
38
0C
02
ENDCHAR
STARTCHAR a
ENCODING 97
SWIDTH 523 0
DWIDTH 17 0
BBX 15 17 2 0
BITMAP
07C0
38E0
F0F0
E070
6070
0070
01F0
0770
3C70
7070
E070
E070
E070
E070
70F0
7F7E
3C38
ENDCHAR
STARTCHAR b
ENCODING 98
SWIDTH 598 0
DWIDTH 20 0
BBX 17 25 1 0
BITMAP
180000
F80000
380000
380000
380000
380000
380000
380000
387000
39FE00
3E1E00
3C0700
380700
380300
380380
380380
380380
380380
380380
380300
380700
380700
3C0E00
3E1C00
27F000
ENDCHAR
STARTCHAR c
ENCODING 99
SWIDTH 496 0
DWIDTH 17 0
BBX 14 17 2 0
BITMAP
07C0
1870
3038
7038
6010
E000
E000
E000
E000
E000
E000
F000
700C
7818
3C30
1FE0
0700
ENDCHAR
STARTCHAR d
ENCODING 100
SWIDTH 598 0
DWIDTH 20 0
BBX 17 25 2 0
BITMAP
000600
003E00
000E00
000E00
000E00
000E00
000E00
000E00
07CE00
1C3E00
381E00
700E00
700E00
E00E00
E00E00
E00E00
E00E00
E00E00
E00E00
E00E00
700E00
781E00
3C3E00
1FEE00
070F80
ENDCHAR
STARTCHAR e
ENCODING 101
SWIDTH 514 0
DWIDTH 17 0
BBX 14 17 2 0
BITMAP
0780
1C70
3038
7018
601C
E01C
E01C
FFFC
E000
E000
E000
E000
700C
7808
3C38
1FF0
07C0
ENDCHAR
STARTCHAR f
ENCODING 102
SWIDTH 319 0
DWIDTH 11 0
BBX 12 25 1 0
BITMAP
03C0
0470
0C70
0C20
0C00
1C00
1C00
1C00
FFC0
1C00
1C00
1C00
1C00
1C00
1C00
1C00
1C00
1C00
1C00
1C00
1C00
1C00
1C00
1C00
7F80
ENDCHAR
STARTCHAR g
ENCODING 103
SWIDTH 520 0
DWIDTH 17 0
BBX 16 25 1 -8
BITMAP
07C7
1C7F
3838
7018
701C
701C
701C
383C
3838
1C70
0FC0
1800
3000
7000
7FF0
3FFC
0FFE
381F
6007
E007
E007
E006
700E
3C3C
07E0
ENDCHAR
STARTCHAR h
ENCODING 104
SWIDTH 607 0
DWIDTH 20 0
BBX 18 25 1 0
BITMAP
180000
F80000
380000
380000
380000
380000
380000
380000
387800
39FE00
3E1E00
3C0F00
380700
380700
380700
380700
380700
380700
380700
380700
380700
380700
380700
380700
FF3FC0
ENDCHAR
STARTCHAR i
ENCODING 105
SWIDTH 291 0
DWIDTH 10 0
BBX 7 24 2 0
BITMAP
30
78
78
30
00
00
00
38
F8
38
38
38
38
38
38
38
38
38
38
38
38
38
38
FE
ENDCHAR
STARTCHAR j
ENCODING 106
SWIDTH 280 0
DWIDTH 9 0
BBX 8 32 -1 -8
BITMAP
06
0F
0F
06
00
00
00
07
1F
07
07
07
07
07
07
07
07
07
07
07
07
07
07
07
07
07
07
06
0E
1C
38
E0
ENDCHAR
STARTCHAR k
ENCODING 107
SWIDTH 524 0
DWIDTH 17 0
BBX 17 25 1 0
BITMAP
180000
F80000
380000
380000
380000
380000
380000
380000
381F00
383800
387000
38E000
38C000
398000
3B0000
3F0000
3F8000
3F8000
3BC000
39E000
38F000
387800
383C00
381F00
FE0780
ENDCHAR
STARTCHAR l
ENCODING 108
SWIDTH 279 0
DWIDTH 9 0
BBX 7 25 1 0
BITMAP
18
F8
38
38
38
38
38
38
38
38
38
38
38
38
38
38
38
38
38
38
38
38
38
38
FE
ENDCHAR
STARTCHAR m
ENCODING 109
SWIDTH 923 0
DWIDTH 31 0
BBX 29 17 2 0
BITMAP
38380700
F9FE3FC0
3E0FC3C0
3C0781E0
380700E0
380700E0
380700E0
380700E0
380700E0
380700E0
380700E0
380700E0
380700E0
380700E0
380700E0
380700E0
FF3FE7F8
ENDCHAR
STARTCHAR n
ENCODING 110
SWIDTH 619 0
DWIDTH 21 0
BBX 18 17 2 0
BITMAP
387800
F9FE00
3E1E00
3C0F00
380700
380700
380700
380700
380700
380700
380700
380700
380700
380700
380700
380700
FE3FC0
ENDCHAR
STARTCHAR o
ENCODING 111
SWIDTH 577 0
DWIDTH 19 0
BBX 15 17 2 0
BITMAP
07C0
1830
3018
701C
701C
E00E
E00E
E00E
E00E
E00E
E00E
E00E
701C
701C
3018
1830
07C0
ENDCHAR
STARTCHAR p
ENCODING 112
SWIDTH 608 0
DWIDTH 20 0
BBX 17 25 1 -8
BITMAP
387000
F9FE00
3E1E00
3C0700
380700
380380
380380
380380
380380
380380
380380
380300
380700
380700
3C0E00
3E1C00
3BF000
380000
380000
380000
380000
380000
380000
380000
FF0000
ENDCHAR
STARTCHAR q
ENCODING 113
SWIDTH 591 0
DWIDTH 20 0
BBX 17 25 2 -8
BITMAP
07E600
1C3E00
381E00
700E00
700E00
E00E00
E00E00
E00E00
E00E00
E00E00
E00E00
E00E00
700E00
781E00
3C3E00
1FEE00
070E00
000E00
000E00
000E00
000E00
000E00
000E00
000E00
007F80
ENDCHAR
STARTCHAR r
ENCODING 114
SWIDTH 389 0
DWIDTH 13 0
BBX 11 17 2 0
BITMAP
38C0
F9E0
3FE0
3C40
3800
3800
3800
3800
3800
3800
3800
3800
3800
3800
3800
3800
FF00
ENDCHAR
STARTCHAR s
ENCODING 115
SWIDTH 436 0
DWIDTH 15 0
BBX 11 17 2 0
BITMAP
1F00
31C0
60C0
E040
E040
F000
7800
7E00
1F80
07C0
01E0
80E0
80E0
C0E0
C0C0
E180
3F00
ENDCHAR
STARTCHAR t
ENCODING 116
SWIDTH 344 0
DWIDTH 11 0
BBX 10 21 2 0
BITMAP
0800
1800
1800
3800
FF80
3800
3800
3800
3800
3800
3800
3800
3800
3800
3800
3800
3800
3800
3C00
1FC0
0E00
ENDCHAR
STARTCHAR u
ENCODING 117
SWIDTH 606 0
DWIDTH 20 0
BBX 18 17 1 0
BITMAP
380700
F81F00
380700
380700
380700
380700
380700
380700
380700
380700
380700
380700
380700
3C0F00
1E1F00
1FE700
0707C0
ENDCHAR
STARTCHAR v
ENCODING 118
SWIDTH 504 0
DWIDTH 17 0
BBX 18 17 0 0
BITMAP
FF1FC0
3C0300
1C0600
1C0600
1C0600
0E0400
0E0C00
0E0800
070800
071800
071000
039000
03B000
03A000
01E000
01E000
01C000
ENDCHAR
STARTCHAR w
ENCODING 119
SWIDTH 768 0
DWIDTH 26 0
BBX 27 17 0 0
BITMAP
FE000FE0
380E0180
380E0100
1C0F0300
1C1F0300
1C170200
1C138600
0E338600
0E23C400
0E21C400
0721CC00
0761E800
0740E800
0740E800
03C0F000
03807000
03807000
ENDCHAR
STARTCHAR x
ENCODING 120
SWIDTH 486 0
DWIDTH 16 0
BBX 17 17 0 0
BITMAP
FE3F00
3C0C00
1C1800
1E3000
0F3000
076000
07C000
03C000
01C000
03E000
06E000
067000
0C7800
0C3800
181C00
381E00
FC7F80
ENDCHAR
STARTCHAR y
ENCODING 121
SWIDTH 506 0
DWIDTH 17 0
BBX 17 25 0 -8
BITMAP
FF1F80
3C0600
3C0600
1C0400
1E0C00
0E0C00
0E0800
0F0800
071800
071000
039000
03B000
03A000
01E000
01E000
01E000
00C000
00C000
00C000
008000
008000
110000
390000
3E0000
1C0000
ENDCHAR
STARTCHAR z
ENCODING 122
SWIDTH 480 0
DWIDTH 16 0
BBX 14 17 1 0
BITMAP
7FFC
703C
6078
40F0
40F0
01E0
03C0
0380
0780
0F00
0E00
1E00
3C04
3804
780C
F03C
FFFC
ENDCHAR
STARTCHAR braceleft
ENCODING 123
SWIDTH 340 0
DWIDTH 11 0
BBX 7 28 3 -4
BITMAP
0E
18
30
30
30
30
30
38
18
18
18
18
18
30
E0
20
10
18
18
18
18
38
30
30
30
30
18
0E
ENDCHAR
STARTCHAR bar
ENCODING 124
SWIDTH 228 0
DWIDTH 8 0
BBX 2 24 3 0
BITMAP
C0
C0
C0
C0
C0
C0
C0
C0
C0
C0
C0
C0
C0
C0
C0
C0
C0
C0
C0
C0
C0
C0
C0
C0
ENDCHAR
STARTCHAR braceright
ENCODING 125
SWIDTH 340 0
DWIDTH 11 0
BBX 8 28 1 -4
BITMAP
E0
30
18
18
18
18
18
18
18
10
10
18
18
0C
07
18
18
18
10
18
18
18
18
18
18
18
30
E0
ENDCHAR
STARTCHAR asciitilde
ENCODING 126
SWIDTH 570 0
DWIDTH 19 0
BBX 14 5 3 6
BITMAP
0808
3F0C
7FF8
C1F0
4000
ENDCHAR
STARTCHAR space
ENCODING 160
SWIDTH 225 0
DWIDTH 8 0
BBX 0 0 0 0
BITMAP
ENDCHAR
STARTCHAR exclamdown
ENCODING 161
SWIDTH 242 0
DWIDTH 8 0
BBX 4 24 2 -7
BITMAP
60
F0
F0
60
00
00
00
20
60
60
60
60
60
60
60
60
60
60
60
F0
F0
F0
F0
60
ENDCHAR
STARTCHAR cent
ENCODING 162
SWIDTH 530 0
DWIDTH 18 0
BBX 15 23 1 0
BITMAP
0080
0080
0080
07F0
1CBC
389E
708E
6084
E080
E080
E080
E080
E080
E080
F080
7082
7886
3E8C
1FF8
03C0
0080
0080
0080
ENDCHAR
STARTCHAR sterling
ENCODING 163
SWIDTH 530 0
DWIDTH 18 0
BBX 16 23 1 0
BITMAP
03E0
0E38
1C1C
180C
380C
3800
3800
3C00
1C00
1E00
1E00
0F00
7FF8
0780
0780
0380
0300
0300
0601
0C02
3FFE
7FFE
FFFC
ENDCHAR
STARTCHAR currency
ENCODING 164
SWIDTH 530 0
DWIDTH 18 0
BBX 16 16 1 4
BITMAP
4002
E3C7
6FF6
3C3C
300C
300C
6006
6006
6006
6006
6006
300C
300C
3C3C
6FF6
E3C7
ENDCHAR
STARTCHAR yen
ENCODING 165
SWIDTH 530 0
DWIDTH 18 0
BBX 17 23 0 0
BITMAP
FE1F80
380600
380600
1C0C00
1C0C00
1E0800
0E1800
0E1000
071000
073000
03A000
03E000
7FFE00
01C000
01C000
01C000
7FFE00
01C000
01C000
01C000
01C000
01C000
0FF800
ENDCHAR
STARTCHAR brokenbar
ENCODING 166
SWIDTH 228 0
DWIDTH 8 0
BBX 2 24 3 0
BITMAP
C0
C0
C0
C0
C0
C0
C0
C0
C0
00
00
00
00
C0
C0
C0
C0
C0
C0
C0
C0
C0
C0
C0
ENDCHAR
STARTCHAR section
ENCODING 167
SWIDTH 554 0
DWIDTH 18 0
BBX 16 28 1 -4
BITMAP
01F0
0638
041C
0C08
0C00
1E00
3700
67C0
43E0
41F0
C07C
C03E
E01E
700F
7C07
3E07
1F03
07C2
03E2
00F2
007C
003C
0038
0018
1818
3C10
1E30
07C0
ENDCHAR
STARTCHAR dieresis
ENCODING 168
SWIDTH 400 0
DWIDTH 13 0
BBX 11 4 1 19
BITMAP
60C0
F1E0
F1E0
60C0
ENDCHAR
STARTCHAR copyright
ENCODING 169
SWIDTH 818 0
DWIDTH 27 0
BBX 24 24 2 0
BITMAP
003800
01FF80
0781C0
0E0070
180038
300018
307C0C
60C386
618186
438086
C70003
C70003
C70003
C70003
C70003
438086
638186
61C386
307C0C
180018
1C0070
0701E0
03FF80
003800
ENDCHAR
STARTCHAR ordfeminine
ENCODING 170
SWIDTH 390 0
DWIDTH 13 0
BBX 11 11 1 9
BITMAP
0F00
3180
6180
2180
0380
1D80
7180
E180
E180
6380
3DE0
ENDCHAR
STARTCHAR guillemotleft
ENCODING 171
SWIDTH 442 0
DWIDTH 15 0
BBX 12 13 1 1
BITMAP
0410
0830
1860
30E0
70C0
61C0
E380
61C0
70C0
30E0
1860
0820
0410
ENDCHAR
STARTCHAR logicalnot
ENCODING 172
SWIDTH 570 0
DWIDTH 19 0
BBX 16 10 1 3
BITMAP
FFFF
FFFF
0003
0003
0003
0003
0003
0003
0003
0003
ENDCHAR
STARTCHAR hyphen
ENCODING 173
SWIDTH 392 0
DWIDTH 13 0
BBX 8 2 3 7
BITMAP
FF
FF
ENDCHAR
STARTCHAR registered
ENCODING 174
SWIDTH 818 0
DWIDTH 27 0
BBX 24 24 2 0
BITMAP
003800
01FF80
0781C0
0E0070
180038
300018
33FC0C
60C606
60C306
40C306
C0C202
C0C603
C0F803
C0C603
C0C603
40C606
60C306
60C30E
33F18C
180018
1C0070
0701E0
03FF80
003C00
ENDCHAR
STARTCHAR macron
ENCODING 175
SWIDTH 400 0
DWIDTH 13 0
BBX 10 2 2 20
BITMAP
FFC0
FFC0
ENDCHAR
STARTCHAR degree
ENCODING 176
SWIDTH 350 0
DWIDTH 12 0
BBX 10 10 1 13
BITMAP
1E00
3F00
6180
E1C0
C0C0
C0C0
E1C0
6180
3F00
1E00
ENDCHAR
STARTCHAR plusminus
ENCODING 177
SWIDTH 570 0
DWIDTH 19 0
BBX 16 18 2 0
BITMAP
0180
0180
0180
0180
0180
0180
FFFF
FFFF
0180
0180
0180
0180
0180
0180
0000
0000
FFFF
FFFF
ENDCHAR
STARTCHAR twosuperior
ENCODING 178
SWIDTH 380 0
DWIDTH 13 0
BBX 11 14 1 9
BITMAP
0E00
3380
61C0
61C0
21C0
0180
0380
0600
0C00
1800
2000
6060
7FC0
FFC0
ENDCHAR
STARTCHAR threesuperior
ENCODING 179
SWIDTH 380 0
DWIDTH 13 0
BBX 10 14 1 9
BITMAP
0E00
3380
61C0
61C0
01C0
0380
1E00
0300
0180
01C0
C1C0
E1C0
6380
1C00
ENDCHAR
STARTCHAR acute
ENCODING 180
SWIDTH 400 0
DWIDTH 13 0
BBX 7 6 5 18
BITMAP
04
0E
1C
38
60
80
ENDCHAR
STARTCHAR mu
ENCODING 181
SWIDTH 606 0
DWIDTH 20 0
BBX 18 25 1 -8
BITMAP
380700
F81F00
380700
380700
380700
380700
380700
380700
380700
380700
380700
380700
380700
3C0F00
3E1F00
3FE700
3787C0
300000
300000
300000
380000
380000
380000
380000
100000
ENDCHAR
STARTCHAR paragraph
ENCODING 182
SWIDTH 555 0
DWIDTH 19 0
BBX 15 27 2 -3
BITMAP
073E
1F30
3F30
7F30
7F30
7F30
FF30
FF30
FF30
FF30
7F30
7F30
3F30
1F30
0F30
0030
0030
0030
0030
0030
0030
0030
0030
0030
0030
0030
01F0
ENDCHAR
STARTCHAR periodcentered
ENCODING 183
SWIDTH 265 0
DWIDTH 9 0
BBX 4 4 2 6
BITMAP
60
F0
F0
60
ENDCHAR
STARTCHAR cedilla
ENCODING 184
SWIDTH 400 0
DWIDTH 13 0
BBX 6 8 5 -8
BITMAP
30
20
78
3C
1C
1C
38
F0
ENDCHAR
STARTCHAR onesuperior
ENCODING 185
SWIDTH 380 0
DWIDTH 13 0
BBX 6 14 3 9
BITMAP
30
F0
30
30
30
30
30
30
30
30
30
30
30
FC
ENDCHAR
STARTCHAR ordmasculine
ENCODING 186
SWIDTH 398 0
DWIDTH 13 0
BBX 11 11 1 9
BITMAP
1F00
71C0
60C0
E0E0
E0E0
E0E0
E0E0
E0E0
60C0
71C0
1F00
ENDCHAR
STARTCHAR guillemotright
ENCODING 187
SWIDTH 442 0
DWIDTH 15 0
BBX 12 13 1 1
BITMAP
8200
C100
6180
70C0
30E0
3860
1C70
3860
30E0
70C0
6180
4100
8200
ENDCHAR
STARTCHAR onequarter
ENCODING 188
SWIDTH 860 0
DWIDTH 29 0
BBX 23 25 3 -1
BITMAP
000040
700060
F000C0
3000C0
300180
300380
300300
300600
300600
300C00
301800
301818
303038
303038
FC6058
004098
00C098
018118
018318
030218
0207FE
060018
0C0018
08007E
080000
ENDCHAR
STARTCHAR onehalf
ENCODING 189
SWIDTH 860 0
DWIDTH 29 0
BBX 24 25 3 -1
BITMAP
000040
7000C0
F00080
300100
300300
300200
300600
300400
300C00
301800
3010F0
30319C
30230E
30630E
FC410E
00800C
01801C
010038
030060
0200C0
040180
0C0303
0803FE
1807FE
100000
ENDCHAR
STARTCHAR threequarters
ENCODING 190
SWIDTH 860 0
DWIDTH 29 0
BBX 25 25 2 -1
BITMAP
00000800
1C000C00
67001800
C3803800
C3803000
03006000
07006000
3E00C000
03018000
01818000
01C30000
01C70600
C1C60E00
638C0E00
3C0C1600
00182600
00302600
00304600
0060C600
00C18600
00C1FF80
01800600
01000600
03001F80
02000000
ENDCHAR
STARTCHAR questiondown
ENCODING 191
SWIDTH 389 0
DWIDTH 13 0
BBX 11 24 1 -7
BITMAP
0600
0E00
0F00
0E00
0000
0000
0000
0000
3E00
0780
0380
0380
0300
0600
0C00
1800
7000
7000
6000
E0C0
E0E0
E1E0
73C0
1F00
ENDCHAR
STARTCHAR Agrave
ENCODING 192
SWIDTH 635 0
DWIDTH 21 0
BBX 23 31 -1 0
BITMAP
010000
01C000
01F000
01F800
003E00
000600
000000
003800
003800
003C00
007C00
005C00
004E00
00CE00
008E00
008700
018700
018700
010780
030380
030380
03FFC0
0601C0
0601C0
0C00E0
0C00E0
0C00E0
180070
180070
380078
FF03FE
ENDCHAR
STARTCHAR Aacute
ENCODING 193
SWIDTH 635 0
DWIDTH 21 0
BBX 23 30 -1 0
BITMAP
000200
000F00
001F00
007800
00C000
000000
003800
003800
003C00
007C00
005C00
004E00
00CE00
008E00
008700
018700
018700
010780
030380
030380
03FFC0
0601C0
0601C0
0C00E0
0C00E0
0C00E0
180070
180070
380078
FF03FE
ENDCHAR
STARTCHAR Acircumflex
ENCODING 194
SWIDTH 635 0
DWIDTH 21 0
BBX 23 29 -1 0
BITMAP
001000
003C00
007E00
01C300
010080
003800
003800
003C00
005C00
005C00
004E00
00CE00
008E00
008F00
018700
010700
010780
030380
030380
07FFC0
0601C0
0401C0
0C01E0
0C00E0
0C00E0
1800F0
180070
380078
FF03FE
ENDCHAR
STARTCHAR Atilde
ENCODING 195
SWIDTH 635 0
DWIDTH 21 0
BBX 23 29 -1 0
BITMAP
000040
00F880
01FF00
021E00
020000
003800
003800
003C00
005C00
005C00
004E00
00CE00
008E00
008F00
018700
010700
010780
030380
030380
07FFC0
0601C0
0401C0
0C01E0
0C00E0
0C00E0
1800F0
180070
380078
FF03FE
ENDCHAR
STARTCHAR Adieresis
ENCODING 196
SWIDTH 635 0
DWIDTH 21 0
BBX 23 28 -1 0
BITMAP
018300
03C780
03C780
018300
003800
003800
007C00
005C00
005C00
00DE00
008E00
008E00
018F00
010700
010700
030780
030380
020380
07FFC0
0601C0
0401E0
0C01E0
0C00E0
0800F0
180070
180070
380078
FE03FE
ENDCHAR
STARTCHAR Aring
ENCODING 197
SWIDTH 627 0
DWIDTH 21 0
BBX 23 29 -1 0
BITMAP
003800
00C600
00C600
00C600
004400
007C00
003800
003800
007C00
005C00
005E00
00CE00
008E00
008F00
018F00
018700
010780
030780
030380
03FFC0
0603C0
0601C0
0C01E0
0C00E0
0C00F0
1800F0
180070
380078
FF03FE
ENDCHAR
STARTCHAR AE
ENCODING 198
SWIDTH 876 0
DWIDTH 29 0
BBX 30 24 -2 0
BITMAP
003FFFF8
0007C038
0005C018
000DC008
0009C008
0019C000
0011C000
0031C000
0021C020
0061C020
0041C060
00FFFFE0
0081C060
0181C020
0101C020
0301C000
0201C000
0601C000
0601C004
0C01C00C
0C01C00C
1801C01C
3801E038
FF0FFFF8
ENDCHAR
STARTCHAR Ccedilla
ENCODING 199
SWIDTH 680 0
DWIDTH 23 0
BBX 20 32 1 -8
BITMAP
007F00
03C1F0
0F0070
1E0030
3C0030
380010
780000
780000
700000
700000
F00000
F00000
F00000
F00000
F00000
700000
780000
780010
380010
3C0010
1E0030
0F0070
07C1F0
00FF80
001000
003000
003800
001E00
000E00
000E00
001C00
007800
ENDCHAR
STARTCHAR Egrave
ENCODING 200
SWIDTH 606 0
DWIDTH 20 0
BBX 18 31 1 0
BITMAP
040000
0E0000
0F8000
0FC000
01F000
003000
000000
FFFF80
1C0380
1C0180
1C0080
1C0080
1C0000
1C0000
1C0000
1C0200
1C0200
1C0600
1FFE00
1C0600
1C0200
1C0200
1C0000
1C0000
1C0000
1C0040
1C00C0
1C00C0
1C01C0
1E0380
FFFF80
ENDCHAR
STARTCHAR Eacute
ENCODING 201
SWIDTH 606 0
DWIDTH 20 0
BBX 18 30 1 0
BITMAP
000800
003C00
007C00
01E000
030000
000000
FFFF80
1C0380
1C0180
1C0080
1C0080
1C0000
1C0000
1C0000
1C0200
1C0200
1C0600
1FFE00
1C0600
1C0200
1C0200
1C0000
1C0000
1C0000
1C0040
1C00C0
1C00C0
1C01C0
1E0380
FFFF80
ENDCHAR
STARTCHAR Ecircumflex
ENCODING 202
SWIDTH 606 0
DWIDTH 20 0
BBX 18 29 1 0
BITMAP
004000
01E000
03F000
061C00
080400
FFFF80
1C0380
1C0180
1C0080
1C0080
1C0000
1C0000
1C0000
1C0200
1C0200
1C0600
1FFE00
1C0600
1C0200
1C0200
1C0000
1C0000
1C0000
1C0040
1C00C0
1C00C0
1C01C0
1E0380
FFFF80
ENDCHAR
STARTCHAR Edieresis
ENCODING 203
SWIDTH 606 0
DWIDTH 20 0
BBX 18 28 1 0
BITMAP
060C00
0F1E00
0F1E00
060C00
FFFF80
1C0380
1C0180
1C0080
1C0080
1C0000
1C0000
1C0000
1C0200
1C0200
1C0600
1FFE00
1C0600
1C0200
1C0200
1C0000
1C0000
1C0000
1C0040
1C00C0
1C00C0
1C01C0
1E0380
FFFF80
ENDCHAR
STARTCHAR Igrave
ENCODING 204
SWIDTH 349 0
DWIDTH 12 0
BBX 10 31 0 0
BITMAP
4000
7000
F800
7E00
1F00
0300
0000
7FC0
0E00
0E00
0E00
0E00
0E00
0E00
0E00
0E00
0E00
0E00
0E00
0E00
0E00
0E00
0E00
0E00
0E00
0E00
0E00
0E00
0E00
0E00
7FC0
ENDCHAR
STARTCHAR Iacute
ENCODING 205
SWIDTH 349 0
DWIDTH 12 0
BBX 10 30 1 0
BITMAP
0080
03C0
0F80
1E00
3000
0000
FF80
1C00
1C00
1C00
1C00
1C00
1C00
1C00
1C00
1C00
1C00
1C00
1C00
1C00
1C00
1C00
1C00
1C00
1C00
1C00
1C00
1C00
1C00
FF80
ENDCHAR
STARTCHAR Icircumflex
ENCODING 206
SWIDTH 349 0
DWIDTH 12 0
BBX 9 29 1 0
BITMAP
0800
1C00
3F00
E380
8080
FF80
1C00
1C00
1C00
1C00
1C00
1C00
1C00
1C00
1C00
1C00
1C00
1C00
1C00
1C00
1C00
1C00
1C00
1C00
1C00
1C00
1C00
1C00
FF80
ENDCHAR
STARTCHAR Idieresis
ENCODING 207
SWIDTH 349 0
DWIDTH 12 0
BBX 11 28 0 0
BITMAP
60C0
F1E0
F1E0
60C0
7FC0
0E00
0E00
0E00
0E00
0E00
0E00
0E00
0E00
0E00
0E00
0E00
0E00
0E00
0E00
0E00
0E00
0E00
0E00
0E00
0E00
0E00
0E00
7FC0
ENDCHAR
STARTCHAR Eth
ENCODING 208
SWIDTH 785 0
DWIDTH 26 0
BBX 24 24 1 0
BITMAP
7FFF00
0E03E0
0E00F0
0E0078
0E003C
0E001C
0E001E
0E000E
0E000E
0E000F
0E000F
FFF00F
0E000F
0E000F
0E000F
0E000E
0E001E
0E001E
0E001C
0E003C
0E0078
0E00F0
0F03C0
7FFF00
ENDCHAR
STARTCHAR Ntilde
ENCODING 209
SWIDTH 780 0
DWIDTH 26 0
BBX 24 29 1 0
BITMAP
000040
007880
01FF80
021E00
020000
FE00FF
1F003C
1F0018
1F8018
1BC018
1BC018
19E018
18E018
18F018
187818
183818
183C18
181E18
180E18
180F18
180798
180398
1803D8
1801F8
1800F8
1800F8
180078
3C0038
FF0038
ENDCHAR
STARTCHAR Ograve
ENCODING 210
SWIDTH 762 0
DWIDTH 25 0
BBX 23 30 1 0
BITMAP
010000
03C000
01F000
007800
000C00
000000
00FE00
0783C0
0E00E0
1C0070
380038
380038
78003C
70001C
70001C
F0001E
F0001E
F0001E
F0001E
F0001E
F0001E
70001C
70001C
78003C
380038
380038
1C0070
0E00E0
0783C0
00FE00
ENDCHAR
STARTCHAR Oacute
ENCODING 211
SWIDTH 762 0
DWIDTH 25 0
BBX 23 30 1 0
BITMAP
000200
000F00
001F00
007800
00C000
000000
00FE00
0783C0
0E00E0
1C0070
380038
380038
78003C
70001C
70001C
F0001E
F0001E
F0001E
F0001E
F0001E
F0001E
70001C
70001C
78003C
380038
380038
1C0070
0E00E0
0783C0
00FE00
ENDCHAR
STARTCHAR Ocircumflex
ENCODING 212
SWIDTH 762 0
DWIDTH 25 0
BBX 23 29 1 0
BITMAP
001000
003800
00FE00
01C700
020080
00FE00
0783C0
0E00E0
1C0070
380038
380038
78003C
70001C
70001C
F0001E
F0001E
F0001E
F0001E
F0001E
F0001E
70001C
70001C
78003C
380038
380038
1C0070
0E00E0
0783C0
00FE00
ENDCHAR
STARTCHAR Otilde
ENCODING 213
SWIDTH 762 0
DWIDTH 25 0
BBX 23 29 1 0
BITMAP
000040
007080
01FF80
021E00
020000
00FE00
0783C0
0E00E0
1C0070
380038
380038
78003C
70001C
70001C
F0001E
F0001E
F0001E
F0001E
F0001E
F0001E
70001C
70001C
78003C
380038
380038
1C0070
0E00E0
0783C0
00FE00
ENDCHAR
STARTCHAR Odieresis
ENCODING 214
SWIDTH 762 0
DWIDTH 25 0
BBX 23 28 1 0
BITMAP
018300
03C780
03C780
018300
00FE00
0783C0
0E00E0
1C0070
380038
380038
78003C
70001C
70001C
F0001E
F0001E
F0001E
F0001E
F0001E
F0001E
70001C
70001C
78003C
380038
380038
1C0070
0E00E0
0783C0
00FE00
ENDCHAR
STARTCHAR multiply
ENCODING 215
SWIDTH 570 0
DWIDTH 19 0
BBX 15 15 2 1
BITMAP
4004
E00E
701C
3838
1C70
0EE0
07C0
0380
07C0
0EE0
1C70
3838
701C
E00E
4004
ENDCHAR
STARTCHAR Oslash
ENCODING 216
SWIDTH 762 0
DWIDTH 25 0
BBX 23 26 1 -1
BITMAP
000010
00FC30
0783E0
0E00E0
1C00F0
3801F8
380138
78033C
70021C
70061C
F00C1E
F0081E
F0181E
F0301E
F0201E
F0601E
70C01C
70801C
79803C
3B0038
3E0038
1E0070
0E00E0
0F83C0
18FE00
100000
ENDCHAR
STARTCHAR Ugrave
ENCODING 217
SWIDTH 791 0
DWIDTH 26 0
BBX 24 31 1 0
BITMAP
020000
038000
03E000
03F000
007C00
000C00
000000
FF81FF
1C0038
1C0038
1C0038
1C0038
1C0038
1C0038
1C0038
1C0038
1C0038
1C0038
1C0038
1C0038
1C0038
1C0038
1C0038
1C0038
1C0038
0C0030
0E0070
0E0070
0700E0
0381C0
007E00
ENDCHAR
STARTCHAR Uacute
ENCODING 218
SWIDTH 791 0
DWIDTH 26 0
BBX 24 30 1 0
BITMAP
000100
000780
000F80
003C00
006000
000000
FF81FF
1C0038
1C0038
1C0038
1C0038
1C0038
1C0038
1C0038
1C0038
1C0038
1C0038
1C0038
1C0038
1C0038
1C0038
1C0038
1C0038
1C0038
0C0030
0E0070
0E0070
0700E0
0381C0
007E00
ENDCHAR
STARTCHAR Ucircumflex
ENCODING 219
SWIDTH 791 0
DWIDTH 26 0
BBX 24 29 1 0
BITMAP
001800
003C00
007E00
00C380
010080
FF81FF
1C0038
1C0038
1C0038
1C0038
1C0038
1C0038
1C0038
1C0038
1C0038
1C0038
1C0038
1C0038
1C0038
1C0038
1C0038
1C0038
1C0038
0C0030
0E0070
0E0070
0700E0
0381C0
007E00
ENDCHAR
STARTCHAR Udieresis
ENCODING 220
SWIDTH 791 0
DWIDTH 26 0
BBX 24 28 1 0
BITMAP
00C180
01E3C0
01E3C0
00C180
FFC1FF
1C0038
1C0038
1C0038
1C0038
1C0038
1C0038
1C0038
1C0038
1C0038
1C0038
1C0038
1C0038
1C0038
1C0038
1C0038
1C0038
1C0038
0C0030
0E0070
0E0070
0700E0
0381C0
007E00
ENDCHAR
STARTCHAR Yacute
ENCODING 221
SWIDTH 588 0
DWIDTH 20 0
BBX 21 30 0 0
BITMAP
000100
000780
001F00
003C00
006000
000000
FF83F8
3C00E0
1C00C0
1E0180
0E0180
0F0300
070300
078200
038600
03C400
01CC00
01E800
00F800
00F000
007000
007000
007000
007000
007000
007000
007000
007000
007000
07FE00
ENDCHAR
STARTCHAR Thorn
ENCODING 222
SWIDTH 593 0
DWIDTH 20 0
BBX 18 24 1 0
BITMAP
FF8000
3E0000
1C0000
1C0000
1C0000
1C0000
1FF800
1C1F00
1C0780
1C0380
1C03C0
1C03C0
1C03C0
1C0380
1C0380
1C0700
1C1E00
1FF800
1C0000
1C0000
1C0000
1C0000
1C0000
FFC000
ENDCHAR
STARTCHAR germandbls
ENCODING 223
SWIDTH 601 0
DWIDTH 20 0
BBX 18 25 1 0
BITMAP
03F000
070C00
0E0E00
1C0700
1C0700
380700
380600
380E00
381C00
383800
383000
387000
387000
383800
383C00
381E00
380F00
380780
380380
380180
3801C0
3801C0
386180
387380
FE1C00
ENDCHAR
STARTCHAR agrave
ENCODING 224
SWIDTH 523 0
DWIDTH 17 0
BBX 15 25 2 0
BITMAP
2000
3800
3C00
1E00
0700
0180
0000
0000
07C0
38E0
F0F0
E070
6070
0070
01F0
0770
3C70
7070
E070
E070
E070
E070
70F0
7F7E
3C38
ENDCHAR
STARTCHAR aacute
ENCODING 225
SWIDTH 523 0
DWIDTH 17 0
BBX 15 25 2 0
BITMAP
0020
0060
01E0
01C0
0300
0C00
0000
0000
07C0
38E0
F0F0
E070
6070
0070
01F0
0770
3C70
7070
E070
E070
E070
E070
70F0
7F7E
3C38
ENDCHAR
STARTCHAR acircumflex
ENCODING 226
SWIDTH 523 0
DWIDTH 17 0
BBX 15 24 2 0
BITMAP
0200
0700
0F80
18C0
3060
2020
0000
07C0
38E0
F0F0
E070
6070
0070
00F0
0770
1C70
7070
E070
E070
E070
E070
70F0
7F7E
3C38
ENDCHAR
STARTCHAR atilde
ENCODING 227
SWIDTH 523 0
DWIDTH 17 0
BBX 15 23 2 0
BITMAP
1C10
3E10
43E0
C1C0
0000
0000
07C0
38E0
F0F0
E070
6070
0070
00F0
0370
1C70
7070
E070
E070
E070
E070
70F0
7F7E
3C38
ENDCHAR
STARTCHAR adieresis
ENCODING 228
SWIDTH 523 0
DWIDTH 17 0
BBX 15 23 2 0
BITMAP
3060
78F0
78F0
3060
0000
0000
07C0
38E0
F0F0
E070
6070
0070
01F0
0770
3C70
7070
E070
E070
E070
E070
70F0
7F7E
3C38
ENDCHAR
STARTCHAR aring
ENCODING 229
SWIDTH 523 0
DWIDTH 17 0
BBX 15 25 2 0
BITMAP
0700
0880
18C0
18C0
18C0
0880
0700
0000
07C0
38E0
F0F0
E070
6070
0070
01F0
0770
3C70
7070
E070
E070
E070
E070
70F0
7F7E
3C38
ENDCHAR
STARTCHAR ae
ENCODING 230
SWIDTH 797 0
DWIDTH 27 0
BBX 23 17 2 0
BITMAP
0787C0
38EE38
F0F81C
E0780C
60780E
00700E
00F00E
03FFFE
1C7000
707000
E07000
E07000
E07806
E07C04
709E1C
7F0FF8
1C01E0
ENDCHAR
STARTCHAR ccedilla
ENCODING 231
SWIDTH 496 0
DWIDTH 17 0
BBX 13 25 2 -8
BITMAP
0780
18F0
3078
7038
6010
E000
E000
E000
E000
E000
E000
F000
7008
7018
3830
1FE0
0780
0200
0200
0700
03C0
01C0
01C0
0380
0F00
ENDCHAR
STARTCHAR egrave
ENCODING 232
SWIDTH 514 0
DWIDTH 17 0
BBX 14 24 2 0
BITMAP
3800
3C00
1E00
0700
0180
0040
0000
0780
1C70
3038
7018
601C
E01C
E01C
FFFC
E000
E000
E000
E000
700C
7808
3C38
1FF0
07C0
ENDCHAR
STARTCHAR eacute
ENCODING 233
SWIDTH 514 0
DWIDTH 17 0
BBX 14 24 2 0
BITMAP
0030
0070
01E0
03C0
0700
0400
0000
0780
1C70
3038
7018
601C
E01C
E01C
FFFC
E000
E000
E000
E000
700C
7808
3C38
1FF0
07C0
ENDCHAR
STARTCHAR ecircumflex
ENCODING 234
SWIDTH 514 0
DWIDTH 17 0
BBX 14 24 2 0
BITMAP
0100
0780
0FC0
0C60
1830
2010
0000
0780
1C70
3038
7018
601C
E01C
E01C
FFFC
E000
E000
E000
E000
700C
7808
3C38
1FF0
07C0
ENDCHAR
STARTCHAR edieresis
ENCODING 235
SWIDTH 514 0
DWIDTH 17 0
BBX 14 23 2 0
BITMAP
3060
78F0
78F0
3060
0000
0000
0780
1C70
3038
7018
601C
E01C
E01C
FFFC
E000
E000
E000
E000
700C
7808
3C38
1FF0
07C0
ENDCHAR
STARTCHAR igrave
ENCODING 236
SWIDTH 291 0
DWIDTH 10 0
BBX 8 24 1 0
BITMAP
C0
F0
70
18
0C
02
00
1C
7C
1C
1C
1C
1C
1C
1C
1C
1C
1C
1C
1C
1C
1C
1C
7F
ENDCHAR
STARTCHAR iacute
ENCODING 237
SWIDTH 291 0
DWIDTH 10 0
BBX 7 24 2 0
BITMAP
06
0E
1C
38
60
80
00
38
F8
38
38
38
38
38
38
38
38
38
38
38
38
38
38
FE
ENDCHAR
STARTCHAR icircumflex
ENCODING 238
SWIDTH 291 0
DWIDTH 10 0
BBX 10 24 0 0
BITMAP
0400
0E00
1F00
3380
60C0
C040
0000
0E00
3E00
0E00
0E00
0E00
0E00
0E00
0E00
0E00
0E00
0E00
0E00
0E00
0E00
0E00
0E00
3F80
ENDCHAR
STARTCHAR idieresis
ENCODING 239
SWIDTH 291 0
DWIDTH 10 0
BBX 11 23 0 0
BITMAP
60C0
F1E0
F1C0
60C0
0000
0000
0600
3E00
0E00
0E00
0E00
0E00
0E00
0E00
0E00
0E00
0E00
0E00
0E00
0E00
0E00
0E00
3F80
ENDCHAR
STARTCHAR eth
ENCODING 240
SWIDTH 577 0
DWIDTH 19 0
BBX 15 25 2 0
BITMAP
3000
3818
0E70
07C0
0F80
3DC0
20E0
0070
07F8
1838
301C
701C
700C
E00E
E00E
E00E
E00E
E00E
E00E
E00E
701C
701C
3018
1830
07C0
ENDCHAR
STARTCHAR ntilde
ENCODING 241
SWIDTH 619 0
DWIDTH 21 0
BBX 18 23 2 0
BITMAP
030200
0F8400
18FC00
103000
000000
000000
387800
F9FE00
3E1E00
3C0F00
380700
380700
380700
380700
380700
380700
380700
380700
380700
380700
380700
380700
FE3FC0
ENDCHAR
STARTCHAR ograve
ENCODING 242
SWIDTH 577 0
DWIDTH 19 0
BBX 15 24 2 0
BITMAP
3800
3C00
1E00
0700
0180
00C0
0000
07C0
1830
3018
701C
701C
E00E
E00E
E00E
E00E
E00E
E00E
E00E
701C
701C
3018
1830
07C0
ENDCHAR
STARTCHAR oacute
ENCODING 243
SWIDTH 577 0
DWIDTH 19 0
BBX 15 24 2 0
BITMAP
0030
00F0
01E0
0380
0700
0400
0000
07C0
1830
3018
701C
701C
E00E
E00E
E00E
E00E
E00E
E00E
E00E
701C
701C
3018
1830
07C0
ENDCHAR
STARTCHAR ocircumflex
ENCODING 244
SWIDTH 577 0
DWIDTH 19 0
BBX 15 24 2 0
BITMAP
0100
0380
07C0
0C60
1830
3018
0000
07C0
1830
3018
701C
701C
E00E
E00E
E00E
E00E
E00E
E00E
E00E
701C
701C
3018
1830
07C0
ENDCHAR
STARTCHAR otilde
ENCODING 245
SWIDTH 577 0
DWIDTH 19 0
BBX 15 23 2 0
BITMAP
0E08
1F08
21F0
2060
0000
0000
07C0
1830
3018
701C
701C
E00E
E00E
E00E
E00E
E00E
E00E
E00E
701C
701C
3018
1830
07C0
ENDCHAR
STARTCHAR odieresis
ENCODING 246
SWIDTH 577 0
DWIDTH 19 0
BBX 15 23 2 0
BITMAP
1830
3C78
3C78
1830
0000
0000
07C0
1830
3018
701C
701C
E00E
E00E
E00E
E00E
E00E
E00E
E00E
701C
701C
3018
1830
07C0
ENDCHAR
STARTCHAR divide
ENCODING 247
SWIDTH 570 0
DWIDTH 19 0
BBX 16 16 1 1
BITMAP
0180
03C0
03C0
0180
0000
0000
0000
FFFF
FFFF
0000
0000
0000
0180
03C0
03C0
0180
ENDCHAR
STARTCHAR oslash
ENCODING 248
SWIDTH 577 0
DWIDTH 19 0
BBX 15 19 2 -1
BITMAP
0008
0788
1870
3038
703C
605C
E0CC
E08E
E18E
E10E
E20E
E60E
E40E
7C1C
781C
3018
3C30
27C0
6000
ENDCHAR
STARTCHAR ugrave
ENCODING 249
SWIDTH 606 0
DWIDTH 20 0
BBX 18 24 1 0
BITMAP
180000
1E0000
0F0000
038000
01C000
004000
000000
380700
F81F00
380700
380700
380700
380700
380700
380700
380700
380700
380700
380700
380700
3C0F00
1E1F00
1FE700
0707C0
ENDCHAR
STARTCHAR uacute
ENCODING 250
SWIDTH 606 0
DWIDTH 20 0
BBX 18 24 1 0
BITMAP
000C00
003C00
007800
007000
00C000
010000
000000
380700
F81F00
380700
380700
380700
380700
380700
380700
380700
380700
380700
380700
380700
3C0F00
1E1F00
1FE700
0707C0
ENDCHAR
STARTCHAR ucircumflex
ENCODING 251
SWIDTH 606 0
DWIDTH 20 0
BBX 18 24 1 0
BITMAP
00C000
01E000
03F000
073000
061800
080400
000000
380700
F81F00
380700
380700
380700
380700
380700
380700
380700
380700
380700
380700
380700
3C0F00
1E1F00
1FE700
0707C0
ENDCHAR
STARTCHAR udieresis
ENCODING 252
SWIDTH 606 0
DWIDTH 20 0
BBX 18 23 1 0
BITMAP
060C00
0F1E00
0F1E00
060C00
000000
000000
380700
F81F00
380700
380700
380700
380700
380700
380700
380700
380700
380700
380700
380700
3C0F00
1E1F00
1FE700
0707C0
ENDCHAR
STARTCHAR yacute
ENCODING 253
SWIDTH 506 0
DWIDTH 17 0
BBX 17 33 0 -8
BITMAP
000800
001C00
003C00
007000
00E000
018000
000000
000000
FF1F80
3C0600
3C0600
1C0400
1E0C00
0E0C00
0E0800
0F0800
071800
071000
039000
03B000
03A000
01E000
01E000
01E000
00C000
00C000
00C000
008000
008000
110000
390000
3E0000
1C0000
ENDCHAR
STARTCHAR thorn
ENCODING 254
SWIDTH 606 0
DWIDTH 20 0
BBX 17 33 1 -8
BITMAP
180000
F80000
380000
380000
380000
380000
380000
380000
387000
39FE00
3E1E00
3C0700
380700
380380
380380
380380
380380
380380
380380
380300
380700
380700
3C0E00
3E1C00
39F000
380000
380000
380000
380000
380000
380000
380000
FF0000
ENDCHAR
STARTCHAR ydieresis
ENCODING 255
SWIDTH 506 0
DWIDTH 17 0
BBX 17 31 0 -8
BITMAP
0C1800
1E3C00
1E3C00
0C1800
000000
000000
FF1F80
3C0600
1C0600
1C0400
1E0C00
0E0C00
0E0800
070800
071800
071000
039000
03B000
03A000
01E000
01E000
01E000
00C000
00C000
00C000
008000
008000
110000
390000
3E0000
1C0000
ENDCHAR
STARTCHAR Amacron
ENCODING 256
SWIDTH 635 0
DWIDTH 21 0
BBX 23 27 -1 0
BITMAP
01FF80
01FF80
000000
003800
003800
003C00
005C00
005C00
004E00
00CE00
008E00
008F00
018700
010700
010780
030380
030380
07FFC0
0601C0
0401C0
0C01E0
0C00E0
0C00E0
1800F0
180070
380078
FF03FE
ENDCHAR
STARTCHAR amacron
ENCODING 257
SWIDTH 523 0
DWIDTH 17 0
BBX 15 20 2 0
BITMAP
3FF0
3FF0
0000
07C0
38E0
F0F0
E070
6070
0070
01F0
0770
3C70
7070
E070
E070
E070
E070
70F0
7F7E
3C38
ENDCHAR
STARTCHAR Abreve
ENCODING 258
SWIDTH 635 0
DWIDTH 21 0
BBX 23 30 -1 0
BITMAP
010100
010100
008200
00FE00
007C00
000000
003800
003800
003C00
005C00
005C00
004E00
00CE00
008E00
008F00
018700
010700
010780
030380
030380
07FFC0
0601C0
0401C0
0C01E0
0C00E0
0C00E0
1800F0
180070
380078
FF03FE
ENDCHAR
STARTCHAR abreve
ENCODING 259
SWIDTH 523 0
DWIDTH 17 0
BBX 15 23 2 0
BITMAP
2020
2020
1040
1FC0
0F80
0000
07C0
38E0
F0F0
E070
6070
0070
01F0
0770
3C70
7070
E070
E070
E070
E070
70F0
7F7E
3C38
ENDCHAR
STARTCHAR Aogonek
ENCODING 260
SWIDTH 635 0
DWIDTH 21 0
BBX 23 32 -1 -8
BITMAP
003800
003800
003C00
005C00
005C00
004E00
00CE00
008E00
008F00
018700
010700
010780
030380
030380
07FFC0
0601C0
0401C0
0C01E0
0C00E0
0C00E0
1800F0
180070
380078
FF03FE
000000
001800
003000
002000
006000
006000
007200
001C00
ENDCHAR
STARTCHAR aogonek
ENCODING 261
SWIDTH 523 0
DWIDTH 17 0
BBX 15 25 2 -8
BITMAP
07C0
38E0
F0F0
E070
6070
0070
01F0
0770
3C70
7070
E070
E070
E070
E070
70F0
7F7E
3C38
0000
0180
0300
0200
0600
0600
0720
01C0
ENDCHAR
STARTCHAR Cacute
ENCODING 262
SWIDTH 684 0
DWIDTH 23 0
BBX 20 31 1 0
BITMAP
000400
000E00
001C00
003800
006000
008000
000000
007F00
03C1F0
0F0070
1E0030
3C0030
380010
780000
780000
700000
700000
F00000
F00000
F00000
F00000
F00000
700000
780000
780010
380010
3C0010
1E0030
0F0070
03C1F0
00FF80
ENDCHAR
STARTCHAR cacute
ENCODING 263
SWIDTH 496 0
DWIDTH 17 0
BBX 14 24 2 0
BITMAP
0020
0070
00E0
01C0
0300
0400
0000
07C0
1870
3038
7038
6010
E000
E000
E000
E000
E000
E000
F000
700C
7818
3C30
1FE0
0700
ENDCHAR
STARTCHAR Ccircumflex
ENCODING 264
SWIDTH 684 0
DWIDTH 23 0
BBX 20 31 1 0
BITMAP
006000
00F000
01F800
019800
030C00
040200
000000
007F00
03C1F0
0F0070
1E0030
3C0030
380010
780000
780000
700000
700000
F00000
F00000
F00000
F00000
F00000
700000
780000
780010
380010
3C0010
1E0030
0F0070
03C1F0
00FF80
ENDCHAR
STARTCHAR ccircumflex
ENCODING 265
SWIDTH 496 0
DWIDTH 17 0
BBX 14 24 2 0
BITMAP
0300
0780
0FC0
0CC0
1860
2010
0000
07C0
1870
3038
7038
6010
E000
E000
E000
E000
E000
E000
F000
700C
7818
3C30
1FE0
0700
ENDCHAR
STARTCHAR Cdotaccent
ENCODING 266
SWIDTH 684 0
DWIDTH 23 0
BBX 20 29 1 0
BITMAP
006000
00F000
00F000
006000
000000
007F00
03C1F0
0F0070
1E0030
3C0030
380010
780000
780000
700000
700000
F00000
F00000
F00000
F00000
F00000
700000
780000
780010
380010
3C0010
1E0030
0F0070
03C1F0
00FF80
ENDCHAR
STARTCHAR cdotaccent
ENCODING 267
SWIDTH 496 0
DWIDTH 17 0
BBX 14 22 2 0
BITMAP
0300
0780
0780
0300
0000
07C0
1870
3038
7038
6010
E000
E000
E000
E000
E000
E000
F000
700C
7818
3C30
1FE0
0700
ENDCHAR
STARTCHAR Ccaron
ENCODING 268
SWIDTH 684 0
DWIDTH 23 0
BBX 20 32 1 0
BITMAP
040200
060600
030C00
019800
00F000
00F000
006000
000000
007F00
03C1F0
0F0070
1E0030
3C0030
380010
780000
780000
700000
700000
F00000
F00000
F00000
F00000
F00000
700000
780000
780010
380010
3C0010
1E0030
0F0070
03C1F0
00FF80
ENDCHAR
STARTCHAR ccaron
ENCODING 269
SWIDTH 496 0
DWIDTH 17 0
BBX 14 25 2 0
BITMAP
2010
3030
1860
0CC0
0780
0780
0300
0000
07C0
1870
3038
7038
6010
E000
E000
E000
E000
E000
E000
F000
700C
7818
3C30
1FE0
0700
ENDCHAR
STARTCHAR Dcaron
ENCODING 270
SWIDTH 779 0
DWIDTH 26 0
BBX 24 32 1 0
BITMAP
010080
018180
00C300
006600
003C00
003C00
001800
000000
FFFF00
1C07E0
1C00F0
1C0078
1C003C
1C001C
1C001E
1C000E
1C000E
1C000F
1C000F
1C000F
1C000F
1C000F
1C000F
1C000E
1C001E
1C001E
1C001C
1C003C
1C0078
1C00F0
1E03C0
FFFF00
ENDCHAR
STARTCHAR dcaron
ENCODING 271
SWIDTH 846 0
DWIDTH 28 0
BBX 24 25 2 0
BITMAP
00060E
003E0E
000E0F
000E07
000E06
000E06
000E04
000E08
07CE10
1C3E00
381E00
700E00
700E00
E00E00
E00E00
E00E00
E00E00
E00E00
E00E00
E00E00
700E00
781E00
3C3E00
1FEE00
070F80
ENDCHAR
STARTCHAR Dcroat
ENCODING 272
SWIDTH 785 0
DWIDTH 26 0
BBX 24 24 1 0
BITMAP
7FFF00
0E03E0
0E00F0
0E0078
0E003C
0E001C
0E001E
0E000E
0E000E
0E000F
0E000F
FFF00F
0E000F
0E000F
0E000F
0E000E
0E001E
0E001E
0E001C
0E003C
0E0078
0E00F0
0F03C0
7FFF00
ENDCHAR
STARTCHAR dcroat
ENCODING 273
SWIDTH 598 0
DWIDTH 20 0
BBX 18 25 2 0
BITMAP
000600
003E00
000E00
000E00
000E00
000E00
000E00
007FC0
07FFC0
1C3E00
381E00
700E00
700E00
E00E00
E00E00
E00E00
E00E00
E00E00
E00E00
E00E00
700E00
781E00
3C3E00
1FEE00
070F80
ENDCHAR
STARTCHAR Emacron
ENCODING 274
SWIDTH 606 0
DWIDTH 20 0
BBX 18 27 1 0
BITMAP
1FF800
1FF800
000000
FFFF80
1C0380
1C0180
1C0080
1C0080
1C0000
1C0000
1C0000
1C0200
1C0200
1C0600
1FFE00
1C0600
1C0200
1C0200
1C0000
1C0000
1C0000
1C0040
1C00C0
1C00C0
1C01C0
1E0380
FFFF80
ENDCHAR
STARTCHAR emacron
ENCODING 275
SWIDTH 514 0
DWIDTH 17 0
BBX 14 20 2 0
BITMAP
3FF0
3FF0
0000
0780
1C70
3038
7018
601C
E01C
E01C
FFFC
E000
E000
E000
E000
700C
7808
3C38
1FF0
07C0
ENDCHAR
STARTCHAR Ebreve
ENCODING 276
SWIDTH 606 0
DWIDTH 20 0
BBX 18 30 1 0
BITMAP
080800
080800
041000
07F000
03E000
000000
FFFF80
1C0380
1C0180
1C0080
1C0080
1C0000
1C0000
1C0000
1C0200
1C0200
1C0600
1FFE00
1C0600
1C0200
1C0200
1C0000
1C0000
1C0000
1C0040
1C00C0
1C00C0
1C01C0
1E0380
FFFF80
ENDCHAR
STARTCHAR ebreve
ENCODING 277
SWIDTH 514 0
DWIDTH 17 0
BBX 14 23 2 0
BITMAP
1010
1010
0820
0FE0
07C0
0000
0780
1C70
3038
7018
601C
E01C
E01C
FFFC
E000
E000
E000
E000
700C
7808
3C38
1FF0
07C0
ENDCHAR
STARTCHAR Edotaccent
ENCODING 278
SWIDTH 606 0
DWIDTH 20 0
BBX 18 29 1 0
BITMAP
018000
03C000
03C000
018000
000000
FFFF80
1C0380
1C0180
1C0080
1C0080
1C0000
1C0000
1C0000
1C0200
1C0200
1C0600
1FFE00
1C0600
1C0200
1C0200
1C0000
1C0000
1C0000
1C0040
1C00C0
1C00C0
1C01C0
1E0380
FFFF80
ENDCHAR
STARTCHAR edotaccent
ENCODING 279
SWIDTH 514 0
DWIDTH 17 0
BBX 14 22 2 0
BITMAP
0300
0780
0780
0300
0000
0780
1C70
3038
7018
601C
E01C
E01C
FFFC
E000
E000
E000
E000
700C
7808
3C38
1FF0
07C0
ENDCHAR
STARTCHAR Eogonek
ENCODING 280
SWIDTH 606 0
DWIDTH 20 0
BBX 18 32 1 -8
BITMAP
FFFF80
1C0380
1C0180
1C0080
1C0080
1C0000
1C0000
1C0000
1C0200
1C0200
1C0600
1FFE00
1C0600
1C0200
1C0200
1C0000
1C0000
1C0000
1C0040
1C00C0
1C00C0
1C01C0
1E0380
FFFF80
000000
00C000
018000
010000
030000
030000
039000
00E000
ENDCHAR
STARTCHAR eogonek
ENCODING 281
SWIDTH 514 0
DWIDTH 17 0
BBX 14 25 2 -8
BITMAP
0780
1C70
3038
7018
601C
E01C
E01C
FFFC
E000
E000
E000
E000
700C
7808
3C38
1FF0
07C0
0000
0300
0600
0400
0C00
0C00
0E40
0380
ENDCHAR
STARTCHAR Ecaron
ENCODING 282
SWIDTH 606 0
DWIDTH 20 0
BBX 18 32 1 0
BITMAP
100800
181800
0C3000
066000
03C000
03C000
018000
000000
FFFF80
1C0380
1C0180
1C0080
1C0080
1C0000
1C0000
1C0000
1C0200
1C0200
1C0600
1FFE00
1C0600
1C0200
1C0200
1C0000
1C0000
1C0000
1C0040
1C00C0
1C00C0
1C01C0
1E0380
FFFF80
ENDCHAR
STARTCHAR ecaron
ENCODING 283
SWIDTH 514 0
DWIDTH 17 0
BBX 14 25 2 0
BITMAP
2010
3030
1860
0CC0
0780
0780
0300
0000
0780
1C70
3038
7018
601C
E01C
E01C
FFFC
E000
E000
E000
E000
700C
7808
3C38
1FF0
07C0
ENDCHAR
STARTCHAR Gcircumflex
ENCODING 284
SWIDTH 734 0
DWIDTH 24 0
BBX 23 31 1 0
BITMAP
003000
007800
00FC00
00CC00
018600
020100
000000
003F80
03E0F8
0F0038
1E0018
3C0018
380008
780000
780000
700000
700000
F00000
F00000
F00000
F003FE
700038
700038
780038
780038
780038
3C0038
1E0038
0F0038
07C078
00FF80
ENDCHAR
STARTCHAR gcircumflex
ENCODING 285
SWIDTH 520 0
DWIDTH 17 0
BBX 16 32 1 -8
BITMAP
0180
03C0
07E0
0660
0C30
1008
0000
07C7
1C7F
3838
7018
701C
701C
701C
383C
3838
1C70
0FC0
1800
3000
7000
7FF0
3FFC
0FFE
381F
6007
E007
E007
E006
700E
3C3C
07E0
ENDCHAR
STARTCHAR Gbreve
ENCODING 286
SWIDTH 734 0
DWIDTH 24 0
BBX 23 30 1 0
BITMAP
020200
020200
010400
01FC00
00F800
000000
003F80
03E0F8
0F0038
1E0018
3C0018
380008
780000
780000
700000
700000
F00000
F00000
F00000
F003FE
700038
700038
780038
780038
780038
3C0038
1E0038
0F0038
07C078
00FF80
ENDCHAR
STARTCHAR gbreve
ENCODING 287
SWIDTH 520 0
DWIDTH 17 0
BBX 16 31 1 -8
BITMAP
0808
0808
0410
07F0
03E0
0000
07C7
1C7F
3838
7018
701C
701C
701C
383C
3838
1C70
0FC0
1800
3000
7000
7FF0
3FFC
0FFE
381F
6007
E007
E007
E006
700E
3C3C
07E0
ENDCHAR
STARTCHAR Gdotaccent
ENCODING 288
SWIDTH 734 0
DWIDTH 24 0
BBX 23 29 1 0
BITMAP
003000
007800
007800
003000
000000
003F80
03E0F8
0F0038
1E0018
3C0018
380008
780000
780000
700000
700000
F00000
F00000
F00000
F003FE
700038
700038
780038
780038
780038
3C0038
1E0038
0F0038
07C078
00FF80
ENDCHAR
STARTCHAR gdotaccent
ENCODING 289
SWIDTH 520 0
DWIDTH 17 0
BBX 16 30 1 -8
BITMAP
0180
03C0
03C0
0180
0000
07C7
1C7F
3838
7018
701C
701C
701C
383C
3838
1C70
0FC0
1800
3000
7000
7FF0
3FFC
0FFE
381F
6007
E007
E007
E006
700E
3C3C
07E0
ENDCHAR
STARTCHAR Gcommaaccent
ENCODING 290
SWIDTH 734 0
DWIDTH 24 0
BBX 23 34 1 -10
BITMAP
003F80
03E0F8
0F0038
1E0018
3C0018
380008
780000
780000
700000
700000
F00000
F00000
F00000
F003FE
700038
700038
780038
780038
780038
3C0038
1E0038
0F0038
07C078
00FF80
000000
001800
003800
003C00
001C00
001C00
001800
001000
002000
004000
ENDCHAR
STARTCHAR gcommaaccent
ENCODING 291
SWIDTH 520 0
DWIDTH 17 0
BBX 16 35 1 -8
BITMAP
0020
0040
0080
0180
0180
0380
03C0
01C0
01C0
0000
07C7
1C7F
3838
7018
701C
701C
701C
383C
3838
1C70
0FC0
1800
3000
7000
7FF0
3FFC
0FFE
381F
6007
E007
E007
E006
700E
3C3C
07E0
ENDCHAR
STARTCHAR Hcircumflex
ENCODING 292
SWIDTH 798 0
DWIDTH 27 0
BBX 24 31 1 0
BITMAP
001800
003C00
007E00
006600
00C300
010080
000000
FF81FF
1C0038
1C0038
1C0038
1C0038
1C0038
1C0038
1C0038
1C0038
1C0038
1C0038
1FFFF8
1C0038
1C0038
1C0038
1C0038
1C0038
1C0038
1C0038
1C0038
1C0038
1C0038
1C0038
FF81FF
ENDCHAR
STARTCHAR hcircumflex
ENCODING 293
SWIDTH 607 0
DWIDTH 20 0
BBX 18 32 1 0
BITMAP
0C0000
1E0000
3F0000
330000
618000
804000
000000
180000
F80000
380000
380000
380000
380000
380000
380000
387800
39FE00
3E1E00
3C0F00
380700
380700
380700
380700
380700
380700
380700
380700
380700
380700
380700
380700
FF3FC0
ENDCHAR
STARTCHAR Hbar
ENCODING 294
SWIDTH 798 0
DWIDTH 27 0
BBX 24 24 1 0
BITMAP
FF81FF
1C0038
1C0038
1C0038
1C0038
1C0038
1C0038
FFFFFF
FFFFFF
1C0038
1C0038
1FFFF8
1C0038
1C0038
1C0038
1C0038
1C0038
1C0038
1C0038
1C0038
1C0038
1C0038
1C0038
FF81FF
ENDCHAR
STARTCHAR hbar
ENCODING 295
SWIDTH 607 0
DWIDTH 20 0
BBX 18 25 1 0
BITMAP
180000
F80000
380000
380000
380000
380000
380000
7FC000
7FF800
39FE00
3E1E00
3C0F00
380700
380700
380700
380700
380700
380700
380700
380700
380700
380700
380700
380700
FF3FC0
ENDCHAR
STARTCHAR Itilde
ENCODING 296
SWIDTH 349 0
DWIDTH 12 0
BBX 12 29 -1 0
BITMAP
1810
7FE0
4FE0
8080
0000
3FE0
0700
0700
0700
0700
0700
0700
0700
0700
0700
0700
0700
0700
0700
0700
0700
0700
0700
0700
0700
0700
0700
0700
3FE0
ENDCHAR
STARTCHAR itilde
ENCODING 297
SWIDTH 291 0
DWIDTH 10 0
BBX 12 22 -1 0
BITMAP
1810
7FE0
4FE0
8080
0000
0700
1F00
0700
0700
0700
0700
0700
0700
0700
0700
0700
0700
0700
0700
0700
0700
1FC0
ENDCHAR
STARTCHAR Imacron
ENCODING 298
SWIDTH 349 0
DWIDTH 12 0
BBX 10 27 1 0
BITMAP
FFC0
FFC0
0000
FF80
1C00
1C00
1C00
1C00
1C00
1C00
1C00
1C00
1C00
1C00
1C00
1C00
1C00
1C00
1C00
1C00
1C00
1C00
1C00
1C00
1C00
1C00
FF80
ENDCHAR
STARTCHAR imacron
ENCODING 299
SWIDTH 291 0
DWIDTH 10 0
BBX 10 20 0 0
BITMAP
FFC0
FFC0
0000
0E00
3E00
0E00
0E00
0E00
0E00
0E00
0E00
0E00
0E00
0E00
0E00
0E00
0E00
0E00
0E00
3F80
ENDCHAR
STARTCHAR Ibreve
ENCODING 300
SWIDTH 349 0
DWIDTH 12 0
BBX 9 30 1 0
BITMAP
8080
8080
4100
7F00
3E00
0000
FF80
1C00
1C00
1C00
1C00
1C00
1C00
1C00
1C00
1C00
1C00
1C00
1C00
1C00
1C00
1C00
1C00
1C00
1C00
1C00
1C00
1C00
1C00
FF80
ENDCHAR
STARTCHAR ibreve
ENCODING 301
SWIDTH 291 0
DWIDTH 10 0
BBX 9 23 1 0
BITMAP
8080
8080
4100
7F00
3E00
0000
1C00
7C00
1C00
1C00
1C00
1C00
1C00
1C00
1C00
1C00
1C00
1C00
1C00
1C00
1C00
1C00
7F00
ENDCHAR
STARTCHAR Iogonek
ENCODING 302
SWIDTH 349 0
DWIDTH 12 0
BBX 9 32 1 -8
BITMAP
FF80
1C00
1C00
1C00
1C00
1C00
1C00
1C00
1C00
1C00
1C00
1C00
1C00
1C00
1C00
1C00
1C00
1C00
1C00
1C00
1C00
1C00
1C00
FF80
0000
0C00
1800
1000
3000
3000
3900
0E00
ENDCHAR
STARTCHAR iogonek
ENCODING 303
SWIDTH 291 0
DWIDTH 10 0
BBX 7 32 2 -8
BITMAP
30
78
78
30
00
00
00
38
F8
38
38
38
38
38
38
38
38
38
38
38
38
38
38
FE
00
18
30
20
60
60
72
1C
ENDCHAR
STARTCHAR Idotaccent
ENCODING 304
SWIDTH 349 0
DWIDTH 12 0
BBX 9 29 1 0
BITMAP
0C00
1E00
1E00
0C00
0000
FF80
1C00
1C00
1C00
1C00
1C00
1C00
1C00
1C00
1C00
1C00
1C00
1C00
1C00
1C00
1C00
1C00
1C00
1C00
1C00
1C00
1C00
1C00
FF80
ENDCHAR
STARTCHAR dotlessi
ENCODING 305
SWIDTH 291 0
DWIDTH 10 0
BBX 7 17 2 0
BITMAP
38
F8
38
38
38
38
38
38
38
38
38
38
38
38
38
38
FE
ENDCHAR
STARTCHAR IJ
ENCODING 306
SWIDTH 682 0
DWIDTH 23 0
BBX 21 27 1 -3
BITMAP
FF8FF8
1C01C0
1C01C0
1C01C0
1C01C0
1C01C0
1C01C0
1C01C0
1C01C0
1C01C0
1C01C0
1C01C0
1C01C0
1C01C0
1C01C0
1C01C0
1C01C0
1C01C0
1C01C0
1C01C0
1C01C0
1C01C0
1C0180
FF8380
000780
000E00
001000
ENDCHAR
STARTCHAR ij
ENCODING 307
SWIDTH 556 0
DWIDTH 19 0
BBX 15 32 2 -8
BITMAP
300C
781E
781E
300C
0000
0000
0000
380E
F83E
380E
380E
380E
380E
380E
380E
380E
380E
380E
380E
380E
380E
380E
380E
FE0E
000E
000E
000E
000C
001C
0038
0070
01C0
ENDCHAR
STARTCHAR Jcircumflex
ENCODING 308
SWIDTH 350 0
DWIDTH 12 0
BBX 10 34 1 -3
BITMAP
0C00
1E00
3F00
3300
6180
8040
0000
7FC0
0E00
0E00
0E00
0E00
0E00
0E00
0E00
0E00
0E00
0E00
0E00
0E00
0E00
0E00
0E00
0E00
0E00
0E00
0E00
0E00
0E00
0C00
1C00
3C00
7000
8000
ENDCHAR
STARTCHAR jcircumflex
ENCODING 309
SWIDTH 280 0
DWIDTH 9 0
BBX 11 32 -1 -8
BITMAP
0600
0F00
1F80
1980
30C0
4020
0000
0700
1F00
0700
0700
0700
0700
0700
0700
0700
0700
0700
0700
0700
0700
0700
0700
0700
0700
0700
0700
0600
0E00
1C00
3800
E000
ENDCHAR
STARTCHAR Kcommaaccent
ENCODING 310
SWIDTH 658 0
DWIDTH 22 0
BBX 21 34 1 -10
BITMAP
FF87F8
1C01C0
1C0380
1C0700
1C0E00
1C0C00
1C1800
1C3000
1C6000
1C8000
1D8000
1FC000
1DE000
1DF000
1CF800
1C7800
1C3C00
1C1E00
1C1F00
1C0F80
1C0780
1C03C0
1C01F0
FF8038
000000
003000
007000
007800
003800
003800
003000
002000
004000
008000
ENDCHAR
STARTCHAR kcommaaccent
ENCODING 311
SWIDTH 524 0
DWIDTH 17 0
BBX 17 35 1 -10
BITMAP
180000
F80000
380000
380000
380000
380000
380000
380000
381F00
383800
387000
38E000
38C000
398000
3B0000
3F0000
3F8000
3F8000
3BC000
39E000
38F000
387800
383C00
381F00
FE0780
000000
018000
038000
03C000
01C000
01C000
018000
010000
020000
040000
ENDCHAR
STARTCHAR kgreenlandic
ENCODING 312
SWIDTH 524 0
DWIDTH 17 0
BBX 17 16 1 0
BITMAP
383800
387000
38E000
38C000
398000
3B0000
3F0000
3F8000
3F8000
3BC000
39E000
38F000
387800
383C00
381F00
FE0780
ENDCHAR
STARTCHAR Lacute
ENCODING 313
SWIDTH 568 0
DWIDTH 19 0
BBX 17 31 1 0
BITMAP
004000
00E000
01C000
038000
060000
080000
000000
FF8000
1C0000
1C0000
1C0000
1C0000
1C0000
1C0000
1C0000
1C0000
1C0000
1C0000
1C0000
1C0000
1C0000
1C0000
1C0000
1C0000
1C0000
1C0080
1C0080
1C0080
1C0180
1E0780
FFFF80
ENDCHAR
STARTCHAR lacute
ENCODING 314
SWIDTH 279 0
DWIDTH 9 0
BBX 8 32 1 0
BITMAP
02
07
0E
1C
30
40
00
18
F8
38
38
38
38
38
38
38
38
38
38
38
38
38
38
38
38
38
38
38
38
38
38
FE
ENDCHAR
STARTCHAR Lcommaaccent
ENCODING 315
SWIDTH 568 0
DWIDTH 19 0
BBX 17 34 1 -10
BITMAP
FF8000
1C0000
1C0000
1C0000
1C0000
1C0000
1C0000
1C0000
1C0000
1C0000
1C0000
1C0000
1C0000
1C0000
1C0000
1C0000
1C0000
1C0000
1C0080
1C0080
1C0080
1C0180
1E0780
FFFF80
000000
00C000
01C000
01E000
00E000
00E000
00C000
008000
010000
020000
ENDCHAR
STARTCHAR lcommaaccent
ENCODING 316
SWIDTH 279 0
DWIDTH 9 0
BBX 7 35 1 -10
BITMAP
18
F8
38
38
38
38
38
38
38
38
38
38
38
38
38
38
38
38
38
38
38
38
38
38
FE
00
18
38
3C
1C
1C
18
10
20
40
ENDCHAR
STARTCHAR Lcaron
ENCODING 317
SWIDTH 818 0
DWIDTH 27 0
BBX 24 25 1 0
BITMAP
00000E
FF800E
1C000F
1C0007
1C0006
1C0006
1C0004
1C0008
1C0010
1C0000
1C0000
1C0000
1C0000
1C0000
1C0000
1C0000
1C0000
1C0000
1C0000
1C0080
1C0080
1C0080
1C0180
1E0780
FFFF80
ENDCHAR
STARTCHAR lcaron
ENCODING 318
SWIDTH 543 0
DWIDTH 18 0
BBX 15 25 1 0
BITMAP
181C
F81C
381E
380E
380C
380C
3808
3810
3820
3800
3800
3800
3800
3800
3800
3800
3800
3800
3800
3800
3800
3800
3800
3800
FE00
ENDCHAR
STARTCHAR Ldot
ENCODING 319
SWIDTH 805 0
DWIDTH 27 0
BBX 23 24 1 0
BITMAP
FF8000
1C0000
1C0000
1C0000
1C0000
1C0000
1C0000
1C0000
1C0000
1C0000
1C0000
1C0000
1C0000
1C0000
1C000C
1C001E
1C001E
1C000C
1C0080
1C0080
1C0080
1C0180
1E0780
FFFF80
ENDCHAR
STARTCHAR ldot
ENCODING 320
SWIDTH 530 0
DWIDTH 18 0
BBX 14 25 1 0
BITMAP
1800
F800
3800
3800
3800
3800
3800
3800
3800
3800
3800
3800
3800
3800
3800
3818
383C
383C
3818
3800
3800
3800
3800
3800
FE00
ENDCHAR
STARTCHAR Lslash
ENCODING 321
SWIDTH 574 0
DWIDTH 19 0
BBX 18 24 1 0
BITMAP
7FC000
0E0000
0E0000
0E0000
0E0000
0E0000
0E0000
0E2000
0E6000
0EC000
0F8000
0F0000
0E0000
1E0000
6E0000
4E0000
8E0000
0E0000
0E0040
0E0040
0E0040
0E00C0
0F03C0
7FFFC0
ENDCHAR
STARTCHAR lslash
ENCODING 322
SWIDTH 294 0
DWIDTH 10 0
BBX 10 25 0 0
BITMAP
0C00
7C00
1C00
1C00
1C00
1C00
1C00
1C40
1C80
1D80
1F00
1C00
1C00
3C00
7C00
9C00
9C00
1C00
1C00
1C00
1C00
1C00
1C00
1C00
7F00
ENDCHAR
STARTCHAR Nacute
ENCODING 323
SWIDTH 780 0
DWIDTH 26 0
BBX 24 31 1 0
BITMAP
000200
000700
000E00
001C00
003000
004000
000000
FE00FF
1F003C
1F0018
1F8018
1BC018
1BC018
19E018
18E018
18F018
187818
183818
183C18
181E18
180E18
180F18
180798
180398
1803D8
1801F8
1800F8
1800F8
180078
3C0038
FF0038
ENDCHAR
STARTCHAR nacute
ENCODING 324
SWIDTH 619 0
DWIDTH 21 0
BBX 18 24 2 0
BITMAP
001000
003800
007000
00E000
018000
020000
000000
387800
F9FE00
3E1E00
3C0F00
380700
380700
380700
380700
380700
380700
380700
380700
380700
380700
380700
380700
FE3FC0
ENDCHAR
STARTCHAR Ncommaaccent
ENCODING 325
SWIDTH 780 0
DWIDTH 26 0
BBX 24 34 1 -10
BITMAP
FE00FF
1F003C
1F0018
1F8018
1BC018
1BC018
19E018
18E018
18F018
187818
183818
183C18
181E18
180E18
180F18
180798
180398
1803D8
1801F8
1800F8
1800F8
180078
3C0038
FF0038
000000
000C00
001C00
001E00
000E00
000E00
000C00
000800
001000
002000
ENDCHAR
STARTCHAR ncommaaccent
ENCODING 326
SWIDTH 619 0
DWIDTH 21 0
BBX 18 27 2 -10
BITMAP
387800
F9FE00
3E1E00
3C0F00
380700
380700
380700
380700
380700
380700
380700
380700
380700
380700
380700
380700
FE3FC0
000000
00C000
01C000
01E000
00E000
00E000
00C000
008000
010000
020000
ENDCHAR
STARTCHAR Ncaron
ENCODING 327
SWIDTH 780 0
DWIDTH 26 0
BBX 24 32 1 0
BITMAP
020100
030300
018600
00CC00
007800
007800
003000
000000
FE00FF
1F003C
1F0018
1F8018
1BC018
1BC018
19E018
18E018
18F018
187818
183818
183C18
181E18
180E18
180F18
180798
180398
1803D8
1801F8
1800F8
1800F8
180078
3C0038
FF0038
ENDCHAR
STARTCHAR ncaron
ENCODING 328
SWIDTH 619 0
DWIDTH 21 0
BBX 18 25 2 0
BITMAP
080400
0C0C00
061800
033000
01E000
01E000
00C000
000000
387800
F9FE00
3E1E00
3C0F00
380700
380700
380700
380700
380700
380700
380700
380700
380700
380700
380700
380700
FE3FC0
ENDCHAR
STARTCHAR napostrophe
ENCODING 329
SWIDTH 883 0
DWIDTH 30 0
BBX 27 25 2 0
BITMAP
70000000
70000000
78000000
38000000
30000000
30000000
20000000
40000000
801C3C00
007CFF00
001F0F00
001E0780
001C0380
001C0380
001C0380
001C0380
001C0380
001C0380
001C0380
001C0380
001C0380
001C0380
001C0380
001C0380
007F1FE0
ENDCHAR
STARTCHAR Eng
ENCODING 330
SWIDTH 780 0
DWIDTH 26 0
BBX 24 32 1 -8
BITMAP
FE00FF
1F003C
1F0018
1F8018
1BC018
1BC018
19E018
18E018
18F018
187818
183818
183C18
181E18
180E18
180F18
180798
180398
1803F8
1801F8
1800F8
1800F8
180078
3C0038
FF0038
000038
000038
000038
000030
000070
0000E0
0001C0
000700
ENDCHAR
STARTCHAR eng
ENCODING 331
SWIDTH 619 0
DWIDTH 21 0
BBX 16 25 2 -8
BITMAP
3878
F9FE
3E1E
3C0F
3807
3807
3807
3807
3807
3807
3807
3807
3807
3807
3807
3807
FE07
0007
0007
0007
0006
000E
001C
0038
00E0
ENDCHAR
STARTCHAR Omacron
ENCODING 332
SWIDTH 762 0
DWIDTH 25 0
BBX 23 27 1 0
BITMAP
01FF80
01FF80
000000
00FE00
0783C0
0E00E0
1C0070
380038
380038
78003C
70001C
70001C
F0001E
F0001E
F0001E
F0001E
F0001E
F0001E
70001C
70001C
78003C
380038
380038
1C0070
0E00E0
0783C0
00FE00
ENDCHAR
STARTCHAR omacron
ENCODING 333
SWIDTH 577 0
DWIDTH 19 0
BBX 15 20 2 0
BITMAP
1FF8
1FF8
0000
07C0
1830
3018
701C
701C
E00E
E00E
E00E
E00E
E00E
E00E
E00E
701C
701C
3018
1830
07C0
ENDCHAR
STARTCHAR Obreve
ENCODING 334
SWIDTH 762 0
DWIDTH 25 0
BBX 23 30 1 0
BITMAP
010100
010100
008200
00FE00
007C00
000000
00FE00
0783C0
0E00E0
1C0070
380038
380038
78003C
70001C
70001C
F0001E
F0001E
F0001E
F0001E
F0001E
F0001E
70001C
70001C
78003C
380038
380038
1C0070
0E00E0
0783C0
00FE00
ENDCHAR
STARTCHAR obreve
ENCODING 335
SWIDTH 577 0
DWIDTH 19 0
BBX 15 23 2 0
BITMAP
1010
1010
0820
0FE0
07C0
0000
07C0
1830
3018
701C
701C
E00E
E00E
E00E
E00E
E00E
E00E
E00E
701C
701C
3018
1830
07C0
ENDCHAR
STARTCHAR Ohungarumlaut
ENCODING 336
SWIDTH 762 0
DWIDTH 25 0
BBX 23 32 1 0
BITMAP
003100
003380
007300
006700
006600
00C400
008400
000000
00FE00
0783C0
0E00E0
1C0070
380038
380038
78003C
70001C
70001C
F0001E
F0001E
F0001E
F0001E
F0001E
F0001E
70001C
70001C
78003C
380038
380038
1C0070
0E00E0
0783C0
00FE00
ENDCHAR
STARTCHAR ohungarumlaut
ENCODING 337
SWIDTH 577 0
DWIDTH 19 0
BBX 15 25 2 0
BITMAP
0310
0338
0730
0670
0660
0C40
0840
0000
07C0
1830
3018
701C
701C
E00E
E00E
E00E
E00E
E00E
E00E
E00E
701C
701C
3018
1830
07C0
ENDCHAR
STARTCHAR OE
ENCODING 338
SWIDTH 1025 0
DWIDTH 34 0
BBX 32 24 1 0
BITMAP
007FFFFE
03E0F00E
0F007006
1E007002
3C007002
38007000
78007000
70007000
70007008
F0007008
F0007018
F0007FF8
F0007018
F0007008
F0007008
70007000
78007000
78007000
38007001
3C007003
1E007003
0F007007
07E0F80E
007FFFFE
ENDCHAR
STARTCHAR oe
ENCODING 339
SWIDTH 882 0
DWIDTH 29 0
BBX 26 17 2 0
BITMAP
07C07800
1831C700
383B0380
701F0180
701E01C0
E00E01C0
E00E01C0
E00FFFC0
E00E0000
E00E0000
E00E0000
E00E0000
701F0040
701F8080
301FC380
1831FF00
07C0FC00
ENDCHAR
STARTCHAR Racute
ENCODING 340
SWIDTH 644 0
DWIDTH 21 0
BBX 20 31 1 0
BITMAP
000400
000E00
001C00
003800
006000
008000
000000
FFFC00
1C1F00
1C0780
1C0380
1C03C0
1C03C0
1C03C0
1C03C0
1C0380
1C0780
1C0700
1C1E00
1FF000
1C1E00
1C0F00
1C0700
1C0700
1C0780
1C0780
1C0780
1C0380
1C03C0
1C01E0
FF80F0
ENDCHAR
STARTCHAR racute
ENCODING 341
SWIDTH 389 0
DWIDTH 13 0
BBX 11 24 2 0
BITMAP
0080
01C0
0380
0700
0C00
1000
0000
38C0
F9E0
3FE0
3C40
3800
3800
3800
3800
3800
3800
3800
3800
3800
3800
3800
3800
FF00
ENDCHAR
STARTCHAR Rcommaaccent
ENCODING 342
SWIDTH 644 0
DWIDTH 21 0
BBX 20 34 1 -10
BITMAP
FFFC00
1C1F00
1C0780
1C0380
1C03C0
1C03C0
1C03C0
1C03C0
1C0380
1C0780
1C0700
1C1E00
1FF000
1C1E00
1C0F00
1C0700
1C0700
1C0780
1C0780
1C0780
1C0380
1C03C0
1C01E0
FF80F0
000000
006000
00E000
00F000
007000
007000
006000
004000
008000
010000
ENDCHAR
STARTCHAR rcommaaccent
ENCODING 343
SWIDTH 389 0
DWIDTH 13 0
BBX 11 27 2 -10
BITMAP
38C0
F9E0
3FE0
3C40
3800
3800
3800
3800
3800
3800
3800
3800
3800
3800
3800
3800
FF00
0000
0C00
1C00
1E00
0E00
0E00
0C00
0800
1000
2000
ENDCHAR
STARTCHAR Rcaron
ENCODING 344
SWIDTH 644 0
DWIDTH 21 0
BBX 20 32 1 0
BITMAP
040200
060600
030C00
019800
00F000
00F000
006000
000000
FFFC00
1C1F00
1C0780
1C0380
1C03C0
1C03C0
1C03C0
1C03C0
1C0380
1C0780
1C0700
1C1E00
1FF000
1C1E00
1C0F00
1C0700
1C0700
1C0780
1C0780
1C0780
1C0380
1C03C0
1C01E0
FF80F0
ENDCHAR
STARTCHAR rcaron
ENCODING 345
SWIDTH 389 0
DWIDTH 13 0
BBX 11 25 2 0
BITMAP
4020
6060
30C0
1980
0F00
0F00
0600
0000
38C0
F9E0
3FE0
3C40
3800
3800
3800
3800
3800
3800
3800
3800
3800
3800
3800
3800
FF00
ENDCHAR
STARTCHAR Sacute
ENCODING 346
SWIDTH 541 0
DWIDTH 18 0
BBX 15 31 2 0
BITMAP
0040
00E0
01C0
0380
0600
0800
0000
0FE0
3838
7018
6018
E018
E008
E000
F000
7800
7E00
3FC0
0FF0
03F8
00FC
007C
001E
000E
800E
C00E
C00E
E00C
F018
7830
1FC0
ENDCHAR
STARTCHAR sacute
ENCODING 347
SWIDTH 436 0
DWIDTH 15 0
BBX 11 24 2 0
BITMAP
0080
01C0
0380
0700
0C00
1000
0000
1F00
31C0
60C0
E040
E040
F000
7800
7E00
1F80
07C0
01E0
80E0
80E0
C0E0
C0C0
E180
3F00
ENDCHAR
STARTCHAR Scircumflex
ENCODING 348
SWIDTH 541 0
DWIDTH 18 0
BBX 15 31 2 0
BITMAP
0300
0780
0FC0
0CC0
1860
2010
0000
0FE0
3838
7018
6018
E018
E008
E000
F000
7800
7E00
3FC0
0FF0
03F8
00FC
007C
001E
000E
800E
C00E
C00E
E00C
F018
7830
1FC0
ENDCHAR
STARTCHAR scircumflex
ENCODING 349
SWIDTH 436 0
DWIDTH 15 0
BBX 11 24 2 0
BITMAP
0C00
1E00
3F00
3300
6180
8040
0000
1F00
31C0
60C0
E040
E040
F000
7800
7E00
1F80
07C0
01E0
80E0
80E0
C0E0
C0C0
E180
3F00
ENDCHAR
STARTCHAR Scedilla
ENCODING 350
SWIDTH 541 0
DWIDTH 18 0
BBX 15 32 2 -8
BITMAP
0FE0
3838
7018
6018
E018
E008
E000
F000
7800
7E00
3FC0
0FF0
03F8
00FC
007C
001E
000E
800E
C00E
C00E
E00C
F018
7830
1FC0
0300
0200
0780
03C0
01C0
01C0
0380
0F00
ENDCHAR
STARTCHAR scedilla
ENCODING 351
SWIDTH 436 0
DWIDTH 15 0
BBX 11 25 2 -8
BITMAP
1F00
31C0
60C0
E040
E040
F000
7800
7E00
1F80
07C0
01E0
80E0
80E0
C0E0
C0C0
E180
3F00
0C00
0800
1E00
0F00
0700
0700
0E00
3C00
ENDCHAR
STARTCHAR Scaron
ENCODING 352
SWIDTH 541 0
DWIDTH 18 0
BBX 15 29 2 0
BITMAP
3018
0C60
07C0
0380
0100
0FE0
3838
7018
6018
E018
E008
E000
F000
7800
7E00
3FC0
0FF0
03F8
00FC
007C
001E
001E
800E
C00E
C00E
E00C
F018
7830
1FC0
ENDCHAR
STARTCHAR scaron
ENCODING 353
SWIDTH 436 0
DWIDTH 15 0
BBX 11 25 2 0
BITMAP
8040
4040
6180
3380
1F00
0E00
0400
0000
1F00
31C0
60C0
E040
E040
F000
7800
7E00
1F80
07C0
01E0
80E0
80E0
C0E0
C0C0
E180
3F00
ENDCHAR
STARTCHAR Tcommaaccent
ENCODING 354
SWIDTH 621 0
DWIDTH 21 0
BBX 19 32 1 -8
BITMAP
FFFFE0
E0E0E0
C0E060
80E020
80E020
80E020
00E000
00E000
00E000
00E000
00E000
00E000
00E000
00E000
00E000
00E000
00E000
00E000
00E000
00E000
00E000
00E000
00E000
0FFE00
006000
004000
00F000
007800
003800
003800
007000
01E000
ENDCHAR
STARTCHAR tcommaaccent
ENCODING 355
SWIDTH 344 0
DWIDTH 11 0
BBX 10 29 2 -8
BITMAP
0800
1800
1800
3800
FF80
3800
3800
3800
3800
3800
3800
3800
3800
3800
3800
3800
3800
3800
3C00
1FC0
0E00
0C00
0800
1E00
0F00
0700
0700
0E00
3C00
ENDCHAR
STARTCHAR Tcaron
ENCODING 356
SWIDTH 621 0
DWIDTH 21 0
BBX 19 32 1 0
BITMAP
040200
060600
030C00
019800
00F000
00F000
006000
000000
FFFFE0
E0E0E0
C0E060
80E020
80E020
80E020
00E000
00E000
00E000
00E000
00E000
00E000
00E000
00E000
00E000
00E000
00E000
00E000
00E000
00E000
00E000
00E000
00E000
0FFE00
ENDCHAR
STARTCHAR tcaron
ENCODING 357
SWIDTH 605 0
DWIDTH 19 0
BBX 15 25 2 0
BITMAP
001C
001C
001E
000E
080C
180C
1808
3810
FFA0
3800
3800
3800
3800
3800
3800
3800
3800
3800
3800
3800
3800
3800
3C00
1FC0
0E00
ENDCHAR
STARTCHAR Tbar
ENCODING 358
SWIDTH 621 0
DWIDTH 21 0
BBX 19 24 1 0
BITMAP
FFFFE0
E0E0E0
C0E060
80E020
80E020
80E020
00E000
00E000
00E000
00E000
00E000
07FC00
07FC00
00E000
00E000
00E000
00E000
00E000
00E000
00E000
00E000
00E000
00E000
0FFE00
ENDCHAR
STARTCHAR tbar
ENCODING 359
SWIDTH 344 0
DWIDTH 11 0
BBX 10 21 2 0
BITMAP
0800
1800
1800
3800
FF80
3800
3800
3800
3800
3800
3800
3800
7FC0
7FC0
3800
3800
3800
3800
3C00
1FC0
0E00
ENDCHAR
STARTCHAR Utilde
ENCODING 360
SWIDTH 791 0
DWIDTH 26 0
BBX 24 29 1 0
BITMAP
006040
01FF80
013F80
020200
000000
FF81FF
1C0038
1C0038
1C0038
1C0038
1C0038
1C0038
1C0038
1C0038
1C0038
1C0038
1C0038
1C0038
1C0038
1C0038
1C0038
1C0038
1C0038
0C0030
0E0070
0E0070
0700E0
0381C0
007E00
ENDCHAR
STARTCHAR utilde
ENCODING 361
SWIDTH 606 0
DWIDTH 20 0
BBX 18 22 1 0
BITMAP
030200
0FFC00
09FC00
101000
000000
380700
F81F00
380700
380700
380700
380700
380700
380700
380700
380700
380700
380700
380700
3C0F00
1E1F00
1FE700
0707C0
ENDCHAR
STARTCHAR Umacron
ENCODING 362
SWIDTH 791 0
DWIDTH 26 0
BBX 24 27 1 0
BITMAP
01FF80
01FF80
000000
FF81FF
1C0038
1C0038
1C0038
1C0038
1C0038
1C0038
1C0038
1C0038
1C0038
1C0038
1C0038
1C0038
1C0038
1C0038
1C0038
1C0038
1C0038
0C0030
0E0070
0E0070
0700E0
0381C0
007E00
ENDCHAR
STARTCHAR umacron
ENCODING 363
SWIDTH 606 0
DWIDTH 20 0
BBX 18 20 1 0
BITMAP
0FFC00
0FFC00
000000
380700
F81F00
380700
380700
380700
380700
380700
380700
380700
380700
380700
380700
380700
3C0F00
1E1F00
1FE700
0707C0
ENDCHAR
STARTCHAR Ubreve
ENCODING 364
SWIDTH 791 0
DWIDTH 26 0
BBX 24 30 1 0
BITMAP
008080
008080
004100
007F00
003E00
000000
FF81FF
1C0038
1C0038
1C0038
1C0038
1C0038
1C0038
1C0038
1C0038
1C0038
1C0038
1C0038
1C0038
1C0038
1C0038
1C0038
1C0038
1C0038
0C0030
0E0070
0E0070
0700E0
0381C0
007E00
ENDCHAR
STARTCHAR ubreve
ENCODING 365
SWIDTH 606 0
DWIDTH 20 0
BBX 18 23 1 0
BITMAP
080800
080800
041000
07F000
03E000
000000
380700
F81F00
380700
380700
380700
380700
380700
380700
380700
380700
380700
380700
380700
3C0F00
1E1F00
1FE700
0707C0
ENDCHAR
STARTCHAR Uring
ENCODING 366
SWIDTH 791 0
DWIDTH 26 0
BBX 24 32 1 0
BITMAP
001C00
002200
006300
006300
006300
002200
001C00
000000
FF81FF
1C0038
1C0038
1C0038
1C0038
1C0038
1C0038
1C0038
1C0038
1C0038
1C0038
1C0038
1C0038
1C0038
1C0038
1C0038
1C0038
1C0038
0C0030
0E0070
0E0070
0700E0
0381C0
007E00
ENDCHAR
STARTCHAR uring
ENCODING 367
SWIDTH 606 0
DWIDTH 20 0
BBX 18 25 1 0
BITMAP
01C000
022000
063000
063000
063000
022000
01C000
000000
380700
F81F00
380700
380700
380700
380700
380700
380700
380700
380700
380700
380700
380700
3C0F00
1E1F00
1FE700
0707C0
ENDCHAR
STARTCHAR Uhungarumlaut
ENCODING 368
SWIDTH 791 0
DWIDTH 26 0
BBX 24 32 1 0
BITMAP
001880
0019C0
003980
003380
003300
006200
004200
000000
FF81FF
1C0038
1C0038
1C0038
1C0038
1C0038
1C0038
1C0038
1C0038
1C0038
1C0038
1C0038
1C0038
1C0038
1C0038
1C0038
1C0038
1C0038
0C0030
0E0070
0E0070
0700E0
0381C0
007E00
ENDCHAR
STARTCHAR uhungarumlaut
ENCODING 369
SWIDTH 606 0
DWIDTH 20 0
BBX 18 25 1 0
BITMAP
00C400
00CE00
01CC00
019C00
019800
031000
021000
000000
380700
F81F00
380700
380700
380700
380700
380700
380700
380700
380700
380700
380700
380700
3C0F00
1E1F00
1FE700
0707C0
ENDCHAR
STARTCHAR Uogonek
ENCODING 370
SWIDTH 791 0
DWIDTH 26 0
BBX 24 32 1 -8
BITMAP
FF81FF
1C0038
1C0038
1C0038
1C0038
1C0038
1C0038
1C0038
1C0038
1C0038
1C0038
1C0038
1C0038
1C0038
1C0038
1C0038
1C0038
1C0038
0C0030
0E0070
0E0070
0700E0
0381C0
007E00
000000
001800
003000
002000
006000
006000
007200
001C00
ENDCHAR
STARTCHAR uogonek
ENCODING 371
SWIDTH 606 0
DWIDTH 20 0
BBX 18 25 1 -8
BITMAP
380700
F81F00
380700
380700
380700
380700
380700
380700
380700
380700
380700
380700
380700
3C0F00
1E1F00
1FE700
0707C0
000000
006000
00C000
008000
018000
018000
01C800
007000
ENDCHAR
STARTCHAR Wcircumflex
ENCODING 372
SWIDTH 940 0
DWIDTH 31 0
BBX 33 31 0 0
BITMAP
0001800000
0003C00000
0007E00000
0006600000
000C300000
0010080000
0000000000
FF00007F80
3C01C00E00
1C01C00C00
1C01E00C00
1C03E00800
1E03E01800
0E03601800
0E02701800
0E06701000
0706303000
0706383000
070C383000
070C382000
038C1C2000
03881C6000
03981C4000
03980E4000
01D80E4000
01D00EC000
01F00F8000
01F0078000
00F0078000
00E0078000
00E0030000
ENDCHAR
STARTCHAR wcircumflex
ENCODING 373
SWIDTH 768 0
DWIDTH 26 0
BBX 27 24 0 0
BITMAP
000C0000
001E0000
003F0000
00330000
00618000
00804000
00000000
FE000FE0
380E0180
380E0100
1C0F0300
1C1F0300
1C170200
1C138600
0E338600
0E23C400
0E21C400
0721CC00
0761E800
0740E800
0740E800
03C0F000
03807000
03807000
ENDCHAR
STARTCHAR Ycircumflex
ENCODING 374
SWIDTH 588 0
DWIDTH 20 0
BBX 21 31 0 0
BITMAP
006000
00F000
01F800
019800
030C00
040200
000000
FF83F8
3C00E0
1C00C0
1E0180
0E0180
0F0300
070300
078200
038600
03C400
01CC00
01E800
00F800
00F000
007000
007000
007000
007000
007000
007000
007000
007000
007000
07FE00
ENDCHAR
STARTCHAR ycircumflex
ENCODING 375
SWIDTH 506 0
DWIDTH 17 0
BBX 17 32 0 -8
BITMAP
018000
03C000
07E000
066000
0C3000
100800
000000
FF1F80
3C0600
3C0600
1C0400
1E0C00
0E0C00
0E0800
0F0800
071800
071000
039000
03B000
03A000
01E000
01E000
01E000
00C000
00C000
00C000
008000
008000
110000
390000
3E0000
1C0000
ENDCHAR
STARTCHAR Ydieresis
ENCODING 376
SWIDTH 588 0
DWIDTH 20 0
BBX 21 28 0 0
BITMAP
030600
078F00
078F00
030600
FF03F8
3C00E0
1C00C0
1E0180
0E0180
0F0300
070300
078600
038600
03CC00
01CC00
01F800
00F800
00F000
007000
007000
007000
007000
007000
007000
007000
007000
007000
07FE00
ENDCHAR
STARTCHAR Zacute
ENCODING 377
SWIDTH 610 0
DWIDTH 20 0
BBX 19 31 0 0
BITMAP
000200
000700
000E00
001C00
003000
004000
000000
3FFFE0
3803E0
3003C0
200780
200F80
200F00
001E00
003E00
003C00
007800
007800
00F000
01E000
01E000
03C000
078000
078000
0F0000
1E0020
1E0020
3C0020
780060
7801E0
FFFFE0
ENDCHAR
STARTCHAR zacute
ENCODING 378
SWIDTH 480 0
DWIDTH 16 0
BBX 14 24 1 0
BITMAP
0020
0070
00E0
01C0
0300
0400
0000
7FFC
703C
6078
40F0
40F0
01E0
03C0
0380
0780
0F00
0E00
1E00
3C04
3804
780C
F03C
FFFC
ENDCHAR
STARTCHAR Zdotaccent
ENCODING 379
SWIDTH 610 0
DWIDTH 20 0
BBX 19 29 0 0
BITMAP
003000
007800
007800
003000
000000
3FFFE0
3803E0
3003C0
200780
200F80
200F00
001E00
003E00
003C00
007800
007800
00F000
01E000
01E000
03C000
078000
078000
0F0000
1E0020
1E0020
3C0020
780060
7801E0
FFFFE0
ENDCHAR
STARTCHAR zdotaccent
ENCODING 380
SWIDTH 480 0
DWIDTH 16 0
BBX 14 22 1 0
BITMAP
0180
03C0
03C0
0180
0000
7FFC
703C
6078
40F0
40F0
01E0
03C0
0380
0780
0F00
0E00
1E00
3C04
3804
780C
F03C
FFFC
ENDCHAR
STARTCHAR Zcaron
ENCODING 381
SWIDTH 610 0
DWIDTH 20 0
BBX 19 29 0 0
BITMAP
060600
031C00
01F800
00F000
004000
3FFFE0
3803E0
3003C0
200780
200F80
200F00
001E00
003E00
003C00
007800
007800
00F000
01E000
01E000
03C000
078000
078000
0F0000
1E0020
1E0020
3C0020
780060
7801E0
FFFFE0
ENDCHAR
STARTCHAR zcaron
ENCODING 382
SWIDTH 480 0
DWIDTH 16 0
BBX 14 25 1 0
BITMAP
2010
3030
1860
0CC0
0F80
0780
0300
0000
7FFC
703C
6078
40F0
40F0
01E0
03C0
0380
0780
0F00
0E00
1E00
3C04
3804
780C
F03C
FFFC
ENDCHAR
STARTCHAR uni0186
ENCODING 390
SWIDTH 684 0
DWIDTH 23 0
BBX 20 24 1 0
BITMAP
1FF000
F83C00
E00F00
C00780
8003C0
8001C0
8001E0
0001E0
0000E0
0000F0
0000F0
0000F0
0000F0
0000F0
0000E0
0000E0
0001E0
0001E0
8001C0
C003C0
C00780
E00F00
F83C00
0FE000
ENDCHAR
STARTCHAR uni0189
ENCODING 393
SWIDTH 785 0
DWIDTH 26 0
BBX 24 24 1 0
BITMAP
7FFF00
0E03E0
0E00F0
0E0078
0E003C
0E001C
0E001E
0E000E
0E000E
0E000F
0E000F
FFF00F
0E000F
0E000F
0E000F
0E000E
0E001E
0E001E
0E001C
0E003C
0E0078
0E00F0
0F03C0
7FFF00
ENDCHAR
STARTCHAR uni018E
ENCODING 398
SWIDTH 606 0
DWIDTH 20 0
BBX 18 24 1 0
BITMAP
7FFFC0
701E00
E00E00
C00E00
C00E00
800E00
000E00
000E00
000E00
100E00
100E00
180E00
1FFE00
180E00
100E00
100E00
000E00
000E00
000E00
400E00
400E00
600E00
700E00
7FFFC0
ENDCHAR
STARTCHAR florin
ENCODING 402
SWIDTH 530 0
DWIDTH 18 0
BBX 17 28 0 -4
BITMAP
000E00
003300
007380
006100
00E000
00E000
00E000
00E000
01C000
01C000
01C000
1FFC00
01C000
01C000
03C000
038000
038000
038000
038000
038000
030000
030000
070000
070000
060000
C60000
E40000
780000
ENDCHAR
STARTCHAR uni0197
ENCODING 407
SWIDTH 349 0
DWIDTH 12 0
BBX 9 24 1 0
BITMAP
FF80
1C00
1C00
1C00
1C00
1C00
1C00
1C00
1C00
1C00
1C00
FF80
FF80
1C00
1C00
1C00
1C00
1C00
1C00
1C00
1C00
1C00
1C00
FF80
ENDCHAR
STARTCHAR uni019A
ENCODING 410
SWIDTH 279 0
DWIDTH 9 0
BBX 9 25 0 0
BITMAP
0C00
7C00
1C00
1C00
1C00
1C00
1C00
1C00
1C00
1C00
1C00
FF80
FF80
1C00
1C00
1C00
1C00
1C00
1C00
1C00
1C00
1C00
1C00
1C00
7F00
ENDCHAR
STARTCHAR uni019D
ENCODING 413
SWIDTH 780 0
DWIDTH 26 0
BBX 26 32 -1 -8
BITMAP
3F803FC0
07C00F00
07C00600
07E00600
06F00600
06F00600
06780600
06380600
063C0600
061E0600
060E0600
060F0600
06078600
06038600
0603C600
0601E600
0600E600
0700F600
07007E00
07003E00
07003E00
07001E00
07000E00
07000E00
07000000
07000000
07000000
06000000
0E000000
1C000000
38000000
E0000000
ENDCHAR
STARTCHAR uni019F
ENCODING 415
SWIDTH 762 0
DWIDTH 25 0
BBX 23 24 1 0
BITMAP
00FE00
0783C0
0E00E0
1C0070
380038
380038
78003C
70001C
70001C
F0001E
F0001E
FFFFFE
FFFFFE
F0001E
F0001E
70001C
70001C
78003C
380038
380038
1C0070
0E00E0
0783C0
00FE00
ENDCHAR
STARTCHAR Ohorn
ENCODING 416
SWIDTH 762 0
DWIDTH 25 0
BBX 26 24 1 0
BITMAP
00FE0380
0783C380
0E00E3C0
1C0071C0
38003980
38003980
78003D00
70001E00
70001C00
F0001E00
F0001E00
F0001E00
F0001E00
F0001E00
F0001E00
70001C00
70001C00
78003C00
38003800
38003800
1C007000
0E00E000
0783C000
00FE0000
ENDCHAR
STARTCHAR ohorn
ENCODING 417
SWIDTH 577 0
DWIDTH 19 0
BBX 19 17 2 0
BITMAP
07C1C0
1831C0
3019E0
701CE0
701CC0
E00EC0
E00E80
E00F00
E00E00
E00E00
E00E00
E00E00
701C00
701C00
301800
183000
07C000
ENDCHAR
STARTCHAR uni01A7
ENCODING 423
SWIDTH 541 0
DWIDTH 18 0
BBX 15 24 2 0
BITMAP
0FE0
3838
301C
300C
300E
200E
000E
001E
003C
00FC
07F8
1FE0
3F80
7E00
7C00
F000
E000
E002
E006
E006
600E
301E
183C
07F0
ENDCHAR
STARTCHAR uni01A8
ENCODING 424
SWIDTH 436 0
DWIDTH 15 0
BBX 11 17 2 0
BITMAP
1F00
7180
60C0
40E0
40E0
01E0
03C0
0FC0
3F00
7C00
F000
E020
E020
E060
6060
30E0
1F80
ENDCHAR
STARTCHAR uni01AE
ENCODING 430
SWIDTH 621 0
DWIDTH 21 0
BBX 19 32 1 -8
BITMAP
FFFFE0
E0E0E0
C0E060
80E020
80E020
80E020
00E000
00E000
00E000
00E000
00E000
00E000
00E000
00E000
00E000
00E000
00E000
00E000
00E000
00E000
00E000
00E000
00E000
00E000
00E000
00E000
00E000
006000
007000
003800
001C00
000700
ENDCHAR
STARTCHAR Uhorn
ENCODING 431
SWIDTH 791 0
DWIDTH 26 0
BBX 27 24 1 0
BITMAP
FF81FFC0
1C0039C0
1C0039E0
1C0038E0
1C0038C0
1C0038C0
1C003880
1C003900
1C003A00
1C003800
1C003800
1C003800
1C003800
1C003800
1C003800
1C003800
1C003800
1C003800
0C003000
0E007000
0E007000
0700E000
0381C000
007E0000
ENDCHAR
STARTCHAR uhorn
ENCODING 432
SWIDTH 606 0
DWIDTH 20 0
BBX 21 17 1 0
BITMAP
380770
F81F70
380778
380738
380730
380730
380720
380740
380780
380700
380700
380700
380700
3C0F00
1E1F00
1FE700
0707C0
ENDCHAR
STARTCHAR uni01B5
ENCODING 437
SWIDTH 610 0
DWIDTH 20 0
BBX 19 24 0 0
BITMAP
3FFFE0
3803E0
3003C0
200780
200F80
200F00
001E00
003E00
003C00
007800
007800
07FC00
07FC00
01E000
03C000
078000
078000
0F0000
1E0020
1E0020
3C0020
780060
7801E0
FFFFE0
ENDCHAR
STARTCHAR uni01B6
ENCODING 438
SWIDTH 480 0
DWIDTH 16 0
BBX 14 17 1 0
BITMAP
7FFC
703C
6078
40F0
40F0
01E0
03C0
1FF0
1FF0
0F00
0E00
1E00
3C04
3804
780C
F03C
FFFC
ENDCHAR
STARTCHAR uni01BB
ENCODING 443
SWIDTH 530 0
DWIDTH 18 0
BBX 16 23 1 0
BITMAP
07E0
1C38
383C
781C
701E
301E
001E
001E
001C
003C
FFFF
FFFF
00E0
0180
0300
0600
0C00
1800
3001
3002
7FFE
7FFE
FFFE
ENDCHAR
STARTCHAR uni01BC
ENCODING 444
SWIDTH 530 0
DWIDTH 18 0
BBX 15 23 1 0
BITMAP
3FFC
3FFC
3FFC
3000
3000
3000
3000
3000
2000
23E0
3C78
301C
001C
000E
000E
000E
000E
000E
600E
F01C
7018
3C30
0FC0
ENDCHAR
STARTCHAR uni01C0
ENCODING 448
SWIDTH 228 0
DWIDTH 8 0
BBX 2 24 3 0
BITMAP
C0
C0
C0
C0
C0
C0
C0
C0
C0
C0
C0
C0
C0
C0
C0
C0
C0
C0
C0
C0
C0
C0
C0
C0
ENDCHAR
STARTCHAR uni01C2
ENCODING 450
SWIDTH 570 0
DWIDTH 19 0
BBX 16 24 2 -3
BITMAP
0180
0180
0180
0180
0180
0180
0180
0180
FFFF
FFFF
0180
0180
0180
0180
0180
FFFF
FFFF
0180
0180
0180
0180
0180
0180
0180
ENDCHAR
STARTCHAR uni01C3
ENCODING 451
SWIDTH 242 0
DWIDTH 8 0
BBX 4 24 2 0
BITMAP
60
F0
F0
F0
F0
60
60
60
60
60
60
60
60
60
60
60
40
00
00
00
60
F0
F0
60
ENDCHAR
STARTCHAR uni01CD
ENCODING 461
SWIDTH 635 0
DWIDTH 21 0
BBX 23 32 -1 0
BITMAP
010080
018180
00C300
006600
003C00
003C00
001800
000000
003800
003800
003C00
005C00
005C00
004E00
00CE00
008E00
008F00
018700
010700
010780
030380
030380
07FFC0
0601C0
0401C0
0C01E0
0C00E0
0C00E0
1800F0
180070
380078
FF03FE
ENDCHAR
STARTCHAR uni01CE
ENCODING 462
SWIDTH 523 0
DWIDTH 17 0
BBX 15 25 2 0
BITMAP
2010
3030
1860
0CC0
0780
0780
0300
0000
07C0
38E0
F0F0
E070
6070
0070
01F0
0770
3C70
7070
E070
E070
E070
E070
70F0
7F7E
3C38
ENDCHAR
STARTCHAR uni01CF
ENCODING 463
SWIDTH 349 0
DWIDTH 12 0
BBX 10 32 1 0
BITMAP
8040
C0C0
6180
3300
1E00
1E00
0C00
0000
FF80
1C00
1C00
1C00
1C00
1C00
1C00
1C00
1C00
1C00
1C00
1C00
1C00
1C00
1C00
1C00
1C00
1C00
1C00
1C00
1C00
1C00
1C00
FF80
ENDCHAR
STARTCHAR uni01D0
ENCODING 464
SWIDTH 291 0
DWIDTH 10 0
BBX 10 25 0 0
BITMAP
8040
C0C0
6180
3300
1E00
1E00
0C00
0000
0E00
3E00
0E00
0E00
0E00
0E00
0E00
0E00
0E00
0E00
0E00
0E00
0E00
0E00
0E00
0E00
3F80
ENDCHAR
STARTCHAR uni01D1
ENCODING 465
SWIDTH 762 0
DWIDTH 25 0
BBX 23 32 1 0
BITMAP
010080
018180
00C300
006600
003C00
003C00
001800
000000
00FE00
0783C0
0E00E0
1C0070
380038
380038
78003C
70001C
70001C
F0001E
F0001E
F0001E
F0001E
F0001E
F0001E
70001C
70001C
78003C
380038
380038
1C0070
0E00E0
0783C0
00FE00
ENDCHAR
STARTCHAR uni01D2
ENCODING 466
SWIDTH 577 0
DWIDTH 19 0
BBX 15 25 2 0
BITMAP
1008
1818
0C30
0660
03C0
03C0
0180
0000
07C0
1830
3018
701C
701C
E00E
E00E
E00E
E00E
E00E
E00E
E00E
701C
701C
3018
1830
07C0
ENDCHAR
STARTCHAR uni01D3
ENCODING 467
SWIDTH 791 0
DWIDTH 26 0
BBX 24 32 1 0
BITMAP
010080
018180
00C300
006600
003C00
003C00
001800
000000
FF81FF
1C0038
1C0038
1C0038
1C0038
1C0038
1C0038
1C0038
1C0038
1C0038
1C0038
1C0038
1C0038
1C0038
1C0038
1C0038
1C0038
1C0038
0C0030
0E0070
0E0070
0700E0
0381C0
007E00
ENDCHAR
STARTCHAR uni01D4
ENCODING 468
SWIDTH 606 0
DWIDTH 20 0
BBX 18 25 1 0
BITMAP
080400
0C0C00
061800
033000
01E000
01E000
00C000
000000
380700
F81F00
380700
380700
380700
380700
380700
380700
380700
380700
380700
380700
380700
3C0F00
1E1F00
1FE700
0707C0
ENDCHAR
STARTCHAR uni01D5
ENCODING 469
SWIDTH 791 0
DWIDTH 26 0
BBX 24 31 1 0
BITMAP
01FF80
01FF80
000000
00C180
01E3C0
01E3C0
00C180
FFC1FF
1C0038
1C0038
1C0038
1C0038
1C0038
1C0038
1C0038
1C0038
1C0038
1C0038
1C0038
1C0038
1C0038
1C0038
1C0038
1C0038
1C0038
0C0030
0E0070
0E0070
0700E0
0381C0
007E00
ENDCHAR
STARTCHAR uni01D6
ENCODING 470
SWIDTH 606 0
DWIDTH 20 0
BBX 18 26 1 0
BITMAP
0FFC00
0FFC00
000000
060C00
0F1E00
0F1E00
060C00
000000
000000
380700
F81F00
380700
380700
380700
380700
380700
380700
380700
380700
380700
380700
380700
3C0F00
1E1F00
1FE700
0707C0
ENDCHAR
STARTCHAR uni01D7
ENCODING 471
SWIDTH 791 0
DWIDTH 26 0
BBX 24 35 1 0
BITMAP
000100
000380
000700
000E00
001800
002000
000000
00C180
01E3C0
01E3C0
00C180
FFC1FF
1C0038
1C0038
1C0038
1C0038
1C0038
1C0038
1C0038
1C0038
1C0038
1C0038
1C0038
1C0038
1C0038
1C0038
1C0038
1C0038
1C0038
0C0030
0E0070
0E0070
0700E0
0381C0
007E00
ENDCHAR
STARTCHAR uni01D8
ENCODING 472
SWIDTH 606 0
DWIDTH 20 0
BBX 18 30 1 0
BITMAP
000800
001C00
003800
007000
00C000
010000
000000
060C00
0F1E00
0F1E00
060C00
000000
000000
380700
F81F00
380700
380700
380700
380700
380700
380700
380700
380700
380700
380700
380700
3C0F00
1E1F00
1FE700
0707C0
ENDCHAR
STARTCHAR uni01D9
ENCODING 473
SWIDTH 791 0
DWIDTH 26 0
BBX 24 36 1 0
BITMAP
010080
018180
00C300
006600
003C00
003C00
001800
000000
00C180
01E3C0
01E3C0
00C180
FFC1FF
1C0038
1C0038
1C0038
1C0038
1C0038
1C0038
1C0038
1C0038
1C0038
1C0038
1C0038
1C0038
1C0038
1C0038
1C0038
1C0038
1C0038
0C0030
0E0070
0E0070
0700E0
0381C0
007E00
ENDCHAR
STARTCHAR uni01DA
ENCODING 474
SWIDTH 606 0
DWIDTH 20 0
BBX 18 31 1 0
BITMAP
080400
0C0C00
061800
033000
01E000
01E000
00C000
000000
060C00
0F1E00
0F1E00
060C00
000000
000000
380700
F81F00
380700
380700
380700
380700
380700
380700
380700
380700
380700
380700
380700
3C0F00
1E1F00
1FE700
0707C0
ENDCHAR
STARTCHAR uni01DB
ENCODING 475
SWIDTH 791 0
DWIDTH 26 0
BBX 24 35 1 0
BITMAP
008000
01C000
00E000
007000
001800
000400
000000
00C180
01E3C0
01E3C0
00C180
FFC1FF
1C0038
1C0038
1C0038
1C0038
1C0038
1C0038
1C0038
1C0038
1C0038
1C0038
1C0038
1C0038
1C0038
1C0038
1C0038
1C0038
1C0038
0C0030
0E0070
0E0070
0700E0
0381C0
007E00
ENDCHAR
STARTCHAR uni01DC
ENCODING 476
SWIDTH 606 0
DWIDTH 20 0
BBX 18 30 1 0
BITMAP
020000
070000
038000
01C000
006000
001000
000000
060C00
0F1E00
0F1E00
060C00
000000
000000
380700
F81F00
380700
380700
380700
380700
380700
380700
380700
380700
380700
380700
380700
3C0F00
1E1F00
1FE700
0707C0
ENDCHAR
STARTCHAR uni01DD
ENCODING 477
SWIDTH 514 0
DWIDTH 17 0
BBX 14 17 2 0
BITMAP
0F80
3FE0
70F0
4078
C038
001C
001C
001C
001C
FFFC
E01C
E01C
E018
6038
7030
38E0
0780
ENDCHAR
STARTCHAR uni01DE
ENCODING 478
SWIDTH 635 0
DWIDTH 21 0
BBX 23 31 -1 0
BITMAP
01FF80
01FF80
000000
018300
03C780
03C780
018300
003800
003800
007C00
005C00
005C00
00DE00
008E00
008E00
018F00
010700
010700
030780
030380
020380
07FFC0
0601C0
0401E0
0C01E0
0C00E0
0800F0
180070
180070
380078
FE03FE
ENDCHAR
STARTCHAR uni01DF
ENCODING 479
SWIDTH 523 0
DWIDTH 17 0
BBX 15 26 2 0
BITMAP
3FF0
3FF0
0000
3060
78F0
78F0
3060
0000
0000
07C0
38E0
F0F0
E070
6070
0070
01F0
0770
3C70
7070
E070
E070
E070
E070
70F0
7F7E
3C38
ENDCHAR
STARTCHAR uni01E0
ENCODING 480
SWIDTH 635 0
DWIDTH 21 0
BBX 23 32 -1 0
BITMAP
01FF80
01FF80
000000
001800
003C00
003C00
001800
000000
003800
003800
003C00
005C00
005C00
004E00
00CE00
008E00
008F00
018700
010700
010780
030380
030380
07FFC0
0601C0
0401C0
0C01E0
0C00E0
0C00E0
1800F0
180070
380078
FF03FE
ENDCHAR
STARTCHAR uni01E1
ENCODING 481
SWIDTH 523 0
DWIDTH 17 0
BBX 15 25 2 0
BITMAP
3FF0
3FF0
0000
0300
0780
0780
0300
0000
07C0
38E0
F0F0
E070
6070
0070
01F0
0770
3C70
7070
E070
E070
E070
E070
70F0
7F7E
3C38
ENDCHAR
STARTCHAR uni01E2
ENCODING 482
SWIDTH 876 0
DWIDTH 29 0
BBX 30 27 -2 0
BITMAP
000FFC00
000FFC00
00000000
003FFFF8
0007C038
0005C018
000DC008
0009C008
0019C000
0011C000
0031C000
0021C020
0061C020
0041C060
00FFFFE0
0081C060
0181C020
0101C020
0301C000
0201C000
0601C000
0601C004
0C01C00C
0C01C00C
1801C01C
3801E038
FF0FFFF8
ENDCHAR
STARTCHAR uni01E3
ENCODING 483
SWIDTH 797 0
DWIDTH 27 0
BBX 23 20 2 0
BITMAP
03FF00
03FF00
000000
0787C0
38EE38
F0F81C
E0780C
60780E
00700E
00F00E
03FFFE
1C7000
707000
E07000
E07000
E07806
E07C04
709E1C
7F0FF8
1C01E0
ENDCHAR
STARTCHAR uni01E4
ENCODING 484
SWIDTH 734 0
DWIDTH 24 0
BBX 25 24 1 0
BITMAP
003F8000
03E0F800
0F003800
1E001800
3C001800
38000800
78000000
78000000
70000000
70000000
F0000000
F0000000
F0000000
F003FE00
70003800
70003800
78003800
78003800
78003800
3C00FF80
1E00FF80
0F003800
07C07800
00FF8000
ENDCHAR
STARTCHAR uni01E5
ENCODING 485
SWIDTH 520 0
DWIDTH 17 0
BBX 16 25 1 -8
BITMAP
07C7
1C7F
3838
7018
701C
701C
701C
383C
3838
1C70
0FC0
1800
3000
7000
7FF0
3FFC
0FFE
381F
FFFF
FFFF
E007
E006
700E
3C3C
07E0
ENDCHAR
STARTCHAR Gcaron
ENCODING 486
SWIDTH 734 0
DWIDTH 24 0
BBX 23 32 1 0
BITMAP
020100
030300
018600
00CC00
007800
007800
003000
000000
003F80
03E0F8
0F0038
1E0018
3C0018
380008
780000
780000
700000
700000
F00000
F00000
F00000
F003FE
700038
700038
780038
780038
780038
3C0038
1E0038
0F0038
07C078
00FF80
ENDCHAR
STARTCHAR gcaron
ENCODING 487
SWIDTH 520 0
DWIDTH 17 0
BBX 16 33 1 -8
BITMAP
1008
1818
0C30
0660
03C0
03C0
0180
0000
07C7
1C7F
3838
7018
701C
701C
701C
383C
3838
1C70
0FC0
1800
3000
7000
7FF0
3FFC
0FFE
381F
6007
E007
E007
E006
700E
3C3C
07E0
ENDCHAR
STARTCHAR uni01E8
ENCODING 488
SWIDTH 658 0
DWIDTH 22 0
BBX 21 32 1 0
BITMAP
040200
060600
030C00
019800
00F000
00F000
006000
000000
FF87F8
1C01C0
1C0380
1C0700
1C0E00
1C0C00
1C1800
1C3000
1C6000
1C8000
1D8000
1FC000
1DE000
1DF000
1CF800
1C7800
1C3C00
1C1E00
1C1F00
1C0F80
1C0780
1C03C0
1C01F0
FF8038
ENDCHAR
STARTCHAR uni01E9
ENCODING 489
SWIDTH 524 0
DWIDTH 17 0
BBX 17 33 1 0
BITMAP
804000
C0C000
618000
330000
1E0000
1E0000
0C0000
000000
180000
F80000
380000
380000
380000
380000
380000
380000
381F00
383800
387000
38E000
38C000
398000
3B0000
3F0000
3F8000
3F8000
3BC000
39E000
38F000
387800
383C00
381F00
FE0780
ENDCHAR
STARTCHAR uni01EA
ENCODING 490
SWIDTH 762 0
DWIDTH 25 0
BBX 23 32 1 -8
BITMAP
00FE00
0783C0
0E00E0
1C0070
380038
380038
78003C
70001C
70001C
F0001E
F0001E
F0001E
F0001E
F0001E
F0001E
70001C
70001C
78003C
380038
380038
1C0070
0E00E0
0783C0
00FE00
000000
001800
003000
002000
006000
006000
007200
001C00
ENDCHAR
STARTCHAR uni01EB
ENCODING 491
SWIDTH 577 0
DWIDTH 19 0
BBX 15 25 2 -8
BITMAP
07C0
1830
3018
701C
701C
E00E
E00E
E00E
E00E
E00E
E00E
E00E
701C
701C
3018
1830
07C0
0000
0180
0300
0200
0600
0600
0720
01C0
ENDCHAR
STARTCHAR uni01EC
ENCODING 492
SWIDTH 762 0
DWIDTH 25 0
BBX 23 35 1 -8
BITMAP
01FF80
01FF80
000000
00FE00
0783C0
0E00E0
1C0070
380038
380038
78003C
70001C
70001C
F0001E
F0001E
F0001E
F0001E
F0001E
F0001E
70001C
70001C
78003C
380038
380038
1C0070
0E00E0
0783C0
00FE00
000000
001800
003000
002000
006000
006000
007200
001C00
ENDCHAR
STARTCHAR uni01ED
ENCODING 493
SWIDTH 577 0
DWIDTH 19 0
BBX 15 28 2 -8
BITMAP
1FF8
1FF8
0000
07C0
1830
3018
701C
701C
E00E
E00E
E00E
E00E
E00E
E00E
E00E
701C
701C
3018
1830
07C0
0000
0180
0300
0200
0600
0600
0720
01C0
ENDCHAR
STARTCHAR uni01F0
ENCODING 496
SWIDTH 280 0
DWIDTH 9 0
BBX 11 33 -1 -8
BITMAP
4020
6060
30C0
1980
0F00
0F00
0600
0000
0700
1F00
0700
0700
0700
0700
0700
0700
0700
0700
0700
0700
0700
0700
0700
0700
0700
0700
0700
0700
0600
0E00
1C00
3800
E000
ENDCHAR
STARTCHAR uni01F4
ENCODING 500
SWIDTH 734 0
DWIDTH 24 0
BBX 23 31 1 0
BITMAP
000200
000700
000E00
001C00
003000
004000
000000
003F80
03E0F8
0F0038
1E0018
3C0018
380008
780000
780000
700000
700000
F00000
F00000
F00000
F003FE
700038
700038
780038
780038
780038
3C0038
1E0038
0F0038
07C078
00FF80
ENDCHAR
STARTCHAR uni01F5
ENCODING 501
SWIDTH 520 0
DWIDTH 17 0
BBX 16 32 1 -8
BITMAP
0010
0038
0070
00E0
0180
0200
0000
07C7
1C7F
3838
7018
701C
701C
701C
383C
3838
1C70
0FC0
1800
3000
7000
7FF0
3FFC
0FFE
381F
6007
E007
E007
E006
700E
3C3C
07E0
ENDCHAR
STARTCHAR uni01F8
ENCODING 504
SWIDTH 780 0
DWIDTH 26 0
BBX 24 31 1 0
BITMAP
010000
038000
01C000
00E000
003000
000800
000000
FE00FF
1F003C
1F0018
1F8018
1BC018
1BC018
19E018
18E018
18F018
187818
183818
183C18
181E18
180E18
180F18
180798
180398
1803D8
1801F8
1800F8
1800F8
180078
3C0038
FF0038
ENDCHAR
STARTCHAR uni01F9
ENCODING 505
SWIDTH 619 0
DWIDTH 21 0
BBX 18 24 2 0
BITMAP
040000
0E0000
070000
038000
00C000
002000
000000
387800
F9FE00
3E1E00
3C0F00
380700
380700
380700
380700
380700
380700
380700
380700
380700
380700
380700
380700
FE3FC0
ENDCHAR
STARTCHAR Aringacute
ENCODING 506
SWIDTH 627 0
DWIDTH 21 0
BBX 23 36 -1 0
BITMAP
000200
000700
000E00
001C00
003000
004000
000000
003800
00C600
00C600
00C600
004400
007C00
003800
003800
007C00
005C00
005E00
00CE00
008E00
008F00
018F00
018700
010780
030780
030380
03FFC0
0603C0
0601C0
0C01E0
0C00E0
0C00F0
1800F0
180070
380078
FF03FE
ENDCHAR
STARTCHAR aringacute
ENCODING 507
SWIDTH 523 0
DWIDTH 17 0
BBX 15 32 2 0
BITMAP
0020
0070
00E0
01C0
0300
0400
0000
0700
0880
18C0
18C0
18C0
0880
0700
0000
07C0
38E0
F0F0
E070
6070
0070
01F0
0770
3C70
7070
E070
E070
E070
E070
70F0
7F7E
3C38
ENDCHAR
STARTCHAR AEacute
ENCODING 508
SWIDTH 876 0
DWIDTH 29 0
BBX 30 31 -2 0
BITMAP
00000800
00001C00
00003800
00007000
0000C000
00010000
00000000
003FFFF8
0007C038
0005C018
000DC008
0009C008
0019C000
0011C000
0031C000
0021C020
0061C020
0041C060
00FFFFE0
0081C060
0181C020
0101C020
0301C000
0201C000
0601C000
0601C004
0C01C00C
0C01C00C
1801C01C
3801E038
FF0FFFF8
ENDCHAR
STARTCHAR aeacute
ENCODING 509
SWIDTH 797 0
DWIDTH 27 0
BBX 23 24 2 0
BITMAP
000200
000700
000E00
001C00
003000
004000
000000
0787C0
38EE38
F0F81C
E0780C
60780E
00700E
00F00E
03FFFE
1C7000
707000
E07000
E07000
E07806
E07C04
709E1C
7F0FF8
1C01E0
ENDCHAR
STARTCHAR Oslashacute
ENCODING 510
SWIDTH 762 0
DWIDTH 25 0
BBX 23 33 1 -1
BITMAP
000100
000380
000700
000E00
001800
002000
000000
000010
00FC30
0783E0
0E00E0
1C00F0
3801F8
380138
78033C
70021C
70061C
F00C1E
F0081E
F0181E
F0301E
F0201E
F0601E
70C01C
70801C
79803C
3B0038
3E0038
1E0070
0E00E0
0F83C0
18FE00
100000
ENDCHAR
STARTCHAR oslashacute
ENCODING 511
SWIDTH 577 0
DWIDTH 19 0
BBX 15 26 2 -1
BITMAP
0010
0038
0070
00E0
0180
0200
0000
0008
0788
1870
3038
703C
605C
E0CC
E08E
E18E
E10E
E20E
E60E
E40E
7C1C
781C
3018
3C30
27C0
6000
ENDCHAR
STARTCHAR uni0200
ENCODING 512
SWIDTH 635 0
DWIDTH 21 0
BBX 23 32 -1 0
BITMAP
011800
039800
019C00
01CC00
00CC00
004600
004200
000000
003800
003800
003C00
005C00
005C00
004E00
00CE00
008E00
008F00
018700
010700
010780
030380
030380
07FFC0
0601C0
0401C0
0C01E0
0C00E0
0C00E0
1800F0
180070
380078
FF03FE
ENDCHAR
STARTCHAR uni0201
ENCODING 513
SWIDTH 523 0
DWIDTH 17 0
BBX 15 25 2 0
BITMAP
2300
7300
3380
3980
1980
08C0
0840
0000
07C0
38E0
F0F0
E070
6070
0070
01F0
0770
3C70
7070
E070
E070
E070
E070
70F0
7F7E
3C38
ENDCHAR
STARTCHAR uni0202
ENCODING 514
SWIDTH 635 0
DWIDTH 21 0
BBX 23 30 -1 0
BITMAP
007C00
00FE00
008200
010100
010100
000000
003800
003800
003C00
005C00
005C00
004E00
00CE00
008E00
008F00
018700
010700
010780
030380
030380
07FFC0
0601C0
0401C0
0C01E0
0C00E0
0C00E0
1800F0
180070
380078
FF03FE
ENDCHAR
STARTCHAR uni0203
ENCODING 515
SWIDTH 523 0
DWIDTH 17 0
BBX 15 23 2 0
BITMAP
0F80
1FC0
1040
2020
2020
0000
07C0
38E0
F0F0
E070
6070
0070
01F0
0770
3C70
7070
E070
E070
E070
E070
70F0
7F7E
3C38
ENDCHAR
STARTCHAR uni0204
ENCODING 516
SWIDTH 606 0
DWIDTH 20 0
BBX 18 32 1 0
BITMAP
08C000
1CC000
0CE000
0E6000
066000
023000
021000
000000
FFFF80
1C0380
1C0180
1C0080
1C0080
1C0000
1C0000
1C0000
1C0200
1C0200
1C0600
1FFE00
1C0600
1C0200
1C0200
1C0000
1C0000
1C0000
1C0040
1C00C0
1C00C0
1C01C0
1E0380
FFFF80
ENDCHAR
STARTCHAR uni0205
ENCODING 517
SWIDTH 514 0
DWIDTH 17 0
BBX 14 25 2 0
BITMAP
1180
3980
19C0
1CC0
0CC0
0460
0420
0000
0780
1C70
3038
7018
601C
E01C
E01C
FFFC
E000
E000
E000
E000
700C
7808
3C38
1FF0
07C0
ENDCHAR
STARTCHAR uni0206
ENCODING 518
SWIDTH 606 0
DWIDTH 20 0
BBX 18 30 1 0
BITMAP
03E000
07F000
041000
080800
080800
000000
FFFF80
1C0380
1C0180
1C0080
1C0080
1C0000
1C0000
1C0000
1C0200
1C0200
1C0600
1FFE00
1C0600
1C0200
1C0200
1C0000
1C0000
1C0000
1C0040
1C00C0
1C00C0
1C01C0
1E0380
FFFF80
ENDCHAR
STARTCHAR uni0207
ENCODING 519
SWIDTH 514 0
DWIDTH 17 0
BBX 14 23 2 0
BITMAP
07C0
0FE0
0820
1010
1010
0000
0780
1C70
3038
7018
601C
E01C
E01C
FFFC
E000
E000
E000
E000
700C
7808
3C38
1FF0
07C0
ENDCHAR
STARTCHAR uni0208
ENCODING 520
SWIDTH 349 0
DWIDTH 12 0
BBX 10 32 0 0
BITMAP
4600
E600
6700
7300
3300
1180
1080
0000
7FC0
0E00
0E00
0E00
0E00
0E00
0E00
0E00
0E00
0E00
0E00
0E00
0E00
0E00
0E00
0E00
0E00
0E00
0E00
0E00
0E00
0E00
0E00
7FC0
ENDCHAR
STARTCHAR uni0209
ENCODING 521
SWIDTH 291 0
DWIDTH 10 0
BBX 9 25 0 0
BITMAP
4600
E600
6700
7300
3300
1180
1080
0000
0E00
3E00
0E00
0E00
0E00
0E00
0E00
0E00
0E00
0E00
0E00
0E00
0E00
0E00
0E00
0E00
3F80
ENDCHAR
STARTCHAR uni020A
ENCODING 522
SWIDTH 349 0
DWIDTH 12 0
BBX 9 30 1 0
BITMAP
3E00
7F00
4100
8080
8080
0000
FF80
1C00
1C00
1C00
1C00
1C00
1C00
1C00
1C00
1C00
1C00
1C00
1C00
1C00
1C00
1C00
1C00
1C00
1C00
1C00
1C00
1C00
1C00
FF80
ENDCHAR
STARTCHAR uni020B
ENCODING 523
SWIDTH 291 0
DWIDTH 10 0
BBX 9 23 1 0
BITMAP
3E00
7F00
4100
8080
8080
0000
1C00
7C00
1C00
1C00
1C00
1C00
1C00
1C00
1C00
1C00
1C00
1C00
1C00
1C00
1C00
1C00
7F00
ENDCHAR
STARTCHAR uni020C
ENCODING 524
SWIDTH 762 0
DWIDTH 25 0
BBX 23 32 1 0
BITMAP
011800
039800
019C00
01CC00
00CC00
004600
004200
000000
00FE00
0783C0
0E00E0
1C0070
380038
380038
78003C
70001C
70001C
F0001E
F0001E
F0001E
F0001E
F0001E
F0001E
70001C
70001C
78003C
380038
380038
1C0070
0E00E0
0783C0
00FE00
ENDCHAR
STARTCHAR uni020D
ENCODING 525
SWIDTH 577 0
DWIDTH 19 0
BBX 15 25 2 0
BITMAP
1180
3980
19C0
1CC0
0CC0
0460
0420
0000
07C0
1830
3018
701C
701C
E00E
E00E
E00E
E00E
E00E
E00E
E00E
701C
701C
3018
1830
07C0
ENDCHAR
STARTCHAR uni020E
ENCODING 526
SWIDTH 762 0
DWIDTH 25 0
BBX 23 30 1 0
BITMAP
007C00
00FE00
008200
010100
010100
000000
00FE00
0783C0
0E00E0
1C0070
380038
380038
78003C
70001C
70001C
F0001E
F0001E
F0001E
F0001E
F0001E
F0001E
70001C
70001C
78003C
380038
380038
1C0070
0E00E0
0783C0
00FE00
ENDCHAR
STARTCHAR uni020F
ENCODING 527
SWIDTH 577 0
DWIDTH 19 0
BBX 15 23 2 0
BITMAP
07C0
0FE0
0820
1010
1010
0000
07C0
1830
3018
701C
701C
E00E
E00E
E00E
E00E
E00E
E00E
E00E
701C
701C
3018
1830
07C0
ENDCHAR
STARTCHAR uni0210
ENCODING 528
SWIDTH 644 0
DWIDTH 21 0
BBX 20 32 1 0
BITMAP
046000
0E6000
067000
073000
033000
011800
010800
000000
FFFC00
1C1F00
1C0780
1C0380
1C03C0
1C03C0
1C03C0
1C03C0
1C0380
1C0780
1C0700
1C1E00
1FF000
1C1E00
1C0F00
1C0700
1C0700
1C0780
1C0780
1C0780
1C0380
1C03C0
1C01E0
FF80F0
ENDCHAR
STARTCHAR uni0211
ENCODING 529
SWIDTH 389 0
DWIDTH 13 0
BBX 11 25 2 0
BITMAP
4600
E600
6700
7300
3300
1180
1080
0000
38C0
F9E0
3FE0
3C40
3800
3800
3800
3800
3800
3800
3800
3800
3800
3800
3800
3800
FF00
ENDCHAR
STARTCHAR uni0212
ENCODING 530
SWIDTH 644 0
DWIDTH 21 0
BBX 20 30 1 0
BITMAP
01F000
03F800
020800
040400
040400
000000
FFFC00
1C1F00
1C0780
1C0380
1C03C0
1C03C0
1C03C0
1C03C0
1C0380
1C0780
1C0700
1C1E00
1FF000
1C1E00
1C0F00
1C0700
1C0700
1C0780
1C0780
1C0780
1C0380
1C03C0
1C01E0
FF80F0
ENDCHAR
STARTCHAR uni0213
ENCODING 531
SWIDTH 389 0
DWIDTH 13 0
BBX 11 23 2 0
BITMAP
1F00
3F80
2080
4040
4040
0000
38C0
F9E0
3FE0
3C40
3800
3800
3800
3800
3800
3800
3800
3800
3800
3800
3800
3800
FF00
ENDCHAR
STARTCHAR uni0214
ENCODING 532
SWIDTH 791 0
DWIDTH 26 0
BBX 24 32 1 0
BITMAP
011800
039800
019C00
01CC00
00CC00
004600
004200
000000
FF81FF
1C0038
1C0038
1C0038
1C0038
1C0038
1C0038
1C0038
1C0038
1C0038
1C0038
1C0038
1C0038
1C0038
1C0038
1C0038
1C0038
1C0038
0C0030
0E0070
0E0070
0700E0
0381C0
007E00
ENDCHAR
STARTCHAR uni0215
ENCODING 533
SWIDTH 606 0
DWIDTH 20 0
BBX 18 25 1 0
BITMAP
08C000
1CC000
0CE000
0E6000
066000
023000
021000
000000
380700
F81F00
380700
380700
380700
380700
380700
380700
380700
380700
380700
380700
380700
3C0F00
1E1F00
1FE700
0707C0
ENDCHAR
STARTCHAR uni0216
ENCODING 534
SWIDTH 791 0
DWIDTH 26 0
BBX 24 30 1 0
BITMAP
003E00
007F00
004100
008080
008080
000000
FF81FF
1C0038
1C0038
1C0038
1C0038
1C0038
1C0038
1C0038
1C0038
1C0038
1C0038
1C0038
1C0038
1C0038
1C0038
1C0038
1C0038
1C0038
0C0030
0E0070
0E0070
0700E0
0381C0
007E00
ENDCHAR
STARTCHAR uni0217
ENCODING 535
SWIDTH 606 0
DWIDTH 20 0
BBX 18 23 1 0
BITMAP
03E000
07F000
041000
080800
080800
000000
380700
F81F00
380700
380700
380700
380700
380700
380700
380700
380700
380700
380700
380700
3C0F00
1E1F00
1FE700
0707C0
ENDCHAR
STARTCHAR Scommaaccent
ENCODING 536
SWIDTH 541 0
DWIDTH 18 0
BBX 15 34 2 -10
BITMAP
0FE0
3838
7018
6018
E018
E008
E000
F000
7800
7E00
3FC0
0FF0
03F8
00FC
007C
001E
000E
800E
C00E
C00E
E00C
F018
7830
1FC0
0000
0300
0700
0780
0380
0380
0300
0200
0400
0800
ENDCHAR
STARTCHAR scommaaccent
ENCODING 537
SWIDTH 436 0
DWIDTH 15 0
BBX 11 27 2 -10
BITMAP
1F00
31C0
60C0
E040
E040
F000
7800
7E00
1F80
07C0
01E0
80E0
80E0
C0E0
C0C0
E180
3F00
0000
0600
0E00
0F00
0700
0700
0600
0400
0800
1000
ENDCHAR
STARTCHAR Tcommaaccent
ENCODING 538
SWIDTH 621 0
DWIDTH 21 0
BBX 19 34 1 -10
BITMAP
FFFFE0
E0E0E0
C0E060
80E020
80E020
80E020
00E000
00E000
00E000
00E000
00E000
00E000
00E000
00E000
00E000
00E000
00E000
00E000
00E000
00E000
00E000
00E000
00E000
0FFE00
000000
006000
00E000
00F000
007000
007000
006000
004000
008000
010000
ENDCHAR
STARTCHAR tcommaaccent
ENCODING 539
SWIDTH 344 0
DWIDTH 11 0
BBX 10 31 2 -10
BITMAP
0800
1800
1800
3800
FF80
3800
3800
3800
3800
3800
3800
3800
3800
3800
3800
3800
3800
3800
3C00
1FC0
0E00
0000
0C00
1C00
1E00
0E00
0E00
0C00
0800
1000
2000
ENDCHAR
STARTCHAR uni021E
ENCODING 542
SWIDTH 798 0
DWIDTH 27 0
BBX 24 32 1 0
BITMAP
010080
018180
00C300
006600
003C00
003C00
001800
000000
FF81FF
1C0038
1C0038
1C0038
1C0038
1C0038
1C0038
1C0038
1C0038
1C0038
1C0038
1FFFF8
1C0038
1C0038
1C0038
1C0038
1C0038
1C0038
1C0038
1C0038
1C0038
1C0038
1C0038
FF81FF
ENDCHAR
STARTCHAR uni021F
ENCODING 543
SWIDTH 607 0
DWIDTH 20 0
BBX 18 33 1 0
BITMAP
804000
C0C000
618000
330000
1E0000
1E0000
0C0000
000000
180000
F80000
380000
380000
380000
380000
380000
380000
387800
39FE00
3E1E00
3C0F00
380700
380700
380700
380700
380700
380700
380700
380700
380700
380700
380700
380700
FF3FC0
ENDCHAR
STARTCHAR uni0226
ENCODING 550
SWIDTH 635 0
DWIDTH 21 0
BBX 23 29 -1 0
BITMAP
001800
003C00
003C00
001800
000000
003800
003800
003C00
005C00
005C00
004E00
00CE00
008E00
008F00
018700
010700
010780
030380
030380
07FFC0
0601C0
0401C0
0C01E0
0C00E0
0C00E0
1800F0
180070
380078
FF03FE
ENDCHAR
STARTCHAR uni0227
ENCODING 551
SWIDTH 523 0
DWIDTH 17 0
BBX 15 22 2 0
BITMAP
0300
0780
0780
0300
0000
07C0
38E0
F0F0
E070
6070
0070
01F0
0770
3C70
7070
E070
E070
E070
E070
70F0
7F7E
3C38
ENDCHAR
STARTCHAR uni0228
ENCODING 552
SWIDTH 606 0
DWIDTH 20 0
BBX 18 32 1 -8
BITMAP
FFFF80
1C0380
1C0180
1C0080
1C0080
1C0000
1C0000
1C0000
1C0200
1C0200
1C0600
1FFE00
1C0600
1C0200
1C0200
1C0000
1C0000
1C0000
1C0040
1C00C0
1C00C0
1C01C0
1E0380
FFFF80
00C000
008000
01E000
00F000
007000
007000
00E000
03C000
ENDCHAR
STARTCHAR uni0229
ENCODING 553
SWIDTH 514 0
DWIDTH 17 0
BBX 14 25 2 -8
BITMAP
0780
1C70
3038
7018
601C
E01C
E01C
FFFC
E000
E000
E000
E000
700C
7808
3C38
1FF0
07C0
0300
0200
0780
03C0
01C0
01C0
0380
0F00
ENDCHAR
STARTCHAR uni022A
ENCODING 554
SWIDTH 762 0
DWIDTH 25 0
BBX 23 31 1 0
BITMAP
01FF80
01FF80
000000
018300
03C780
03C780
018300
00FE00
0783C0
0E00E0
1C0070
380038
380038
78003C
70001C
70001C
F0001E
F0001E
F0001E
F0001E
F0001E
F0001E
70001C
70001C
78003C
380038
380038
1C0070
0E00E0
0783C0
00FE00
ENDCHAR
STARTCHAR uni022B
ENCODING 555
SWIDTH 577 0
DWIDTH 19 0
BBX 15 26 2 0
BITMAP
1FF8
1FF8
0000
1830
3C78
3C78
1830
0000
0000
07C0
1830
3018
701C
701C
E00E
E00E
E00E
E00E
E00E
E00E
E00E
701C
701C
3018
1830
07C0
ENDCHAR
STARTCHAR uni022C
ENCODING 556
SWIDTH 762 0
DWIDTH 25 0
BBX 23 32 1 0
BITMAP
01FF80
01FF80
000000
000040
007080
01FF80
021E00
020000
00FE00
0783C0
0E00E0
1C0070
380038
380038
78003C
70001C
70001C
F0001E
F0001E
F0001E
F0001E
F0001E
F0001E
70001C
70001C
78003C
380038
380038
1C0070
0E00E0
0783C0
00FE00
ENDCHAR
STARTCHAR uni022D
ENCODING 557
SWIDTH 577 0
DWIDTH 19 0
BBX 15 26 2 0
BITMAP
3FF0
3FF0
0000
0E08
1F08
21F0
2060
0000
0000
07C0
1830
3018
701C
701C
E00E
E00E
E00E
E00E
E00E
E00E
E00E
701C
701C
3018
1830
07C0
ENDCHAR
STARTCHAR uni022E
ENCODING 558
SWIDTH 762 0
DWIDTH 25 0
BBX 23 29 1 0
BITMAP
001800
003C00
003C00
001800
000000
00FE00
0783C0
0E00E0
1C0070
380038
380038
78003C
70001C
70001C
F0001E
F0001E
F0001E
F0001E
F0001E
F0001E
70001C
70001C
78003C
380038
380038
1C0070
0E00E0
0783C0
00FE00
ENDCHAR
STARTCHAR uni022F
ENCODING 559
SWIDTH 577 0
DWIDTH 19 0
BBX 15 22 2 0
BITMAP
0180
03C0
03C0
0180
0000
07C0
1830
3018
701C
701C
E00E
E00E
E00E
E00E
E00E
E00E
E00E
701C
701C
3018
1830
07C0
ENDCHAR
STARTCHAR uni0230
ENCODING 560
SWIDTH 762 0
DWIDTH 25 0
BBX 23 32 1 0
BITMAP
01FF80
01FF80
000000
001800
003C00
003C00
001800
000000
00FE00
0783C0
0E00E0
1C0070
380038
380038
78003C
70001C
70001C
F0001E
F0001E
F0001E
F0001E
F0001E
F0001E
70001C
70001C
78003C
380038
380038
1C0070
0E00E0
0783C0
00FE00
ENDCHAR
STARTCHAR uni0231
ENCODING 561
SWIDTH 577 0
DWIDTH 19 0
BBX 15 25 2 0
BITMAP
1FF8
1FF8
0000
0180
03C0
03C0
0180
0000
07C0
1830
3018
701C
701C
E00E
E00E
E00E
E00E
E00E
E00E
E00E
701C
701C
3018
1830
07C0
ENDCHAR
STARTCHAR uni0232
ENCODING 562
SWIDTH 588 0
DWIDTH 20 0
BBX 21 27 0 0
BITMAP
07FE00
07FE00
000000
FF83F8
3C00E0
1C00C0
1E0180
0E0180
0F0300
070300
078200
038600
03C400
01CC00
01E800
00F800
00F000
007000
007000
007000
007000
007000
007000
007000
007000
007000
07FE00
ENDCHAR
STARTCHAR uni0233
ENCODING 563
SWIDTH 506 0
DWIDTH 17 0
BBX 17 28 0 -8
BITMAP
1FF800
1FF800
000000
FF1F80
3C0600
3C0600
1C0400
1E0C00
0E0C00
0E0800
0F0800
071800
071000
039000
03B000
03A000
01E000
01E000
01E000
00C000
00C000
00C000
008000
008000
110000
390000
3E0000
1C0000
ENDCHAR
STARTCHAR uni0250
ENCODING 592
SWIDTH 523 0
DWIDTH 17 0
BBX 15 17 2 0
BITMAP
3878
FDFC
1E1C
1C0E
1C0E
1C0E
1C0E
1C1C
1C78
1DC0
1F00
1C00
1C0C
1C0E
1E1E
0E38
07C0
ENDCHAR
STARTCHAR uni0254
ENCODING 596
SWIDTH 496 0
DWIDTH 17 0
BBX 14 17 2 0
BITMAP
0F80
3860
7030
7038
2018
001C
001C
001C
001C
001C
001C
003C
C038
6078
30F0
1FE0
0380
ENDCHAR
STARTCHAR uni0258
ENCODING 600
SWIDTH 514 0
DWIDTH 17 0
BBX 14 17 2 0
BITMAP
0780
38E0
7030
6038
E018
E01C
E01C
FFFC
001C
001C
001C
001C
C038
4078
70F0
3FE0
0F80
ENDCHAR
STARTCHAR uni0259
ENCODING 601
SWIDTH 514 0
DWIDTH 17 0
BBX 14 17 2 0
BITMAP
0F80
3FE0
70F0
4078
C038
001C
001C
001C
001C
FFFC
E01C
E01C
E018
6038
7030
38E0
0780
ENDCHAR
STARTCHAR uni025F
ENCODING 607
SWIDTH 319 0
DWIDTH 11 0
BBX 12 25 1 -9
BITMAP
1FE0
0380
0380
0380
0380
0380
0380
0380
0380
0380
0380
0380
0380
0380
0380
0380
3FF0
0380
0380
0380
0300
4300
E300
E200
3C00
ENDCHAR
STARTCHAR uni0265
ENCODING 613
SWIDTH 607 0
DWIDTH 20 0
BBX 18 25 1 -9
BITMAP
FF3FC0
380700
380700
380700
380700
380700
380700
380700
380700
380700
380700
380700
380700
3C0F00
1E1F00
1FE700
078700
000700
000700
000700
000700
000700
000700
0007C0
000600
ENDCHAR
STARTCHAR uni0275
ENCODING 629
SWIDTH 577 0
DWIDTH 19 0
BBX 15 17 2 0
BITMAP
07C0
1830
3018
701C
701C
E00E
E00E
FFFE
FFFE
E00E
E00E
E00E
701C
701C
3018
1830
07C0
ENDCHAR
STARTCHAR uni0279
ENCODING 633
SWIDTH 389 0
DWIDTH 13 0
BBX 11 17 2 0
BITMAP
1FE0
0380
0380
0380
0380
0380
0380
0380
0380
0380
0380
0380
0380
4780
FF80
F3E0
6380
ENDCHAR
STARTCHAR uni0287
ENCODING 647
SWIDTH 344 0
DWIDTH 11 0
BBX 10 21 2 0
BITMAP
1C00
FE00
0F00
0700
0700
0700
0700
0700
0700
0700
0700
0700
0700
0700
0700
0700
7FC0
0700
0600
0600
0400
ENDCHAR
STARTCHAR uni0288
ENCODING 648
SWIDTH 344 0
DWIDTH 11 0
BBX 10 29 2 -8
BITMAP
0800
1800
1800
3800
FF80
3800
3800
3800
3800
3800
3800
3800
3800
3800
3800
3800
3800
3800
3800
3800
3800
3800
3800
3800
1800
1C00
0E00
0700
01C0
ENDCHAR
STARTCHAR uni0289
ENCODING 649
SWIDTH 606 0
DWIDTH 20 0
BBX 18 17 1 0
BITMAP
380700
F81F00
380700
380700
380700
380700
380700
FFFFC0
FFFFC0
380700
380700
380700
380700
3C0F00
1E1F00
1FE700
0707C0
ENDCHAR
STARTCHAR uni028C
ENCODING 652
SWIDTH 504 0
DWIDTH 17 0
BBX 18 17 0 0
BITMAP
00E000
01E000
01E000
017000
037000
027000
023800
063800
043800
041C00
0C1C00
081C00
180E00
180E00
180E00
300F00
FE3FC0
ENDCHAR
STARTCHAR uni028D
ENCODING 653
SWIDTH 768 0
DWIDTH 26 0
BBX 27 17 0 0
BITMAP
01C03800
01C03800
01E07800
02E05C00
02E05C00
02F0DC00
06709C00
04708E00
04788E00
0C398E00
0C390700
081D0700
181F0700
181E0700
100E0380
300E0380
FE000FE0
ENDCHAR
STARTCHAR uni028E
ENCODING 654
SWIDTH 506 0
DWIDTH 17 0
BBX 17 25 0 0
BITMAP
001C00
003E00
004E00
004400
008000
008000
018000
018000
018000
03C000
03C000
03C000
02E000
06E000
04E000
047000
0C7000
087800
083800
183800
183C00
101C00
301E00
301E00
FC7F80
ENDCHAR
STARTCHAR uni029E
ENCODING 670
SWIDTH 524 0
DWIDTH 17 0
BBX 17 25 1 -9
BITMAP
F03F80
7C0E00
1E0E00
0F0E00
078E00
03CE00
01EE00
00FE00
00FE00
007E00
006E00
00CE00
018E00
038E00
070E00
0E0E00
7C0E00
000E00
000E00
000E00
000E00
000E00
000E00
000F80
000C00
ENDCHAR
STARTCHAR uni02BB
ENCODING 699
SWIDTH 278 0
DWIDTH 9 0
BBX 5 9 2 16
BITMAP
08
10
20
60
60
E0
F0
70
70
ENDCHAR
STARTCHAR afii57929
ENCODING 700
SWIDTH 278 0
DWIDTH 9 0
BBX 5 9 2 16
BITMAP
70
70
78
38
30
30
20
40
80
ENDCHAR
STARTCHAR afii64937
ENCODING 701
SWIDTH 278 0
DWIDTH 9 0
BBX 5 9 2 16
BITMAP
70
70
F0
E0
60
60
20
10
08
ENDCHAR
STARTCHAR circumflex
ENCODING 710
SWIDTH 400 0
DWIDTH 13 0
BBX 10 6 2 18
BITMAP
0C00
1E00
3F00
3300
6180
8040
ENDCHAR
STARTCHAR caron
ENCODING 711
SWIDTH 400 0
DWIDTH 13 0
BBX 10 7 2 18
BITMAP
8040
C0C0
6180
3300
1E00
1E00
0C00
ENDCHAR
STARTCHAR uni02C8
ENCODING 712
SWIDTH 278 0
DWIDTH 9 0
BBX 3 9 3 16
BITMAP
E0
E0
E0
E0
40
40
40
40
40
ENDCHAR
STARTCHAR macron
ENCODING 713
SWIDTH 400 0
DWIDTH 13 0
BBX 10 2 2 20
BITMAP
FFC0
FFC0
ENDCHAR
STARTCHAR uni02CA
ENCODING 714
SWIDTH 400 0
DWIDTH 13 0
BBX 7 6 5 18
BITMAP
04
0E
1C
38
60
80
ENDCHAR
STARTCHAR uni02CB
ENCODING 715
SWIDTH 400 0
DWIDTH 13 0
BBX 7 6 2 18
BITMAP
40
E0
70
38
0C
02
ENDCHAR
STARTCHAR uni02CD
ENCODING 717
SWIDTH 400 0
DWIDTH 13 0
BBX 10 2 2 -3
BITMAP
FFC0
FFC0
ENDCHAR
STARTCHAR uni02CE
ENCODING 718
SWIDTH 400 0
DWIDTH 13 0
BBX 7 6 2 -7
BITMAP
40
E0
70
38
0C
02
ENDCHAR
STARTCHAR uni02CF
ENCODING 719
SWIDTH 400 0
DWIDTH 13 0
BBX 7 6 5 -7
BITMAP
04
0E
1C
38
60
80
ENDCHAR
STARTCHAR breve
ENCODING 728
SWIDTH 400 0
DWIDTH 13 0
BBX 9 5 2 19
BITMAP
8080
8080
4100
7F00
3E00
ENDCHAR
STARTCHAR dotaccent
ENCODING 729
SWIDTH 400 0
DWIDTH 13 0
BBX 4 4 5 19
BITMAP
60
F0
F0
60
ENDCHAR
STARTCHAR ring
ENCODING 730
SWIDTH 400 0
DWIDTH 13 0
BBX 7 7 3 18
BITMAP
38
44
C6
C6
C6
44
38
ENDCHAR
STARTCHAR ogonek
ENCODING 731
SWIDTH 400 0
DWIDTH 13 0
BBX 6 7 4 -8
BITMAP
30
60
40
C0
C0
E4
38
ENDCHAR
STARTCHAR tilde
ENCODING 732
SWIDTH 400 0
DWIDTH 13 0
BBX 12 4 1 19
BITMAP
1810
7FE0
4FE0
8080
ENDCHAR
STARTCHAR hungarumlaut
ENCODING 733
SWIDTH 400 0
DWIDTH 13 0
BBX 9 7 4 18
BITMAP
3100
3380
7300
6700
6600
C400
8400
ENDCHAR
STARTCHAR uni02EE
ENCODING 750
SWIDTH 458 0
DWIDTH 15 0
BBX 11 9 2 16
BITMAP
61C0
71C0
79E0
38E0
30C0
30C0
2080
4100
8200
ENDCHAR
STARTCHAR uni037E
ENCODING 894
SWIDTH 265 0
DWIDTH 9 0
BBX 5 21 2 -4
BITMAP
30
78
78
70
00
00
00
00
00
00
00
20
70
78
38
38
30
30
60
40
80
ENDCHAR
STARTCHAR tonos
ENCODING 900
SWIDTH 400 0
DWIDTH 13 0
BBX 7 6 5 18
BITMAP
04
0E
1C
38
60
80
ENDCHAR
STARTCHAR dieresistonos
ENCODING 901
SWIDTH 400 0
DWIDTH 13 0
BBX 11 11 1 19
BITMAP
0080
01C0
0380
0700
0C00
1000
0000
60C0
F1E0
F1E0
60C0
ENDCHAR
STARTCHAR anoteleia
ENCODING 903
SWIDTH 265 0
DWIDTH 9 0
BBX 4 4 2 6
BITMAP
60
F0
F0
60
ENDCHAR
STARTCHAR mu
ENCODING 956
SWIDTH 606 0
DWIDTH 20 0
BBX 18 25 1 -8
BITMAP
380700
F81F00
380700
380700
380700
380700
380700
380700
380700
380700
380700
380700
380700
3C0F00
3E1F00
3FE700
3787C0
300000
300000
300000
380000
380000
380000
380000
100000
ENDCHAR
STARTCHAR uni1E00
ENCODING 7680
SWIDTH 635 0
DWIDTH 21 0
BBX 23 32 -1 -8
BITMAP
003800
003800
003C00
005C00
005C00
004E00
00CE00
008E00
008F00
018700
010700
010780
030380
030380
07FFC0
0601C0
0401C0
0C01E0
0C00E0
0C00E0
1800F0
180070
380078
FF03FE
000000
001C00
002200
006300
006300
006300
002200
001C00
ENDCHAR
STARTCHAR uni1E01
ENCODING 7681
SWIDTH 523 0
DWIDTH 17 0
BBX 15 25 2 -8
BITMAP
07C0
38E0
F0F0
E070
6070
0070
01F0
0770
3C70
7070
E070
E070
E070
E070
70F0
7F7E
3C38
0000
0380
0440
0C60
0C60
0C60
0440
0380
ENDCHAR
STARTCHAR uni1E02
ENCODING 7682
SWIDTH 646 0
DWIDTH 22 0
BBX 19 29 1 0
BITMAP
006000
00F000
00F000
006000
000000
FFF000
1C1F00
1C0780
1C0380
1C03C0
1C03C0
1C03C0
1C03C0
1C0380
1C0700
1C1E00
1FF800
1C0F00
1C0780
1C03C0
1C01C0
1C01E0
1C01E0
1C01E0
1C01C0
1C01C0
1C0380
1E0F80
FFFC00
ENDCHAR
STARTCHAR uni1E03
ENCODING 7683
SWIDTH 598 0
DWIDTH 20 0
BBX 17 30 1 0
BITMAP
0C0000
1E0000
1E0000
0C0000
000000
180000
F80000
380000
380000
380000
380000
380000
380000
387000
39FE00
3E1E00
3C0700
380700
380300
380380
380380
380380
380380
380380
380300
380700
380700
3C0E00
3E1C00
27F000
ENDCHAR
STARTCHAR uni1E04
ENCODING 7684
SWIDTH 646 0
DWIDTH 22 0
BBX 19 29 1 -5
BITMAP
FFF000
1C1F00
1C0780
1C0380
1C03C0
1C03C0
1C03C0
1C03C0
1C0380
1C0700
1C1E00
1FF800
1C0F00
1C0780
1C03C0
1C01C0
1C01E0
1C01E0
1C01E0
1C01C0
1C01C0
1C0380
1E0F80
FFFC00
000000
006000
00F000
00F000
006000
ENDCHAR
STARTCHAR uni1E05
ENCODING 7685
SWIDTH 598 0
DWIDTH 20 0
BBX 17 30 1 -5
BITMAP
180000
F80000
380000
380000
380000
380000
380000
380000
387000
39FE00
3E1E00
3C0700
380700
380300
380380
380380
380380
380380
380380
380300
380700
380700
3C0E00
3E1C00
27F000
000000
018000
03C000
03C000
018000
ENDCHAR
STARTCHAR uni1E06
ENCODING 7686
SWIDTH 646 0
DWIDTH 22 0
BBX 19 27 1 -3
BITMAP
FFF000
1C1F00
1C0780
1C0380
1C03C0
1C03C0
1C03C0
1C03C0
1C0380
1C0700
1C1E00
1FF800
1C0F00
1C0780
1C03C0
1C01C0
1C01E0
1C01E0
1C01E0
1C01C0
1C01C0
1C0380
1E0F80
FFFC00
000000
07FE00
07FE00
ENDCHAR
STARTCHAR uni1E07
ENCODING 7687
SWIDTH 598 0
DWIDTH 20 0
BBX 17 28 1 -3
BITMAP
180000
F80000
380000
380000
380000
380000
380000
380000
387000
39FE00
3E1E00
3C0700
380700
380300
380380
380380
380380
380380
380380
380300
380700
380700
3C0E00
3E1C00
27F000
000000
1FF800
1FF800
ENDCHAR
STARTCHAR uni1E08
ENCODING 7688
SWIDTH 680 0
DWIDTH 23 0
BBX 20 39 1 -8
BITMAP
000800
001C00
003800
007000
00C000
010000
000000
007F00
03C1F0
0F0070
1E0030
3C0030
380010
780000
780000
700000
700000
F00000
F00000
F00000
F00000
F00000
700000
780000
780010
380010
3C0010
1E0030
0F0070
07C1F0
00FF80
001000
003000
003800
001E00
000E00
000E00
001C00
007800
ENDCHAR
STARTCHAR uni1E09
ENCODING 7689
SWIDTH 496 0
DWIDTH 17 0
BBX 13 32 2 -8
BITMAP
0040
00E0
01C0
0380
0600
0800
0000
0780
18F0
3078
7038
6010
E000
E000
E000
E000
E000
E000
F000
7008
7018
3830
1FE0
0780
0200
0200
0700
03C0
01C0
01C0
0380
0F00
ENDCHAR
STARTCHAR uni1E0A
ENCODING 7690
SWIDTH 779 0
DWIDTH 26 0
BBX 24 29 1 0
BITMAP
001800
003C00
003C00
001800
000000
FFFF00
1C07E0
1C00F0
1C0078
1C003C
1C001C
1C001E
1C000E
1C000E
1C000F
1C000F
1C000F
1C000F
1C000F
1C000F
1C000E
1C001E
1C001E
1C001C
1C003C
1C0078
1C00F0
1E03C0
FFFF00
ENDCHAR
STARTCHAR uni1E0B
ENCODING 7691
SWIDTH 598 0
DWIDTH 20 0
BBX 17 30 2 0
BITMAP
001800
003C00
003C00
001800
000000
000600
003E00
000E00
000E00
000E00
000E00
000E00
000E00
07CE00
1C3E00
381E00
700E00
700E00
E00E00
E00E00
E00E00
E00E00
E00E00
E00E00
E00E00
700E00
781E00
3C3E00
1FEE00
070F80
ENDCHAR
STARTCHAR uni1E0C
ENCODING 7692
SWIDTH 779 0
DWIDTH 26 0
BBX 24 29 1 -5
BITMAP
FFFF00
1C07E0
1C00F0
1C0078
1C003C
1C001C
1C001E
1C000E
1C000E
1C000F
1C000F
1C000F
1C000F
1C000F
1C000F
1C000E
1C001E
1C001E
1C001C
1C003C
1C0078
1C00F0
1E03C0
FFFF00
000000
001800
003C00
003C00
001800
ENDCHAR
STARTCHAR uni1E0D
ENCODING 7693
SWIDTH 598 0
DWIDTH 20 0
BBX 17 30 2 -5
BITMAP
000600
003E00
000E00
000E00
000E00
000E00
000E00
000E00
07CE00
1C3E00
381E00
700E00
700E00
E00E00
E00E00
E00E00
E00E00
E00E00
E00E00
E00E00
700E00
781E00
3C3E00
1FEE00
070F80
000000
00C000
01E000
01E000
00C000
ENDCHAR
STARTCHAR uni1E0E
ENCODING 7694
SWIDTH 779 0
DWIDTH 26 0
BBX 24 27 1 -3
BITMAP
FFFF00
1C07E0
1C00F0
1C0078
1C003C
1C001C
1C001E
1C000E
1C000E
1C000F
1C000F
1C000F
1C000F
1C000F
1C000F
1C000E
1C001E
1C001E
1C001C
1C003C
1C0078
1C00F0
1E03C0
FFFF00
000000
01FF80
01FF80
ENDCHAR
STARTCHAR uni1E0F
ENCODING 7695
SWIDTH 598 0
DWIDTH 20 0
BBX 17 28 2 -3
BITMAP
000600
003E00
000E00
000E00
000E00
000E00
000E00
000E00
07CE00
1C3E00
381E00
700E00
700E00
E00E00
E00E00
E00E00
E00E00
E00E00
E00E00
E00E00
700E00
781E00
3C3E00
1FEE00
070F80
000000
0FFC00
0FFC00
ENDCHAR
STARTCHAR uni1E10
ENCODING 7696
SWIDTH 779 0
DWIDTH 26 0
BBX 24 32 1 -8
BITMAP
FFFF00
1C07E0
1C00F0
1C0078
1C003C
1C001C
1C001E
1C000E
1C000E
1C000F
1C000F
1C000F
1C000F
1C000F
1C000F
1C000E
1C001E
1C001E
1C001C
1C003C
1C0078
1C00F0
1E03C0
FFFF00
001800
001000
003C00
001E00
000E00
000E00
001C00
007800
ENDCHAR
STARTCHAR uni1E11
ENCODING 7697
SWIDTH 598 0
DWIDTH 20 0
BBX 17 33 2 -8
BITMAP
000600
003E00
000E00
000E00
000E00
000E00
000E00
000E00
07CE00
1C3E00
381E00
700E00
700E00
E00E00
E00E00
E00E00
E00E00
E00E00
E00E00
E00E00
700E00
781E00
3C3E00
1FEE00
070F80
00C000
008000
01E000
00F000
007000
007000
00E000
03C000
ENDCHAR
STARTCHAR uni1E12
ENCODING 7698
SWIDTH 779 0
DWIDTH 26 0
BBX 24 31 1 -7
BITMAP
FFFF00
1C07E0
1C00F0
1C0078
1C003C
1C001C
1C001E
1C000E
1C000E
1C000F
1C000F
1C000F
1C000F
1C000F
1C000F
1C000E
1C001E
1C001E
1C001C
1C003C
1C0078
1C00F0
1E03C0
FFFF00
000000
001800
003C00
007E00
006600
00C300
010080
ENDCHAR
STARTCHAR uni1E13
ENCODING 7699
SWIDTH 598 0
DWIDTH 20 0
BBX 17 32 2 -7
BITMAP
000600
003E00
000E00
000E00
000E00
000E00
000E00
000E00
07CE00
1C3E00
381E00
700E00
700E00
E00E00
E00E00
E00E00
E00E00
E00E00
E00E00
E00E00
700E00
781E00
3C3E00
1FEE00
070F80
000000
00C000
01E000
03F000
033000
061800
080400
ENDCHAR
STARTCHAR uni1E14
ENCODING 7700
SWIDTH 606 0
DWIDTH 20 0
BBX 18 34 1 0
BITMAP
040000
0E0000
070000
038000
00C000
002000
000000
1FF800
1FF800
000000
FFFF80
1C0380
1C0180
1C0080
1C0080
1C0000
1C0000
1C0000
1C0200
1C0200
1C0600
1FFE00
1C0600
1C0200
1C0200
1C0000
1C0000
1C0000
1C0040
1C00C0
1C00C0
1C01C0
1E0380
FFFF80
ENDCHAR
STARTCHAR uni1E15
ENCODING 7701
SWIDTH 514 0
DWIDTH 17 0
BBX 14 27 2 0
BITMAP
1000
3800
1C00
0E00
0300
0080
0000
3FF0
3FF0
0000
0780
1C70
3038
7018
601C
E01C
E01C
FFFC
E000
E000
E000
E000
700C
7808
3C38
1FF0
07C0
ENDCHAR
STARTCHAR uni1E16
ENCODING 7702
SWIDTH 606 0
DWIDTH 20 0
BBX 18 34 1 0
BITMAP
001000
003800
007000
00E000
018000
020000
000000
1FF800
1FF800
000000
FFFF80
1C0380
1C0180
1C0080
1C0080
1C0000
1C0000
1C0000
1C0200
1C0200
1C0600
1FFE00
1C0600
1C0200
1C0200
1C0000
1C0000
1C0000
1C0040
1C00C0
1C00C0
1C01C0
1E0380
FFFF80
ENDCHAR
STARTCHAR uni1E17
ENCODING 7703
SWIDTH 514 0
DWIDTH 17 0
BBX 14 27 2 0
BITMAP
0020
0070
00E0
01C0
0300
0400
0000
3FF0
3FF0
0000
0780
1C70
3038
7018
601C
E01C
E01C
FFFC
E000
E000
E000
E000
700C
7808
3C38
1FF0
07C0
ENDCHAR
STARTCHAR uni1E18
ENCODING 7704
SWIDTH 606 0
DWIDTH 20 0
BBX 18 31 1 -7
BITMAP
FFFF80
1C0380
1C0180
1C0080
1C0080
1C0000
1C0000
1C0000
1C0200
1C0200
1C0600
1FFE00
1C0600
1C0200
1C0200
1C0000
1C0000
1C0000
1C0040
1C00C0
1C00C0
1C01C0
1E0380
FFFF80
000000
00C000
01E000
03F000
033000
061800
080400
ENDCHAR
STARTCHAR uni1E19
ENCODING 7705
SWIDTH 514 0
DWIDTH 17 0
BBX 14 24 2 -7
BITMAP
0780
1C70
3038
7018
601C
E01C
E01C
FFFC
E000
E000
E000
E000
700C
7808
3C38
1FF0
07C0
0000
0300
0780
0FC0
0CC0
1860
2010
ENDCHAR
STARTCHAR uni1E1A
ENCODING 7706
SWIDTH 606 0
DWIDTH 20 0
BBX 18 29 1 -5
BITMAP
FFFF80
1C0380
1C0180
1C0080
1C0080
1C0000
1C0000
1C0000
1C0200
1C0200
1C0600
1FFE00
1C0600
1C0200
1C0200
1C0000
1C0000
1C0000
1C0040
1C00C0
1C00C0
1C01C0
1E0380
FFFF80
000000
030200
0FFC00
09FC00
101000
ENDCHAR
STARTCHAR uni1E1B
ENCODING 7707
SWIDTH 514 0
DWIDTH 17 0
BBX 14 22 2 -5
BITMAP
0780
1C70
3038
7018
601C
E01C
E01C
FFFC
E000
E000
E000
E000
700C
7808
3C38
1FF0
07C0
0000
0C08
3FF0
27F0
4040
ENDCHAR
STARTCHAR uni1E1C
ENCODING 7708
SWIDTH 606 0
DWIDTH 20 0
BBX 18 38 1 -8
BITMAP
080800
080800
041000
07F000
03E000
000000
FFFF80
1C0380
1C0180
1C0080
1C0080
1C0000
1C0000
1C0000
1C0200
1C0200
1C0600
1FFE00
1C0600
1C0200
1C0200
1C0000
1C0000
1C0000
1C0040
1C00C0
1C00C0
1C01C0
1E0380
FFFF80
00C000
008000
01E000
00F000
007000
007000
00E000
03C000
ENDCHAR
STARTCHAR uni1E1D
ENCODING 7709
SWIDTH 514 0
DWIDTH 17 0
BBX 14 31 2 -8
BITMAP
1010
1010
0820
0FE0
07C0
0000
0780
1C70
3038
7018
601C
E01C
E01C
FFFC
E000
E000
E000
E000
700C
7808
3C38
1FF0
07C0
0300
0200
0780
03C0
01C0
01C0
0380
0F00
ENDCHAR
STARTCHAR uni1E1E
ENCODING 7710
SWIDTH 580 0
DWIDTH 19 0
BBX 17 29 1 0
BITMAP
018000
03C000
03C000
018000
000000
FFFF80
1C0380
1C0180
1C0080
1C0080
1C0000
1C0000
1C0000
1C0000
1C0200
1C0200
1C0600
1FFE00
1C0600
1C0200
1C0200
1C0000
1C0000
1C0000
1C0000
1C0000
1C0000
1C0000
FFC000
ENDCHAR
STARTCHAR uni1E1F
ENCODING 7711
SWIDTH 319 0
DWIDTH 11 0
BBX 12 30 1 0
BITMAP
0300
0780
0780
0300
0000
03C0
0470
0C70
0C20
0C00
1C00
1C00
1C00
FFC0
1C00
1C00
1C00
1C00
1C00
1C00
1C00
1C00
1C00
1C00
1C00
1C00
1C00
1C00
1C00
7F80
ENDCHAR
STARTCHAR uni1E20
ENCODING 7712
SWIDTH 734 0
DWIDTH 24 0
BBX 23 27 1 0
BITMAP
03FF00
03FF00
000000
003F80
03E0F8
0F0038
1E0018
3C0018
380008
780000
780000
700000
700000
F00000
F00000
F00000
F003FE
700038
700038
780038
780038
780038
3C0038
1E0038
0F0038
07C078
00FF80
ENDCHAR
STARTCHAR uni1E21
ENCODING 7713
SWIDTH 520 0
DWIDTH 17 0
BBX 16 28 1 -8
BITMAP
1FF8
1FF8
0000
07C7
1C7F
3838
7018
701C
701C
701C
383C
3838
1C70
0FC0
1800
3000
7000
7FF0
3FFC
0FFE
381F
6007
E007
E007
E006
700E
3C3C
07E0
ENDCHAR
STARTCHAR uni1E22
ENCODING 7714
SWIDTH 798 0
DWIDTH 27 0
BBX 24 29 1 0
BITMAP
001800
003C00
003C00
001800
000000
FF81FF
1C0038
1C0038
1C0038
1C0038
1C0038
1C0038
1C0038
1C0038
1C0038
1C0038
1FFFF8
1C0038
1C0038
1C0038
1C0038
1C0038
1C0038
1C0038
1C0038
1C0038
1C0038
1C0038
FF81FF
ENDCHAR
STARTCHAR uni1E23
ENCODING 7715
SWIDTH 607 0
DWIDTH 20 0
BBX 18 30 1 0
BITMAP
0C0000
1E0000
1E0000
0C0000
000000
180000
F80000
380000
380000
380000
380000
380000
380000
387800
39FE00
3E1E00
3C0F00
380700
380700
380700
380700
380700
380700
380700
380700
380700
380700
380700
380700
FF3FC0
ENDCHAR
STARTCHAR uni1E24
ENCODING 7716
SWIDTH 798 0
DWIDTH 27 0
BBX 24 29 1 -5
BITMAP
FF81FF
1C0038
1C0038
1C0038
1C0038
1C0038
1C0038
1C0038
1C0038
1C0038
1C0038
1FFFF8
1C0038
1C0038
1C0038
1C0038
1C0038
1C0038
1C0038
1C0038
1C0038
1C0038
1C0038
FF81FF
000000
001800
003C00
003C00
001800
ENDCHAR
STARTCHAR uni1E25
ENCODING 7717
SWIDTH 607 0
DWIDTH 20 0
BBX 18 30 1 -5
BITMAP
180000
F80000
380000
380000
380000
380000
380000
380000
387800
39FE00
3E1E00
3C0F00
380700
380700
380700
380700
380700
380700
380700
380700
380700
380700
380700
380700
FF3FC0
000000
00C000
01E000
01E000
00C000
ENDCHAR
STARTCHAR uni1E26
ENCODING 7718
SWIDTH 798 0
DWIDTH 27 0
BBX 24 29 1 0
BITMAP
00C180
01E3C0
01E3C0
00C180
000000
FF81FF
1C0038
1C0038
1C0038
1C0038
1C0038
1C0038
1C0038
1C0038
1C0038
1C0038
1FFFF8
1C0038
1C0038
1C0038
1C0038
1C0038
1C0038
1C0038
1C0038
1C0038
1C0038
1C0038
FF81FF
ENDCHAR
STARTCHAR uni1E27
ENCODING 7719
SWIDTH 607 0
DWIDTH 20 0
BBX 18 30 1 0
BITMAP
60C000
F1E000
F1E000
60C000
000000
180000
F80000
380000
380000
380000
380000
380000
380000
387800
39FE00
3E1E00
3C0F00
380700
380700
380700
380700
380700
380700
380700
380700
380700
380700
380700
380700
FF3FC0
ENDCHAR
STARTCHAR uni1E28
ENCODING 7720
SWIDTH 798 0
DWIDTH 27 0
BBX 24 32 1 -8
BITMAP
FF81FF
1C0038
1C0038
1C0038
1C0038
1C0038
1C0038
1C0038
1C0038
1C0038
1C0038
1FFFF8
1C0038
1C0038
1C0038
1C0038
1C0038
1C0038
1C0038
1C0038
1C0038
1C0038
1C0038
FF81FF
001800
001000
003C00
001E00
000E00
000E00
001C00
007800
ENDCHAR
STARTCHAR uni1E29
ENCODING 7721
SWIDTH 607 0
DWIDTH 20 0
BBX 18 33 1 -8
BITMAP
180000
F80000
380000
380000
380000
380000
380000
380000
387800
39FE00
3E1E00
3C0F00
380700
380700
380700
380700
380700
380700
380700
380700
380700
380700
380700
380700
FF3FC0
00C000
008000
01E000
00F000
007000
007000
00E000
03C000
ENDCHAR
STARTCHAR uni1E2A
ENCODING 7722
SWIDTH 798 0
DWIDTH 27 0
BBX 24 30 1 -6
BITMAP
FF81FF
1C0038
1C0038
1C0038
1C0038
1C0038
1C0038
1C0038
1C0038
1C0038
1C0038
1FFFF8
1C0038
1C0038
1C0038
1C0038
1C0038
1C0038
1C0038
1C0038
1C0038
1C0038
1C0038
FF81FF
000000
008080
008080
004100
007F00
003E00
ENDCHAR
STARTCHAR uni1E2B
ENCODING 7723
SWIDTH 607 0
DWIDTH 20 0
BBX 18 31 1 -6
BITMAP
180000
F80000
380000
380000
380000
380000
380000
380000
387800
39FE00
3E1E00
3C0F00
380700
380700
380700
380700
380700
380700
380700
380700
380700
380700
380700
380700
FF3FC0
000000
040400
040400
020800
03F800
01F000
ENDCHAR
STARTCHAR uni1E2C
ENCODING 7724
SWIDTH 349 0
DWIDTH 12 0
BBX 12 29 -1 -5
BITMAP
3FE0
0700
0700
0700
0700
0700
0700
0700
0700
0700
0700
0700
0700
0700
0700
0700
0700
0700
0700
0700
0700
0700
0700
3FE0
0000
1810
7FE0
4FE0
8080
ENDCHAR
STARTCHAR uni1E2D
ENCODING 7725
SWIDTH 291 0
DWIDTH 10 0
BBX 12 29 -1 -5
BITMAP
0600
0F00
0F00
0600
0000
0000
0000
0700
1F00
0700
0700
0700
0700
0700
0700
0700
0700
0700
0700
0700
0700
0700
0700
1FC0
0000
1810
7FE0
4FE0
8080
ENDCHAR
STARTCHAR uni1E2E
ENCODING 7726
SWIDTH 349 0
DWIDTH 12 0
BBX 11 35 0 0
BITMAP
0080
01C0
0380
0700
0C00
1000
0000
60C0
F1E0
F1E0
60C0
7FC0
0E00
0E00
0E00
0E00
0E00
0E00
0E00
0E00
0E00
0E00
0E00
0E00
0E00
0E00
0E00
0E00
0E00
0E00
0E00
0E00
0E00
0E00
7FC0
ENDCHAR
STARTCHAR uni1E2F
ENCODING 7727
SWIDTH 291 0
DWIDTH 10 0
BBX 11 30 0 0
BITMAP
0080
01C0
0380
0700
0C00
1000
0000
60C0
F1E0
F1C0
60C0
0000
0000
0600
3E00
0E00
0E00
0E00
0E00
0E00
0E00
0E00
0E00
0E00
0E00
0E00
0E00
0E00
0E00
3F80
ENDCHAR
STARTCHAR uni1E30
ENCODING 7728
SWIDTH 658 0
DWIDTH 22 0
BBX 21 31 1 0
BITMAP
000400
000E00
001C00
003800
006000
008000
000000
FF87F8
1C01C0
1C0380
1C0700
1C0E00
1C0C00
1C1800
1C3000
1C6000
1C8000
1D8000
1FC000
1DE000
1DF000
1CF800
1C7800
1C3C00
1C1E00
1C1F00
1C0F80
1C0780
1C03C0
1C01F0
FF8038
ENDCHAR
STARTCHAR uni1E31
ENCODING 7729
SWIDTH 524 0
DWIDTH 17 0
BBX 17 32 1 0
BITMAP
008000
01C000
038000
070000
0C0000
100000
000000
180000
F80000
380000
380000
380000
380000
380000
380000
381F00
383800
387000
38E000
38C000
398000
3B0000
3F0000
3F8000
3F8000
3BC000
39E000
38F000
387800
383C00
381F00
FE0780
ENDCHAR
STARTCHAR uni1E32
ENCODING 7730
SWIDTH 658 0
DWIDTH 22 0
BBX 21 29 1 -5
BITMAP
FF87F8
1C01C0
1C0380
1C0700
1C0E00
1C0C00
1C1800
1C3000
1C6000
1C8000
1D8000
1FC000
1DE000
1DF000
1CF800
1C7800
1C3C00
1C1E00
1C1F00
1C0F80
1C0780
1C03C0
1C01F0
FF8038
000000
006000
00F000
00F000
006000
ENDCHAR
STARTCHAR uni1E33
ENCODING 7731
SWIDTH 524 0
DWIDTH 17 0
BBX 17 30 1 -5
BITMAP
180000
F80000
380000
380000
380000
380000
380000
380000
381F00
383800
387000
38E000
38C000
398000
3B0000
3F0000
3F8000
3F8000
3BC000
39E000
38F000
387800
383C00
381F00
FE0780
000000
018000
03C000
03C000
018000
ENDCHAR
STARTCHAR uni1E34
ENCODING 7732
SWIDTH 658 0
DWIDTH 22 0
BBX 21 27 1 -3
BITMAP
FF87F8
1C01C0
1C0380
1C0700
1C0E00
1C0C00
1C1800
1C3000
1C6000
1C8000
1D8000
1FC000
1DE000
1DF000
1CF800
1C7800
1C3C00
1C1E00
1C1F00
1C0F80
1C0780
1C03C0
1C01F0
FF8038
000000
07FE00
07FE00
ENDCHAR
STARTCHAR uni1E35
ENCODING 7733
SWIDTH 524 0
DWIDTH 17 0
BBX 17 28 1 -3
BITMAP
180000
F80000
380000
380000
380000
380000
380000
380000
381F00
383800
387000
38E000
38C000
398000
3B0000
3F0000
3F8000
3F8000
3BC000
39E000
38F000
387800
383C00
381F00
FE0780
000000
1FF800
1FF800
ENDCHAR
STARTCHAR uni1E36
ENCODING 7734
SWIDTH 568 0
DWIDTH 19 0
BBX 17 29 1 -5
BITMAP
FF8000
1C0000
1C0000
1C0000
1C0000
1C0000
1C0000
1C0000
1C0000
1C0000
1C0000
1C0000
1C0000
1C0000
1C0000
1C0000
1C0000
1C0000
1C0080
1C0080
1C0080
1C0180
1E0780
FFFF80
000000
018000
03C000
03C000
018000
ENDCHAR
STARTCHAR uni1E37
ENCODING 7735
SWIDTH 279 0
DWIDTH 9 0
BBX 7 30 1 -5
BITMAP
18
F8
38
38
38
38
38
38
38
38
38
38
38
38
38
38
38
38
38
38
38
38
38
38
FE
00
18
3C
3C
18
ENDCHAR
STARTCHAR uni1E38
ENCODING 7736
SWIDTH 568 0
DWIDTH 19 0
BBX 17 32 1 -5
BITMAP
7FE000
7FE000
000000
FF8000
1C0000
1C0000
1C0000
1C0000
1C0000
1C0000
1C0000
1C0000
1C0000
1C0000
1C0000
1C0000
1C0000
1C0000
1C0000
1C0000
1C0000
1C0080
1C0080
1C0080
1C0180
1E0780
FFFF80
000000
018000
03C000
03C000
018000
ENDCHAR
STARTCHAR uni1E39
ENCODING 7737
SWIDTH 279 0
DWIDTH 9 0
BBX 10 33 -1 -5
BITMAP
FFC0
FFC0
0000
0600
3E00
0E00
0E00
0E00
0E00
0E00
0E00
0E00
0E00
0E00
0E00
0E00
0E00
0E00
0E00
0E00
0E00
0E00
0E00
0E00
0E00
0E00
0E00
3F80
0000
0600
0F00
0F00
0600
ENDCHAR
STARTCHAR uni1E3A
ENCODING 7738
SWIDTH 568 0
DWIDTH 19 0
BBX 17 27 1 -3
BITMAP
FF8000
1C0000
1C0000
1C0000
1C0000
1C0000
1C0000
1C0000
1C0000
1C0000
1C0000
1C0000
1C0000
1C0000
1C0000
1C0000
1C0000
1C0000
1C0080
1C0080
1C0080
1C0180
1E0780
FFFF80
000000
1FF800
1FF800
ENDCHAR
STARTCHAR uni1E3B
ENCODING 7739
SWIDTH 279 0
DWIDTH 9 0
BBX 10 28 0 -3
BITMAP
0C00
7C00
1C00
1C00
1C00
1C00
1C00
1C00
1C00
1C00
1C00
1C00
1C00
1C00
1C00
1C00
1C00
1C00
1C00
1C00
1C00
1C00
1C00
1C00
7F00
0000
FFC0
FFC0
ENDCHAR
STARTCHAR uni1E3C
ENCODING 7740
SWIDTH 568 0
DWIDTH 19 0
BBX 17 31 1 -7
BITMAP
FF8000
1C0000
1C0000
1C0000
1C0000
1C0000
1C0000
1C0000
1C0000
1C0000
1C0000
1C0000
1C0000
1C0000
1C0000
1C0000
1C0000
1C0000
1C0080
1C0080
1C0080
1C0180
1E0780
FFFF80
000000
018000
03C000
07E000
066000
0C3000
100800
ENDCHAR
STARTCHAR uni1E3D
ENCODING 7741
SWIDTH 279 0
DWIDTH 9 0
BBX 10 32 0 -7
BITMAP
0C00
7C00
1C00
1C00
1C00
1C00
1C00
1C00
1C00
1C00
1C00
1C00
1C00
1C00
1C00
1C00
1C00
1C00
1C00
1C00
1C00
1C00
1C00
1C00
7F00
0000
0C00
1E00
3F00
3300
6180
8040
ENDCHAR
STARTCHAR uni1E3E
ENCODING 7742
SWIDTH 944 0
DWIDTH 31 0
BBX 29 31 1 0
BITMAP
00004000
0000E000
0001C000
00038000
00060000
00080000
00000000
FE0003F8
1F0003C0
1F0003C0
1F8007C0
1F8005C0
1B800DC0
1BC00DC0
19C009C0
19E019C0
18E011C0
18E031C0
18F021C0
187061C0
187861C0
183841C0
183CC1C0
183C81C0
181D81C0
181F01C0
180F01C0
180F01C0
180601C0
3C0601C0
FF040FF8
ENDCHAR
STARTCHAR uni1E3F
ENCODING 7743
SWIDTH 923 0
DWIDTH 31 0
BBX 29 24 2 0
BITMAP
00004000
0000E000
0001C000
00038000
00060000
00080000
00000000
38380700
F9FE3FC0
3E0FC3C0
3C0781E0
380700E0
380700E0
380700E0
380700E0
380700E0
380700E0
380700E0
380700E0
380700E0
380700E0
380700E0
380700E0
FF3FE7F8
ENDCHAR
STARTCHAR uni1E40
ENCODING 7744
SWIDTH 944 0
DWIDTH 31 0
BBX 29 29 1 0
BITMAP
00060000
000F0000
000F0000
00060000
00000000
FE0003F8
1F0003C0
1F0003C0
1F8007C0
1F8005C0
1B800DC0
1BC00DC0
19C009C0
19E019C0
18E011C0
18E031C0
18F021C0
187061C0
187861C0
183841C0
183CC1C0
183C81C0
181D81C0
181F01C0
180F01C0
180F01C0
180601C0
3C0601C0
FF040FF8
ENDCHAR
STARTCHAR uni1E41
ENCODING 7745
SWIDTH 923 0
DWIDTH 31 0
BBX 29 22 2 0
BITMAP
00060000
000F0000
000F0000
00060000
00000000
38380700
F9FE3FC0
3E0FC3C0
3C0781E0
380700E0
380700E0
380700E0
380700E0
380700E0
380700E0
380700E0
380700E0
380700E0
380700E0
380700E0
380700E0
FF3FE7F8
ENDCHAR
STARTCHAR uni1E42
ENCODING 7746
SWIDTH 944 0
DWIDTH 31 0
BBX 29 29 1 -5
BITMAP
FE0003F8
1F0003C0
1F0003C0
1F8007C0
1F8005C0
1B800DC0
1BC00DC0
19C009C0
19E019C0
18E011C0
18E031C0
18F021C0
187061C0
187861C0
183841C0
183CC1C0
183C81C0
181D81C0
181F01C0
180F01C0
180F01C0
180601C0
3C0601C0
FF040FF8
00000000
00030000
00078000
00078000
00030000
ENDCHAR
STARTCHAR uni1E43
ENCODING 7747
SWIDTH 923 0
DWIDTH 31 0
BBX 29 22 2 -5
BITMAP
38380700
F9FE3FC0
3E0FC3C0
3C0781E0
380700E0
380700E0
380700E0
380700E0
380700E0
380700E0
380700E0
380700E0
380700E0
380700E0
380700E0
380700E0
FF3FE7F8
00000000
00030000
00078000
00078000
00030000
ENDCHAR
STARTCHAR uni1E44
ENCODING 7748
SWIDTH 780 0
DWIDTH 26 0
BBX 24 29 1 0
BITMAP
003000
007800
007800
003000
000000
FE00FF
1F003C
1F0018
1F8018
1BC018
1BC018
19E018
18E018
18F018
187818
183818
183C18
181E18
180E18
180F18
180798
180398
1803D8
1801F8
1800F8
1800F8
180078
3C0038
FF0038
ENDCHAR
STARTCHAR uni1E45
ENCODING 7749
SWIDTH 619 0
DWIDTH 21 0
BBX 18 22 2 0
BITMAP
00C000
01E000
01E000
00C000
000000
387800
F9FE00
3E1E00
3C0F00
380700
380700
380700
380700
380700
380700
380700
380700
380700
380700
380700
380700
FE3FC0
ENDCHAR
STARTCHAR uni1E46
ENCODING 7750
SWIDTH 780 0
DWIDTH 26 0
BBX 24 29 1 -5
BITMAP
FE00FF
1F003C
1F0018
1F8018
1BC018
1BC018
19E018
18E018
18F018
187818
183818
183C18
181E18
180E18
180F18
180798
180398
1803D8
1801F8
1800F8
1800F8
180078
3C0038
FF0038
000000
001800
003C00
003C00
001800
ENDCHAR
STARTCHAR uni1E47
ENCODING 7751
SWIDTH 619 0
DWIDTH 21 0
BBX 18 22 2 -5
BITMAP
387800
F9FE00
3E1E00
3C0F00
380700
380700
380700
380700
380700
380700
380700
380700
380700
380700
380700
380700
FE3FC0
000000
00C000
01E000
01E000
00C000
ENDCHAR
STARTCHAR uni1E48
ENCODING 7752
SWIDTH 780 0
DWIDTH 26 0
BBX 24 27 1 -3
BITMAP
FE00FF
1F003C
1F0018
1F8018
1BC018
1BC018
19E018
18E018
18F018
187818
183818
183C18
181E18
180E18
180F18
180798
180398
1803D8
1801F8
1800F8
1800F8
180078
3C0038
FF0038
000000
01FF80
01FF80
ENDCHAR
STARTCHAR uni1E49
ENCODING 7753
SWIDTH 619 0
DWIDTH 21 0
BBX 18 20 2 -3
BITMAP
387800
F9FE00
3E1E00
3C0F00
380700
380700
380700
380700
380700
380700
380700
380700
380700
380700
380700
380700
FE3FC0
000000
0FFC00
0FFC00
ENDCHAR
STARTCHAR uni1E4A
ENCODING 7754
SWIDTH 780 0
DWIDTH 26 0
BBX 24 31 1 -7
BITMAP
FE00FF
1F003C
1F0018
1F8018
1BC018
1BC018
19E018
18E018
18F018
187818
183818
183C18
181E18
180E18
180F18
180798
180398
1803D8
1801F8
1800F8
1800F8
180078
3C0038
FF0038
000000
001800
003C00
007E00
006600
00C300
010080
ENDCHAR
STARTCHAR uni1E4B
ENCODING 7755
SWIDTH 619 0
DWIDTH 21 0
BBX 18 24 2 -7
BITMAP
387800
F9FE00
3E1E00
3C0F00
380700
380700
380700
380700
380700
380700
380700
380700
380700
380700
380700
380700
FE3FC0
000000
00C000
01E000
03F000
033000
061800
080400
ENDCHAR
STARTCHAR uni1E4C
ENCODING 7756
SWIDTH 762 0
DWIDTH 25 0
BBX 23 36 1 0
BITMAP
000200
000700
000E00
001C00
003000
004000
000000
000040
007080
01FF80
021E00
020000
00FE00
0783C0
0E00E0
1C0070
380038
380038
78003C
70001C
70001C
F0001E
F0001E
F0001E
F0001E
F0001E
F0001E
70001C
70001C
78003C
380038
380038
1C0070
0E00E0
0783C0
00FE00
ENDCHAR
STARTCHAR uni1E4D
ENCODING 7757
SWIDTH 577 0
DWIDTH 19 0
BBX 15 30 2 0
BITMAP
0020
0070
00E0
01C0
0300
0400
0000
0E08
1F08
21F0
2060
0000
0000
07C0
1830
3018
701C
701C
E00E
E00E
E00E
E00E
E00E
E00E
E00E
701C
701C
3018
1830
07C0
ENDCHAR
STARTCHAR uni1E4E
ENCODING 7758
SWIDTH 762 0
DWIDTH 25 0
BBX 23 34 1 0
BITMAP
018300
03C780
03C780
018300
000000
000040
007080
01FF80
021E00
020000
00FE00
0783C0
0E00E0
1C0070
380038
380038
78003C
70001C
70001C
F0001E
F0001E
F0001E
F0001E
F0001E
F0001E
70001C
70001C
78003C
380038
380038
1C0070
0E00E0
0783C0
00FE00
ENDCHAR
STARTCHAR uni1E4F
ENCODING 7759
SWIDTH 577 0
DWIDTH 19 0
BBX 15 28 2 0
BITMAP
1830
3C78
3C78
1830
0000
0E08
1F08
21F0
2060
0000
0000
07C0
1830
3018
701C
701C
E00E
E00E
E00E
E00E
E00E
E00E
E00E
701C
701C
3018
1830
07C0
ENDCHAR
STARTCHAR uni1E50
ENCODING 7760
SWIDTH 762 0
DWIDTH 25 0
BBX 23 34 1 0
BITMAP
008000
01C000
00E000
007000
001800
000400
000000
01FF80
01FF80
000000
00FE00
0783C0
0E00E0
1C0070
380038
380038
78003C
70001C
70001C
F0001E
F0001E
F0001E
F0001E
F0001E
F0001E
70001C
70001C
78003C
380038
380038
1C0070
0E00E0
0783C0
00FE00
ENDCHAR
STARTCHAR uni1E51
ENCODING 7761
SWIDTH 577 0
DWIDTH 19 0
BBX 15 27 2 0
BITMAP
0800
1C00
0E00
0700
0180
0040
0000
1FF8
1FF8
0000
07C0
1830
3018
701C
701C
E00E
E00E
E00E
E00E
E00E
E00E
E00E
701C
701C
3018
1830
07C0
ENDCHAR
STARTCHAR uni1E52
ENCODING 7762
SWIDTH 762 0
DWIDTH 25 0
BBX 23 34 1 0
BITMAP
000200
000700
000E00
001C00
003000
004000
000000
01FF80
01FF80
000000
00FE00
0783C0
0E00E0
1C0070
380038
380038
78003C
70001C
70001C
F0001E
F0001E
F0001E
F0001E
F0001E
F0001E
70001C
70001C
78003C
380038
380038
1C0070
0E00E0
0783C0
00FE00
ENDCHAR
STARTCHAR uni1E53
ENCODING 7763
SWIDTH 577 0
DWIDTH 19 0
BBX 15 27 2 0
BITMAP
0010
0038
0070
00E0
0180
0200
0000
1FF8
1FF8
0000
07C0
1830
3018
701C
701C
E00E
E00E
E00E
E00E
E00E
E00E
E00E
701C
701C
3018
1830
07C0
ENDCHAR
STARTCHAR uni1E54
ENCODING 7764
SWIDTH 600 0
DWIDTH 20 0
BBX 18 31 1 0
BITMAP
000800
001C00
003800
007000
00C000
010000
000000
FFF800
1C1F00
1C0700
1C0780
1C0380
1C03C0
1C03C0
1C03C0
1C03C0
1C0380
1C0780
1C0700
1C1E00
1FF800
1C0000
1C0000
1C0000
1C0000
1C0000
1C0000
1C0000
1C0000
1C0000
FF8000
ENDCHAR
STARTCHAR uni1E55
ENCODING 7765
SWIDTH 608 0
DWIDTH 20 0
BBX 17 32 1 -8
BITMAP
001000
003800
007000
00E000
018000
020000
000000
387000
F9FE00
3E1E00
3C0700
380700
380380
380380
380380
380380
380380
380380
380300
380700
380700
3C0E00
3E1C00
3BF000
380000
380000
380000
380000
380000
380000
380000
FF0000
ENDCHAR
STARTCHAR uni1E56
ENCODING 7766
SWIDTH 600 0
DWIDTH 20 0
BBX 18 29 1 0
BITMAP
00C000
01E000
01E000
00C000
000000
FFF800
1C1F00
1C0700
1C0780
1C0380
1C03C0
1C03C0
1C03C0
1C03C0
1C0380
1C0780
1C0700
1C1E00
1FF800
1C0000
1C0000
1C0000
1C0000
1C0000
1C0000
1C0000
1C0000
1C0000
FF8000
ENDCHAR
STARTCHAR uni1E57
ENCODING 7767
SWIDTH 608 0
DWIDTH 20 0
BBX 17 30 1 -8
BITMAP
018000
03C000
03C000
018000
000000
387000
F9FE00
3E1E00
3C0700
380700
380380
380380
380380
380380
380380
380380
380300
380700
380700
3C0E00
3E1C00
3BF000
380000
380000
380000
380000
380000
380000
380000
FF0000
ENDCHAR
STARTCHAR uni1E58
ENCODING 7768
SWIDTH 644 0
DWIDTH 21 0
BBX 20 29 1 0
BITMAP
006000
00F000
00F000
006000
000000
FFFC00
1C1F00
1C0780
1C0380
1C03C0
1C03C0
1C03C0
1C03C0
1C0380
1C0780
1C0700
1C1E00
1FF000
1C1E00
1C0F00
1C0700
1C0700
1C0780
1C0780
1C0780
1C0380
1C03C0
1C01E0
FF80F0
ENDCHAR
STARTCHAR uni1E59
ENCODING 7769
SWIDTH 389 0
DWIDTH 13 0
BBX 11 22 2 0
BITMAP
0600
0F00
0F00
0600
0000
38C0
F9E0
3FE0
3C40
3800
3800
3800
3800
3800
3800
3800
3800
3800
3800
3800
3800
FF00
ENDCHAR
STARTCHAR uni1E5A
ENCODING 7770
SWIDTH 644 0
DWIDTH 21 0
BBX 20 29 1 -5
BITMAP
FFFC00
1C1F00
1C0780
1C0380
1C03C0
1C03C0
1C03C0
1C03C0
1C0380
1C0780
1C0700
1C1E00
1FF000
1C1E00
1C0F00
1C0700
1C0700
1C0780
1C0780
1C0780
1C0380
1C03C0
1C01E0
FF80F0
000000
006000
00F000
00F000
006000
ENDCHAR
STARTCHAR uni1E5B
ENCODING 7771
SWIDTH 389 0
DWIDTH 13 0
BBX 11 22 2 -5
BITMAP
38C0
F9E0
3FE0
3C40
3800
3800
3800
3800
3800
3800
3800
3800
3800
3800
3800
3800
FF00
0000
1800
3C00
3C00
1800
ENDCHAR
STARTCHAR uni1E5C
ENCODING 7772
SWIDTH 644 0
DWIDTH 21 0
BBX 20 32 1 -5
BITMAP
07FE00
07FE00
000000
FFFC00
1C1F00
1C0780
1C0380
1C03C0
1C03C0
1C03C0
1C03C0
1C0380
1C0780
1C0700
1C1E00
1FF000
1C1E00
1C0F00
1C0700
1C0700
1C0780
1C0780
1C0780
1C0380
1C03C0
1C01E0
FF80F0
000000
006000
00F000
00F000
006000
ENDCHAR
STARTCHAR uni1E5D
ENCODING 7773
SWIDTH 389 0
DWIDTH 13 0
BBX 11 25 2 -5
BITMAP
FFC0
FFC0
0000
38C0
F9E0
3FE0
3C40
3800
3800
3800
3800
3800
3800
3800
3800
3800
3800
3800
3800
FF00
0000
1800
3C00
3C00
1800
ENDCHAR
STARTCHAR uni1E5E
ENCODING 7774
SWIDTH 644 0
DWIDTH 21 0
BBX 20 27 1 -3
BITMAP
FFFC00
1C1F00
1C0780
1C0380
1C03C0
1C03C0
1C03C0
1C03C0
1C0380
1C0780
1C0700
1C1E00
1FF000
1C1E00
1C0F00
1C0700
1C0700
1C0780
1C0780
1C0780
1C0380
1C03C0
1C01E0
FF80F0
000000
07FE00
07FE00
ENDCHAR
STARTCHAR uni1E5F
ENCODING 7775
SWIDTH 389 0
DWIDTH 13 0
BBX 12 20 1 -3
BITMAP
1C60
7CF0
1FF0
1E20
1C00
1C00
1C00
1C00
1C00
1C00
1C00
1C00
1C00
1C00
1C00
1C00
7F80
0000
FFC0
FFC0
ENDCHAR
STARTCHAR uni1E60
ENCODING 7776
SWIDTH 541 0
DWIDTH 18 0
BBX 15 29 2 0
BITMAP
0300
0780
0780
0300
0000
0FE0
3838
7018
6018
E018
E008
E000
F000
7800
7E00
3FC0
0FF0
03F8
00FC
007C
001E
000E
800E
C00E
C00E
E00C
F018
7830
1FC0
ENDCHAR
STARTCHAR uni1E61
ENCODING 7777
SWIDTH 436 0
DWIDTH 15 0
BBX 11 22 2 0
BITMAP
0C00
1E00
1E00
0C00
0000
1F00
31C0
60C0
E040
E040
F000
7800
7E00
1F80
07C0
01E0
80E0
80E0
C0E0
C0C0
E180
3F00
ENDCHAR
STARTCHAR uni1E62
ENCODING 7778
SWIDTH 541 0
DWIDTH 18 0
BBX 15 29 2 -5
BITMAP
0FE0
3838
7018
6018
E018
E008
E000
F000
7800
7E00
3FC0
0FF0
03F8
00FC
007C
001E
000E
800E
C00E
C00E
E00C
F018
7830
1FC0
0000
0300
0780
0780
0300
ENDCHAR
STARTCHAR uni1E63
ENCODING 7779
SWIDTH 436 0
DWIDTH 15 0
BBX 11 22 2 -5
BITMAP
1F00
31C0
60C0
E040
E040
F000
7800
7E00
1F80
07C0
01E0
80E0
80E0
C0E0
C0C0
E180
3F00
0000
0C00
1E00
1E00
0C00
ENDCHAR
STARTCHAR uni1E64
ENCODING 7780
SWIDTH 541 0
DWIDTH 18 0
BBX 15 36 2 0
BITMAP
0180
03C0
03C0
0180
0000
0040
00E0
01C0
0380
0600
0800
0000
0FE0
3838
7018
6018
E018
E008
E000
F000
7800
7E00
3FC0
0FF0
03F8
00FC
007C
001E
000E
800E
C00E
C00E
E00C
F018
7830
1FC0
ENDCHAR
STARTCHAR uni1E65
ENCODING 7781
SWIDTH 436 0
DWIDTH 15 0
BBX 11 29 2 0
BITMAP
0600
0F00
0F00
0600
0000
0080
01C0
0380
0700
0C00
1000
0000
1F00
31C0
60C0
E040
E040
F000
7800
7E00
1F80
07C0
01E0
80E0
80E0
C0E0
C0C0
E180
3F00
ENDCHAR
STARTCHAR uni1E66
ENCODING 7782
SWIDTH 541 0
DWIDTH 18 0
BBX 15 34 2 0
BITMAP
0300
0780
0780
0300
0000
3018
0C60
07C0
0380
0100
0FE0
3838
7018
6018
E018
E008
E000
F000
7800
7E00
3FC0
0FF0
03F8
00FC
007C
001E
001E
800E
C00E
C00E
E00C
F018
7830
1FC0
ENDCHAR
STARTCHAR uni1E67
ENCODING 7783
SWIDTH 436 0
DWIDTH 15 0
BBX 11 30 2 0
BITMAP
0C00
1E00
1E00
0C00
0000
8040
4040
6180
3380
1F00
0E00
0400
0000
1F00
31C0
60C0
E040
E040
F000
7800
7E00
1F80
07C0
01E0
80E0
80E0
C0E0
C0C0
E180
3F00
ENDCHAR
STARTCHAR uni1E68
ENCODING 7784
SWIDTH 541 0
DWIDTH 18 0
BBX 15 34 2 -5
BITMAP
0600
0F00
0F00
0600
0000
0FE0
3838
7018
6018
E018
E008
E000
F000
7800
7E00
3FC0
0FF0
03F8
00FC
007C
001E
000E
800E
C00E
C00E
E00C
F018
7830
1FC0
0000
0300
0780
0780
0300
ENDCHAR
STARTCHAR uni1E69
ENCODING 7785
SWIDTH 436 0
DWIDTH 15 0
BBX 11 27 2 -5
BITMAP
0C00
1E00
1E00
0C00
0000
1F00
31C0
60C0
E040
E040
F000
7800
7E00
1F80
07C0
01E0
80E0
80E0
C0E0
C0C0
E180
3F00
0000
0C00
1E00
1E00
0C00
ENDCHAR
STARTCHAR uni1E6A
ENCODING 7786
SWIDTH 621 0
DWIDTH 21 0
BBX 19 29 1 0
BITMAP
006000
00F000
00F000
006000
000000
FFFFE0
E0E0E0
C0E060
80E020
80E020
80E020
00E000
00E000
00E000
00E000
00E000
00E000
00E000
00E000
00E000
00E000
00E000
00E000
00E000
00E000
00E000
00E000
00E000
0FFE00
ENDCHAR
STARTCHAR uni1E6B
ENCODING 7787
SWIDTH 344 0
DWIDTH 11 0
BBX 10 26 2 0
BITMAP
1800
3C00
3C00
1800
0000
0800
1800
1800
3800
FF80
3800
3800
3800
3800
3800
3800
3800
3800
3800
3800
3800
3800
3800
3C00
1FC0
0E00
ENDCHAR
STARTCHAR uni1E6C
ENCODING 7788
SWIDTH 621 0
DWIDTH 21 0
BBX 19 29 1 -5
BITMAP
FFFFE0
E0E0E0
C0E060
80E020
80E020
80E020
00E000
00E000
00E000
00E000
00E000
00E000
00E000
00E000
00E000
00E000
00E000
00E000
00E000
00E000
00E000
00E000
00E000
0FFE00
000000
006000
00F000
00F000
006000
ENDCHAR
STARTCHAR uni1E6D
ENCODING 7789
SWIDTH 344 0
DWIDTH 11 0
BBX 10 26 2 -5
BITMAP
0800
1800
1800
3800
FF80
3800
3800
3800
3800
3800
3800
3800
3800
3800
3800
3800
3800
3800
3C00
1FC0
0E00
0000
0C00
1E00
1E00
0C00
ENDCHAR
STARTCHAR uni1E6E
ENCODING 7790
SWIDTH 621 0
DWIDTH 21 0
BBX 19 27 1 -3
BITMAP
FFFFE0
E0E0E0
C0E060
80E020
80E020
80E020
00E000
00E000
00E000
00E000
00E000
00E000
00E000
00E000
00E000
00E000
00E000
00E000
00E000
00E000
00E000
00E000
00E000
0FFE00
000000
07FE00
07FE00
ENDCHAR
STARTCHAR uni1E6F
ENCODING 7791
SWIDTH 344 0
DWIDTH 11 0
BBX 10 24 2 -3
BITMAP
0800
1800
1800
3800
FF80
3800
3800
3800
3800
3800
3800
3800
3800
3800
3800
3800
3800
3800
3C00
1FC0
0E00
0000
FFC0
FFC0
ENDCHAR
STARTCHAR uni1E70
ENCODING 7792
SWIDTH 621 0
DWIDTH 21 0
BBX 19 31 1 -7
BITMAP
FFFFE0
E0E0E0
C0E060
80E020
80E020
80E020
00E000
00E000
00E000
00E000
00E000
00E000
00E000
00E000
00E000
00E000
00E000
00E000
00E000
00E000
00E000
00E000
00E000
0FFE00
000000
006000
00F000
01F800
019800
030C00
040200
ENDCHAR
STARTCHAR uni1E71
ENCODING 7793
SWIDTH 344 0
DWIDTH 11 0
BBX 10 28 2 -7
BITMAP
0800
1800
1800
3800
FF80
3800
3800
3800
3800
3800
3800
3800
3800
3800
3800
3800
3800
3800
3C00
1FC0
0E00
0000
0C00
1E00
3F00
3300
6180
8040
ENDCHAR
STARTCHAR uni1E72
ENCODING 7794
SWIDTH 791 0
DWIDTH 26 0
BBX 24 29 1 -5
BITMAP
FF81FF
1C0038
1C0038
1C0038
1C0038
1C0038
1C0038
1C0038
1C0038
1C0038
1C0038
1C0038
1C0038
1C0038
1C0038
1C0038
1C0038
1C0038
0C0030
0E0070
0E0070
0700E0
0381C0
007E00
000000
00C180
01E3C0
01E3C0
00C180
ENDCHAR
STARTCHAR uni1E73
ENCODING 7795
SWIDTH 606 0
DWIDTH 20 0
BBX 18 22 1 -5
BITMAP
380700
F81F00
380700
380700
380700
380700
380700
380700
380700
380700
380700
380700
380700
3C0F00
1E1F00
1FE700
0707C0
000000
060C00
0F1E00
0F1E00
060C00
ENDCHAR
STARTCHAR uni1E74
ENCODING 7796
SWIDTH 791 0
DWIDTH 26 0
BBX 24 29 1 -5
BITMAP
FF81FF
1C0038
1C0038
1C0038
1C0038
1C0038
1C0038
1C0038
1C0038
1C0038
1C0038
1C0038
1C0038
1C0038
1C0038
1C0038
1C0038
1C0038
0C0030
0E0070
0E0070
0700E0
0381C0
007E00
000000
006040
01FF80
013F80
020200
ENDCHAR
STARTCHAR uni1E75
ENCODING 7797
SWIDTH 606 0
DWIDTH 20 0
BBX 18 22 1 -5
BITMAP
380700
F81F00
380700
380700
380700
380700
380700
380700
380700
380700
380700
380700
380700
3C0F00
1E1F00
1FE700
0707C0
000000
030200
0FFC00
09FC00
101000
ENDCHAR
STARTCHAR uni1E76
ENCODING 7798
SWIDTH 791 0
DWIDTH 26 0
BBX 24 31 1 -7
BITMAP
FF81FF
1C0038
1C0038
1C0038
1C0038
1C0038
1C0038
1C0038
1C0038
1C0038
1C0038
1C0038
1C0038
1C0038
1C0038
1C0038
1C0038
1C0038
0C0030
0E0070
0E0070
0700E0
0381C0
007E00
000000
001800
003C00
007E00
006600
00C300
010080
ENDCHAR
STARTCHAR uni1E77
ENCODING 7799
SWIDTH 606 0
DWIDTH 20 0
BBX 18 24 1 -7
BITMAP
380700
F81F00
380700
380700
380700
380700
380700
380700
380700
380700
380700
380700
380700
3C0F00
1E1F00
1FE700
0707C0
000000
006000
00F000
01F800
019800
030C00
040200
ENDCHAR
STARTCHAR uni1E78
ENCODING 7800
SWIDTH 791 0
DWIDTH 26 0
BBX 24 36 1 0
BITMAP
000100
000380
000700
000E00
001800
002000
000000
006040
01FF80
013F80
020200
000000
FF81FF
1C0038
1C0038
1C0038
1C0038
1C0038
1C0038
1C0038
1C0038
1C0038
1C0038
1C0038
1C0038
1C0038
1C0038
1C0038
1C0038
1C0038
0C0030
0E0070
0E0070
0700E0
0381C0
007E00
ENDCHAR
STARTCHAR uni1E79
ENCODING 7801
SWIDTH 606 0
DWIDTH 20 0
BBX 18 29 1 0
BITMAP
000800
001C00
003800
007000
00C000
010000
000000
030200
0FFC00
09FC00
101000
000000
380700
F81F00
380700
380700
380700
380700
380700
380700
380700
380700
380700
380700
380700
3C0F00
1E1F00
1FE700
0707C0
ENDCHAR
STARTCHAR uni1E7A
ENCODING 7802
SWIDTH 791 0
DWIDTH 26 0
BBX 24 32 1 0
BITMAP
00C180
01E3C0
01E3C0
00C180
000000
01FF80
01FF80
000000
FF81FF
1C0038
1C0038
1C0038
1C0038
1C0038
1C0038
1C0038
1C0038
1C0038
1C0038
1C0038
1C0038
1C0038
1C0038
1C0038
1C0038
1C0038
0C0030
0E0070
0E0070
0700E0
0381C0
007E00
ENDCHAR
STARTCHAR uni1E7B
ENCODING 7803
SWIDTH 606 0
DWIDTH 20 0
BBX 18 25 1 0
BITMAP
0C1800
1E3C00
1E3C00
0C1800
000000
0FFC00
0FFC00
000000
380700
F81F00
380700
380700
380700
380700
380700
380700
380700
380700
380700
380700
380700
3C0F00
1E1F00
1FE700
0707C0
ENDCHAR
STARTCHAR uni1E7C
ENCODING 7804
SWIDTH 634 0
DWIDTH 21 0
BBX 23 29 0 0
BITMAP
00C080
03FF00
027F00
040400
000000
FF80FE
3C0038
1C0030
1E0030
1E0060
0E0060
0F0060
0700C0
0700C0
0780C0
038080
038180
03C100
01C300
01C300
01E200
00E600
00E600
00F400
007C00
007C00
007800
003800
003800
ENDCHAR
STARTCHAR uni1E7D
ENCODING 7805
SWIDTH 504 0
DWIDTH 17 0
BBX 18 22 0 0
BITMAP
060400
1FF800
13F800
202000
000000
FF1FC0
3C0300
1C0600
1C0600
1C0600
0E0400
0E0C00
0E0800
070800
071800
071000
039000
03B000
03A000
01E000
01E000
01C000
ENDCHAR
STARTCHAR uni1E7E
ENCODING 7806
SWIDTH 634 0
DWIDTH 21 0
BBX 23 29 0 -5
BITMAP
FF80FE
3C0038
1C0030
1E0030
1E0060
0E0060
0F0060
0700C0
0700C0
0780C0
038080
038180
03C100
01C300
01C300
01E200
00E600
00E600
00F400
007C00
007C00
007800
003800
003800
000000
003000
007800
007800
003000
ENDCHAR
STARTCHAR uni1E7F
ENCODING 7807
SWIDTH 504 0
DWIDTH 17 0
BBX 18 22 0 -5
BITMAP
FF1FC0
3C0300
1C0600
1C0600
1C0600
0E0400
0E0C00
0E0800
070800
071800
071000
039000
03B000
03A000
01E000
01E000
01C000
000000
00C000
01E000
01E000
00C000
ENDCHAR
STARTCHAR Wgrave
ENCODING 7808
SWIDTH 940 0
DWIDTH 31 0
BBX 33 31 0 0
BITMAP
0008000000
001C000000
000E000000
0007000000
0001800000
0000400000
0000000000
FF00007F80
3C01C00E00
1C01C00C00
1C01E00C00
1C03E00800
1E03E01800
0E03601800
0E02701800
0E06701000
0706303000
0706383000
070C383000
070C382000
038C1C2000
03881C6000
03981C4000
03980E4000
01D80E4000
01D00EC000
01F00F8000
01F0078000
00F0078000
00E0078000
00E0030000
ENDCHAR
STARTCHAR wgrave
ENCODING 7809
SWIDTH 768 0
DWIDTH 26 0
BBX 27 24 0 0
BITMAP
00400000
00E00000
00700000
00380000
000C0000
00020000
00000000
FE000FE0
380E0180
380E0100
1C0F0300
1C1F0300
1C170200
1C138600
0E338600
0E23C400
0E21C400
0721CC00
0761E800
0740E800
0740E800
03C0F000
03807000
03807000
ENDCHAR
STARTCHAR Wacute
ENCODING 7810
SWIDTH 940 0
DWIDTH 31 0
BBX 33 31 0 0
BITMAP
0000100000
0000380000
0000700000
0000E00000
0001800000
0002000000
0000000000
FF00007F80
3C01C00E00
1C01C00C00
1C01E00C00
1C03E00800
1E03E01800
0E03601800
0E02701800
0E06701000
0706303000
0706383000
070C383000
070C382000
038C1C2000
03881C6000
03981C4000
03980E4000
01D80E4000
01D00EC000
01F00F8000
01F0078000
00F0078000
00E0078000
00E0030000
ENDCHAR
STARTCHAR wacute
ENCODING 7811
SWIDTH 768 0
DWIDTH 26 0
BBX 27 24 0 0
BITMAP
00008000
0001C000
00038000
00070000
000C0000
00100000
00000000
FE000FE0
380E0180
380E0100
1C0F0300
1C1F0300
1C170200
1C138600
0E338600
0E23C400
0E21C400
0721CC00
0761E800
0740E800
0740E800
03C0F000
03807000
03807000
ENDCHAR
STARTCHAR Wdieresis
ENCODING 7812
SWIDTH 940 0
DWIDTH 31 0
BBX 33 29 0 0
BITMAP
0018300000
003C780000
003C780000
0018300000
0000000000
FF00007F80
3C01C00E00
1C01C00C00
1C01E00C00
1C03E00800
1E03E01800
0E03601800
0E02701800
0E06701000
0706303000
0706383000
070C383000
070C382000
038C1C2000
03881C6000
03981C4000
03980E4000
01D80E4000
01D00EC000
01F00F8000
01F0078000
00F0078000
00E0078000
00E0030000
ENDCHAR
STARTCHAR wdieresis
ENCODING 7813
SWIDTH 768 0
DWIDTH 26 0
BBX 27 22 0 0
BITMAP
00C18000
01E3C000
01E3C000
00C18000
00000000
FE000FE0
380E0180
380E0100
1C0F0300
1C1F0300
1C170200
1C138600
0E338600
0E23C400
0E21C400
0721CC00
0761E800
0740E800
0740E800
03C0F000
03807000
03807000
ENDCHAR
STARTCHAR uni1E86
ENCODING 7814
SWIDTH 940 0
DWIDTH 31 0
BBX 33 29 0 0
BITMAP
0001800000
0003C00000
0003C00000
0001800000
0000000000
FF00007F80
3C01C00E00
1C01C00C00
1C01E00C00
1C03E00800
1E03E01800
0E03601800
0E02701800
0E06701000
0706303000
0706383000
070C383000
070C382000
038C1C2000
03881C6000
03981C4000
03980E4000
01D80E4000
01D00EC000
01F00F8000
01F0078000
00F0078000
00E0078000
00E0030000
ENDCHAR
STARTCHAR uni1E87
ENCODING 7815
SWIDTH 768 0
DWIDTH 26 0
BBX 27 22 0 0
BITMAP
000C0000
001E0000
001E0000
000C0000
00000000
FE000FE0
380E0180
380E0100
1C0F0300
1C1F0300
1C170200
1C138600
0E338600
0E23C400
0E21C400
0721CC00
0761E800
0740E800
0740E800
03C0F000
03807000
03807000
ENDCHAR
STARTCHAR uni1E88
ENCODING 7816
SWIDTH 940 0
DWIDTH 31 0
BBX 33 29 0 -5
BITMAP
FF00007F80
3C01C00E00
1C01C00C00
1C01E00C00
1C03E00800
1E03E01800
0E03601800
0E02701800
0E06701000
0706303000
0706383000
070C383000
070C382000
038C1C2000
03881C6000
03981C4000
03980E4000
01D80E4000
01D00EC000
01F00F8000
01F0078000
00F0078000
00E0078000
00E0030000
0000000000
0001800000
0003C00000
0003C00000
0001800000
ENDCHAR
STARTCHAR uni1E89
ENCODING 7817
SWIDTH 768 0
DWIDTH 26 0
BBX 27 22 0 -5
BITMAP
FE000FE0
380E0180
380E0100
1C0F0300
1C1F0300
1C170200
1C138600
0E338600
0E23C400
0E21C400
0721CC00
0761E800
0740E800
0740E800
03C0F000
03807000
03807000
00000000
000C0000
001E0000
001E0000
000C0000
ENDCHAR
STARTCHAR uni1E8A
ENCODING 7818
SWIDTH 624 0
DWIDTH 21 0
BBX 22 29 0 0
BITMAP
006000
00F000
00F000
006000
000000
FF03F8
3C00E0
1C00C0
0E0180
0F0300
070600
078400
03CC00
01D800
01F000
00F000
00F000
00F800
00FC00
01FC00
039E00
030E00
070F00
060780
0E0780
1C03C0
1801E0
3801E0
FF07FC
ENDCHAR
STARTCHAR uni1E8B
ENCODING 7819
SWIDTH 486 0
DWIDTH 16 0
BBX 17 22 0 0
BITMAP
018000
03C000
03C000
018000
000000
FE3F00
3C0C00
1C1800
1E3000
0F3000
076000
07C000
03C000
01C000
03E000
06E000
067000
0C7800
0C3800
181C00
381E00
FC7F80
ENDCHAR
STARTCHAR uni1E8C
ENCODING 7820
SWIDTH 624 0
DWIDTH 21 0
BBX 22 29 0 0
BITMAP
030600
078F00
078F00
030600
000000
FF03F8
3C00E0
1C00C0
0E0180
0F0300
070600
078400
03CC00
01D800
01F000
00F000
00F000
00F800
00FC00
01FC00
039E00
030E00
070F00
060780
0E0780
1C03C0
1801E0
3801E0
FF07FC
ENDCHAR
STARTCHAR uni1E8D
ENCODING 7821
SWIDTH 486 0
DWIDTH 16 0
BBX 17 22 0 0
BITMAP
183000
3C7800
3C7800
183000
000000
FE3F00
3C0C00
1C1800
1E3000
0F3000
076000
07C000
03C000
01C000
03E000
06E000
067000
0C7800
0C3800
181C00
381E00
FC7F80
ENDCHAR
STARTCHAR uni1E8E
ENCODING 7822
SWIDTH 588 0
DWIDTH 20 0
BBX 21 29 0 0
BITMAP
006000
00F000
00F000
006000
000000
FF83F8
3C00E0
1C00C0
1E0180
0E0180
0F0300
070300
078200
038600
03C400
01CC00
01E800
00F800
00F000
007000
007000
007000
007000
007000
007000
007000
007000
007000
07FE00
ENDCHAR
STARTCHAR uni1E8F
ENCODING 7823
SWIDTH 506 0
DWIDTH 17 0
BBX 17 30 0 -8
BITMAP
018000
03C000
03C000
018000
000000
FF1F80
3C0600
3C0600
1C0400
1E0C00
0E0C00
0E0800
0F0800
071800
071000
039000
03B000
03A000
01E000
01E000
01E000
00C000
00C000
00C000
008000
008000
110000
390000
3E0000
1C0000
ENDCHAR
STARTCHAR uni1E90
ENCODING 7824
SWIDTH 610 0
DWIDTH 20 0
BBX 19 31 0 0
BITMAP
003000
007800
00FC00
00CC00
018600
020100
000000
3FFFE0
3803E0
3003C0
200780
200F80
200F00
001E00
003E00
003C00
007800
007800
00F000
01E000
01E000
03C000
078000
078000
0F0000
1E0020
1E0020
3C0020
780060
7801E0
FFFFE0
ENDCHAR
STARTCHAR uni1E91
ENCODING 7825
SWIDTH 480 0
DWIDTH 16 0
BBX 14 24 1 0
BITMAP
0180
03C0
07E0
0660
0C30
1008
0000
7FFC
703C
6078
40F0
40F0
01E0
03C0
0380
0780
0F00
0E00
1E00
3C04
3804
780C
F03C
FFFC
ENDCHAR
STARTCHAR uni1E92
ENCODING 7826
SWIDTH 610 0
DWIDTH 20 0
BBX 19 29 0 -5
BITMAP
3FFFE0
3803E0
3003C0
200780
200F80
200F00
001E00
003E00
003C00
007800
007800
00F000
01E000
01E000
03C000
078000
078000
0F0000
1E0020
1E0020
3C0020
780060
7801E0
FFFFE0
000000
00C000
01E000
01E000
00C000
ENDCHAR
STARTCHAR uni1E93
ENCODING 7827
SWIDTH 480 0
DWIDTH 16 0
BBX 14 22 1 -5
BITMAP
7FFC
703C
6078
40F0
40F0
01E0
03C0
0380
0780
0F00
0E00
1E00
3C04
3804
780C
F03C
FFFC
0000
0300
0780
0780
0300
ENDCHAR
STARTCHAR uni1E94
ENCODING 7828
SWIDTH 610 0
DWIDTH 20 0
BBX 19 27 0 -3
BITMAP
3FFFE0
3803E0
3003C0
200780
200F80
200F00
001E00
003E00
003C00
007800
007800
00F000
01E000
01E000
03C000
078000
078000
0F0000
1E0020
1E0020
3C0020
780060
7801E0
FFFFE0
000000
0FFC00
0FFC00
ENDCHAR
STARTCHAR uni1E95
ENCODING 7829
SWIDTH 480 0
DWIDTH 16 0
BBX 14 20 1 -3
BITMAP
7FFC
703C
6078
40F0
40F0
01E0
03C0
0380
0780
0F00
0E00
1E00
3C04
3804
780C
F03C
FFFC
0000
3FF0
3FF0
ENDCHAR
STARTCHAR uni1E96
ENCODING 7830
SWIDTH 607 0
DWIDTH 20 0
BBX 18 28 1 -3
BITMAP
180000
F80000
380000
380000
380000
380000
380000
380000
387800
39FE00
3E1E00
3C0F00
380700
380700
380700
380700
380700
380700
380700
380700
380700
380700
380700
380700
FF3FC0
000000
0FFC00
0FFC00
ENDCHAR
STARTCHAR uni1E97
ENCODING 7831
SWIDTH 344 0
DWIDTH 11 0
BBX 11 26 1 0
BITMAP
60C0
F1E0
F1E0
60C0
0000
0400
0C00
0C00
1C00
7FC0
1C00
1C00
1C00
1C00
1C00
1C00
1C00
1C00
1C00
1C00
1C00
1C00
1C00
1E00
0FE0
0700
ENDCHAR
STARTCHAR uni1E98
ENCODING 7832
SWIDTH 768 0
DWIDTH 26 0
BBX 27 25 0 0
BITMAP
001C0000
00220000
00630000
00630000
00630000
00220000
001C0000
00000000
FE000FE0
380E0180
380E0100
1C0F0300
1C1F0300
1C170200
1C138600
0E338600
0E23C400
0E21C400
0721CC00
0761E800
0740E800
0740E800
03C0F000
03807000
03807000
ENDCHAR
STARTCHAR uni1E99
ENCODING 7833
SWIDTH 506 0
DWIDTH 17 0
BBX 17 33 0 -8
BITMAP
038000
044000
0C6000
0C6000
0C6000
044000
038000
000000
FF1F80
3C0600
3C0600
1C0400
1E0C00
0E0C00
0E0800
0F0800
071800
071000
039000
03B000
03A000
01E000
01E000
01E000
00C000
00C000
00C000
008000
008000
110000
390000
3E0000
1C0000
ENDCHAR
STARTCHAR uni1EA0
ENCODING 7840
SWIDTH 635 0
DWIDTH 21 0
BBX 23 29 -1 -5
BITMAP
003800
003800
003C00
005C00
005C00
004E00
00CE00
008E00
008F00
018700
010700
010780
030380
030380
07FFC0
0601C0
0401C0
0C01E0
0C00E0
0C00E0
1800F0
180070
380078
FF03FE
000000
001800
003C00
003C00
001800
ENDCHAR
STARTCHAR uni1EA1
ENCODING 7841
SWIDTH 523 0
DWIDTH 17 0
BBX 15 22 2 -5
BITMAP
07C0
38E0
F0F0
E070
6070
0070
01F0
0770
3C70
7070
E070
E070
E070
E070
70F0
7F7E
3C38
0000
0300
0780
0780
0300
ENDCHAR
STARTCHAR uni1EA4
ENCODING 7844
SWIDTH 635 0
DWIDTH 21 0
BBX 23 36 -1 0
BITMAP
000200
000700
000E00
001C00
003000
004000
000000
001000
003C00
007E00
01C300
010080
003800
003800
003C00
005C00
005C00
004E00
00CE00
008E00
008F00
018700
010700
010780
030380
030380
07FFC0
0601C0
0401C0
0C01E0
0C00E0
0C00E0
1800F0
180070
380078
FF03FE
ENDCHAR
STARTCHAR uni1EA5
ENCODING 7845
SWIDTH 523 0
DWIDTH 17 0
BBX 15 31 2 0
BITMAP
0020
0070
00E0
01C0
0300
0400
0000
0200
0700
0F80
18C0
3060
2020
0000
07C0
38E0
F0F0
E070
6070
0070
00F0
0770
1C70
7070
E070
E070
E070
E070
70F0
7F7E
3C38
ENDCHAR
STARTCHAR uni1EA6
ENCODING 7846
SWIDTH 635 0
DWIDTH 21 0
BBX 23 36 -1 0
BITMAP
008000
01C000
00E000
007000
001800
000400
000000
001000
003C00
007E00
01C300
010080
003800
003800
003C00
005C00
005C00
004E00
00CE00
008E00
008F00
018700
010700
010780
030380
030380
07FFC0
0601C0
0401C0
0C01E0
0C00E0
0C00E0
1800F0
180070
380078
FF03FE
ENDCHAR
STARTCHAR uni1EA7
ENCODING 7847
SWIDTH 523 0
DWIDTH 17 0
BBX 15 31 2 0
BITMAP
1000
3800
1C00
0E00
0300
0080
0000
0200
0700
0F80
18C0
3060
2020
0000
07C0
38E0
F0F0
E070
6070
0070
00F0
0770
1C70
7070
E070
E070
E070
E070
70F0
7F7E
3C38
ENDCHAR
STARTCHAR uni1EAA
ENCODING 7850
SWIDTH 635 0
DWIDTH 21 0
BBX 23 34 -1 0
BITMAP
00C080
03FF00
027F00
040400
000000
001000
003C00
007E00
01C300
010080
003800
003800
003C00
005C00
005C00
004E00
00CE00
008E00
008F00
018700
010700
010780
030380
030380
07FFC0
0601C0
0401C0
0C01E0
0C00E0
0C00E0
1800F0
180070
380078
FF03FE
ENDCHAR
STARTCHAR uni1EAB
ENCODING 7851
SWIDTH 523 0
DWIDTH 17 0
BBX 15 29 2 0
BITMAP
0C08
3FF0
27F0
4040
0000
0200
0700
0F80
18C0
3060
2020
0000
07C0
38E0
F0F0
E070
6070
0070
00F0
0770
1C70
7070
E070
E070
E070
E070
70F0
7F7E
3C38
ENDCHAR
STARTCHAR uni1EAC
ENCODING 7852
SWIDTH 635 0
DWIDTH 21 0
BBX 23 36 -1 -5
BITMAP
001800
003C00
007E00
006600
00C300
010080
000000
003800
003800
003C00
005C00
005C00
004E00
00CE00
008E00
008F00
018700
010700
010780
030380
030380
07FFC0
0601C0
0401C0
0C01E0
0C00E0
0C00E0
1800F0
180070
380078
FF03FE
000000
001800
003C00
003C00
001800
ENDCHAR
STARTCHAR uni1EAD
ENCODING 7853
SWIDTH 523 0
DWIDTH 17 0
BBX 15 29 2 -5
BITMAP
0300
0780
0FC0
0CC0
1860
2010
0000
07C0
38E0
F0F0
E070
6070
0070
01F0
0770
3C70
7070
E070
E070
E070
E070
70F0
7F7E
3C38
0000
0300
0780
0780
0300
ENDCHAR
STARTCHAR uni1EAE
ENCODING 7854
SWIDTH 635 0
DWIDTH 21 0
BBX 23 37 -1 0
BITMAP
000200
000700
000E00
001C00
003000
004000
000000
010100
010100
008200
00FE00
007C00
000000
003800
003800
003C00
005C00
005C00
004E00
00CE00
008E00
008F00
018700
010700
010780
030380
030380
07FFC0
0601C0
0401C0
0C01E0
0C00E0
0C00E0
1800F0
180070
380078
FF03FE
ENDCHAR
STARTCHAR uni1EAF
ENCODING 7855
SWIDTH 523 0
DWIDTH 17 0
BBX 15 30 2 0
BITMAP
0020
0070
00E0
01C0
0300
0400
0000
2020
2020
1040
1FC0
0F80
0000
07C0
38E0
F0F0
E070
6070
0070
01F0
0770
3C70
7070
E070
E070
E070
E070
70F0
7F7E
3C38
ENDCHAR
STARTCHAR uni1EB0
ENCODING 7856
SWIDTH 635 0
DWIDTH 21 0
BBX 23 37 -1 0
BITMAP
008000
01C000
00E000
007000
001800
000400
000000
010100
010100
008200
00FE00
007C00
000000
003800
003800
003C00
005C00
005C00
004E00
00CE00
008E00
008F00
018700
010700
010780
030380
030380
07FFC0
0601C0
0401C0
0C01E0
0C00E0
0C00E0
1800F0
180070
380078
FF03FE
ENDCHAR
STARTCHAR uni1EB1
ENCODING 7857
SWIDTH 523 0
DWIDTH 17 0
BBX 15 30 2 0
BITMAP
1000
3800
1C00
0E00
0300
0080
0000
2020
2020
1040
1FC0
0F80
0000
07C0
38E0
F0F0
E070
6070
0070
01F0
0770
3C70
7070
E070
E070
E070
E070
70F0
7F7E
3C38
ENDCHAR
STARTCHAR uni1EB4
ENCODING 7860
SWIDTH 635 0
DWIDTH 21 0
BBX 23 35 -1 0
BITMAP
00C080
03FF00
027F00
040400
000000
010100
010100
008200
00FE00
007C00
000000
003800
003800
003C00
005C00
005C00
004E00
00CE00
008E00
008F00
018700
010700
010780
030380
030380
07FFC0
0601C0
0401C0
0C01E0
0C00E0
0C00E0
1800F0
180070
380078
FF03FE
ENDCHAR
STARTCHAR uni1EB5
ENCODING 7861
SWIDTH 523 0
DWIDTH 17 0
BBX 15 28 2 0
BITMAP
0C08
3FF0
27F0
4040
0000
2020
2020
1040
1FC0
0F80
0000
07C0
38E0
F0F0
E070
6070
0070
01F0
0770
3C70
7070
E070
E070
E070
E070
70F0
7F7E
3C38
ENDCHAR
STARTCHAR uni1EB6
ENCODING 7862
SWIDTH 635 0
DWIDTH 21 0
BBX 23 35 -1 -5
BITMAP
010100
010100
008200
00FE00
007C00
000000
003800
003800
003C00
005C00
005C00
004E00
00CE00
008E00
008F00
018700
010700
010780
030380
030380
07FFC0
0601C0
0401C0
0C01E0
0C00E0
0C00E0
1800F0
180070
380078
FF03FE
000000
001800
003C00
003C00
001800
ENDCHAR
STARTCHAR uni1EB7
ENCODING 7863
SWIDTH 523 0
DWIDTH 17 0
BBX 15 28 2 -5
BITMAP
1010
1010
0820
0FE0
07C0
0000
07C0
38E0
F0F0
E070
6070
0070
01F0
0770
3C70
7070
E070
E070
E070
E070
70F0
7F7E
3C38
0000
0300
0780
0780
0300
ENDCHAR
STARTCHAR uni1EB8
ENCODING 7864
SWIDTH 606 0
DWIDTH 20 0
BBX 18 29 1 -5
BITMAP
FFFF80
1C0380
1C0180
1C0080
1C0080
1C0000
1C0000
1C0000
1C0200
1C0200
1C0600
1FFE00
1C0600
1C0200
1C0200
1C0000
1C0000
1C0000
1C0040
1C00C0
1C00C0
1C01C0
1E0380
FFFF80
000000
00C000
01E000
01E000
00C000
ENDCHAR
STARTCHAR uni1EB9
ENCODING 7865
SWIDTH 514 0
DWIDTH 17 0
BBX 14 22 2 -5
BITMAP
0780
1C70
3038
7018
601C
E01C
E01C
FFFC
E000
E000
E000
E000
700C
7808
3C38
1FF0
07C0
0000
0300
0780
0780
0300
ENDCHAR
STARTCHAR uni1EBC
ENCODING 7868
SWIDTH 606 0
DWIDTH 20 0
BBX 18 29 1 0
BITMAP
060400
1FF800
13F800
202000
000000
FFFF80
1C0380
1C0180
1C0080
1C0080
1C0000
1C0000
1C0000
1C0200
1C0200
1C0600
1FFE00
1C0600
1C0200
1C0200
1C0000
1C0000
1C0000
1C0040
1C00C0
1C00C0
1C01C0
1E0380
FFFF80
ENDCHAR
STARTCHAR uni1EBD
ENCODING 7869
SWIDTH 514 0
DWIDTH 17 0
BBX 14 22 2 0
BITMAP
0C08
3FF0
27F0
4040
0000
0780
1C70
3038
7018
601C
E01C
E01C
FFFC
E000
E000
E000
E000
700C
7808
3C38
1FF0
07C0
ENDCHAR
STARTCHAR uni1EBE
ENCODING 7870
SWIDTH 606 0
DWIDTH 20 0
BBX 18 36 1 0
BITMAP
000800
001C00
003800
007000
00C000
010000
000000
004000
01E000
03F000
061C00
080400
FFFF80
1C0380
1C0180
1C0080
1C0080
1C0000
1C0000
1C0000
1C0200
1C0200
1C0600
1FFE00
1C0600
1C0200
1C0200
1C0000
1C0000
1C0000
1C0040
1C00C0
1C00C0
1C01C0
1E0380
FFFF80
ENDCHAR
STARTCHAR uni1EBF
ENCODING 7871
SWIDTH 514 0
DWIDTH 17 0
BBX 14 31 2 0
BITMAP
0020
0070
00E0
01C0
0300
0400
0000
0100
0780
0FC0
0C60
1830
2010
0000
0780
1C70
3038
7018
601C
E01C
E01C
FFFC
E000
E000
E000
E000
700C
7808
3C38
1FF0
07C0
ENDCHAR
STARTCHAR uni1EC0
ENCODING 7872
SWIDTH 606 0
DWIDTH 20 0
BBX 18 36 1 0
BITMAP
040000
0E0000
070000
038000
00C000
002000
000000
004000
01E000
03F000
061C00
080400
FFFF80
1C0380
1C0180
1C0080
1C0080
1C0000
1C0000
1C0000
1C0200
1C0200
1C0600
1FFE00
1C0600
1C0200
1C0200
1C0000
1C0000
1C0000
1C0040
1C00C0
1C00C0
1C01C0
1E0380
FFFF80
ENDCHAR
STARTCHAR uni1EC1
ENCODING 7873
SWIDTH 514 0
DWIDTH 17 0
BBX 14 31 2 0
BITMAP
1000
3800
1C00
0E00
0300
0080
0000
0100
0780
0FC0
0C60
1830
2010
0000
0780
1C70
3038
7018
601C
E01C
E01C
FFFC
E000
E000
E000
E000
700C
7808
3C38
1FF0
07C0
ENDCHAR
STARTCHAR uni1EC4
ENCODING 7876
SWIDTH 606 0
DWIDTH 20 0
BBX 18 34 1 0
BITMAP
030200
0FFC00
09FC00
101000
000000
004000
01E000
03F000
061C00
080400
FFFF80
1C0380
1C0180
1C0080
1C0080
1C0000
1C0000
1C0000
1C0200
1C0200
1C0600
1FFE00
1C0600
1C0200
1C0200
1C0000
1C0000
1C0000
1C0040
1C00C0
1C00C0
1C01C0
1E0380
FFFF80
ENDCHAR
STARTCHAR uni1EC5
ENCODING 7877
SWIDTH 514 0
DWIDTH 17 0
BBX 14 29 2 0
BITMAP
0C08
3FF0
27F0
4040
0000
0100
0780
0FC0
0C60
1830
2010
0000
0780
1C70
3038
7018
601C
E01C
E01C
FFFC
E000
E000
E000
E000
700C
7808
3C38
1FF0
07C0
ENDCHAR
STARTCHAR uni1EC6
ENCODING 7878
SWIDTH 606 0
DWIDTH 20 0
BBX 18 36 1 -5
BITMAP
018000
03C000
07E000
066000
0C3000
100800
000000
FFFF80
1C0380
1C0180
1C0080
1C0080
1C0000
1C0000
1C0000
1C0200
1C0200
1C0600
1FFE00
1C0600
1C0200
1C0200
1C0000
1C0000
1C0000
1C0040
1C00C0
1C00C0
1C01C0
1E0380
FFFF80
000000
00C000
01E000
01E000
00C000
ENDCHAR
STARTCHAR uni1EC7
ENCODING 7879
SWIDTH 514 0
DWIDTH 17 0
BBX 14 29 2 -5
BITMAP
0300
0780
0FC0
0CC0
1860
2010
0000
0780
1C70
3038
7018
601C
E01C
E01C
FFFC
E000
E000
E000
E000
700C
7808
3C38
1FF0
07C0
0000
0300
0780
0780
0300
ENDCHAR
STARTCHAR uni1ECA
ENCODING 7882
SWIDTH 349 0
DWIDTH 12 0
BBX 9 29 1 -5
BITMAP
FF80
1C00
1C00
1C00
1C00
1C00
1C00
1C00
1C00
1C00
1C00
1C00
1C00
1C00
1C00
1C00
1C00
1C00
1C00
1C00
1C00
1C00
1C00
FF80
0000
0C00
1E00
1E00
0C00
ENDCHAR
STARTCHAR uni1ECB
ENCODING 7883
SWIDTH 291 0
DWIDTH 10 0
BBX 7 29 2 -5
BITMAP
30
78
78
30
00
00
00
38
F8
38
38
38
38
38
38
38
38
38
38
38
38
38
38
FE
00
18
3C
3C
18
ENDCHAR
STARTCHAR uni1ECC
ENCODING 7884
SWIDTH 762 0
DWIDTH 25 0
BBX 23 29 1 -5
BITMAP
00FE00
0783C0
0E00E0
1C0070
380038
380038
78003C
70001C
70001C
F0001E
F0001E
F0001E
F0001E
F0001E
F0001E
70001C
70001C
78003C
380038
380038
1C0070
0E00E0
0783C0
00FE00
000000
001800
003C00
003C00
001800
ENDCHAR
STARTCHAR uni1ECD
ENCODING 7885
SWIDTH 577 0
DWIDTH 19 0
BBX 15 22 2 -5
BITMAP
07C0
1830
3018
701C
701C
E00E
E00E
E00E
E00E
E00E
E00E
E00E
701C
701C
3018
1830
07C0
0000
0180
03C0
03C0
0180
ENDCHAR
STARTCHAR uni1ED0
ENCODING 7888
SWIDTH 762 0
DWIDTH 25 0
BBX 23 36 1 0
BITMAP
000200
000700
000E00
001C00
003000
004000
000000
001000
003800
00FE00
01C700
020080
00FE00
0783C0
0E00E0
1C0070
380038
380038
78003C
70001C
70001C
F0001E
F0001E
F0001E
F0001E
F0001E
F0001E
70001C
70001C
78003C
380038
380038
1C0070
0E00E0
0783C0
00FE00
ENDCHAR
STARTCHAR uni1ED1
ENCODING 7889
SWIDTH 577 0
DWIDTH 19 0
BBX 15 31 2 0
BITMAP
0020
0070
00E0
01C0
0300
0400
0000
0100
0380
07C0
0C60
1830
3018
0000
07C0
1830
3018
701C
701C
E00E
E00E
E00E
E00E
E00E
E00E
E00E
701C
701C
3018
1830
07C0
ENDCHAR
STARTCHAR uni1ED2
ENCODING 7890
SWIDTH 762 0
DWIDTH 25 0
BBX 23 36 1 0
BITMAP
008000
01C000
00E000
007000
001800
000400
000000
001000
003800
00FE00
01C700
020080
00FE00
0783C0
0E00E0
1C0070
380038
380038
78003C
70001C
70001C
F0001E
F0001E
F0001E
F0001E
F0001E
F0001E
70001C
70001C
78003C
380038
380038
1C0070
0E00E0
0783C0
00FE00
ENDCHAR
STARTCHAR uni1ED3
ENCODING 7891
SWIDTH 577 0
DWIDTH 19 0
BBX 15 31 2 0
BITMAP
0800
1C00
0E00
0700
0180
0040
0000
0100
0380
07C0
0C60
1830
3018
0000
07C0
1830
3018
701C
701C
E00E
E00E
E00E
E00E
E00E
E00E
E00E
701C
701C
3018
1830
07C0
ENDCHAR
STARTCHAR uni1ED6
ENCODING 7894
SWIDTH 762 0
DWIDTH 25 0
BBX 23 34 1 0
BITMAP
00C080
03FF00
027F00
040400
000000
001000
003800
00FE00
01C700
020080
00FE00
0783C0
0E00E0
1C0070
380038
380038
78003C
70001C
70001C
F0001E
F0001E
F0001E
F0001E
F0001E
F0001E
70001C
70001C
78003C
380038
380038
1C0070
0E00E0
0783C0
00FE00
ENDCHAR
STARTCHAR uni1ED7
ENCODING 7895
SWIDTH 577 0
DWIDTH 19 0
BBX 15 29 2 0
BITMAP
0C08
3FF0
27F0
4040
0000
0100
0380
07C0
0C60
1830
3018
0000
07C0
1830
3018
701C
701C
E00E
E00E
E00E
E00E
E00E
E00E
E00E
701C
701C
3018
1830
07C0
ENDCHAR
STARTCHAR uni1ED8
ENCODING 7896
SWIDTH 762 0
DWIDTH 25 0
BBX 23 36 1 -5
BITMAP
001800
003C00
007E00
006600
00C300
010080
000000
00FE00
0783C0
0E00E0
1C0070
380038
380038
78003C
70001C
70001C
F0001E
F0001E
F0001E
F0001E
F0001E
F0001E
70001C
70001C
78003C
380038
380038
1C0070
0E00E0
0783C0
00FE00
000000
001800
003C00
003C00
001800
ENDCHAR
STARTCHAR uni1ED9
ENCODING 7897
SWIDTH 577 0
DWIDTH 19 0
BBX 15 29 2 -5
BITMAP
0180
03C0
07E0
0660
0C30
1008
0000
07C0
1830
3018
701C
701C
E00E
E00E
E00E
E00E
E00E
E00E
E00E
701C
701C
3018
1830
07C0
0000
0180
03C0
03C0
0180
ENDCHAR
STARTCHAR uni1EDA
ENCODING 7898
SWIDTH 762 0
DWIDTH 25 0
BBX 26 31 1 0
BITMAP
00004000
0000E000
0001C000
00038000
00060000
00080000
00000000
00FE0380
0783C380
0E00E3C0
1C0071C0
38003980
38003980
78003D00
70001E00
70001C00
F0001E00
F0001E00
F0001E00
F0001E00
F0001E00
F0001E00
70001C00
70001C00
78003C00
38003800
38003800
1C007000
0E00E000
0783C000
00FE0000
ENDCHAR
STARTCHAR uni1EDB
ENCODING 7899
SWIDTH 577 0
DWIDTH 19 0
BBX 19 24 2 0
BITMAP
000400
000E00
001C00
003800
006000
008000
000000
07C1C0
1831C0
3019E0
701CE0
701CC0
E00EC0
E00E80
E00F00
E00E00
E00E00
E00E00
E00E00
701C00
701C00
301800
183000
07C000
ENDCHAR
STARTCHAR uni1EDC
ENCODING 7900
SWIDTH 762 0
DWIDTH 25 0
BBX 26 31 1 0
BITMAP
00200000
00700000
00380000
001C0000
00060000
00010000
00000000
00FE0380
0783C380
0E00E3C0
1C0071C0
38003980
38003980
78003D00
70001E00
70001C00
F0001E00
F0001E00
F0001E00
F0001E00
F0001E00
F0001E00
70001C00
70001C00
78003C00
38003800
38003800
1C007000
0E00E000
0783C000
00FE0000
ENDCHAR
STARTCHAR uni1EDD
ENCODING 7901
SWIDTH 577 0
DWIDTH 19 0
BBX 19 24 2 0
BITMAP
010000
038000
01C000
00E000
003000
000800
000000
07C1C0
1831C0
3019E0
701CE0
701CC0
E00EC0
E00E80
E00F00
E00E00
E00E00
E00E00
E00E00
701C00
701C00
301800
183000
07C000
ENDCHAR
STARTCHAR uni1EE0
ENCODING 7904
SWIDTH 762 0
DWIDTH 25 0
BBX 26 29 1 0
BITMAP
00181000
007FE000
004FE000
00808000
00000000
00FE0380
0783C380
0E00E3C0
1C0071C0
38003980
38003980
78003D00
70001E00
70001C00
F0001E00
F0001E00
F0001E00
F0001E00
F0001E00
F0001E00
70001C00
70001C00
78003C00
38003800
38003800
1C007000
0E00E000
0783C000
00FE0000
ENDCHAR
STARTCHAR uni1EE1
ENCODING 7905
SWIDTH 577 0
DWIDTH 19 0
BBX 19 22 2 0
BITMAP
018100
07FE00
04FE00
080800
000000
07C1C0
1831C0
3019E0
701CE0
701CC0
E00EC0
E00E80
E00F00
E00E00
E00E00
E00E00
E00E00
701C00
701C00
301800
183000
07C000
ENDCHAR
STARTCHAR uni1EE2
ENCODING 7906
SWIDTH 762 0
DWIDTH 25 0
BBX 26 29 1 -5
BITMAP
00FE0380
0783C380
0E00E3C0
1C0071C0
38003980
38003980
78003D00
70001E00
70001C00
F0001E00
F0001E00
F0001E00
F0001E00
F0001E00
F0001E00
70001C00
70001C00
78003C00
38003800
38003800
1C007000
0E00E000
0783C000
00FE0000
00000000
00180000
003C0000
003C0000
00180000
ENDCHAR
STARTCHAR uni1EE3
ENCODING 7907
SWIDTH 577 0
DWIDTH 19 0
BBX 19 22 2 -5
BITMAP
07C1C0
1831C0
3019E0
701CE0
701CC0
E00EC0
E00E80
E00F00
E00E00
E00E00
E00E00
E00E00
701C00
701C00
301800
183000
07C000
000000
018000
03C000
03C000
018000
ENDCHAR
STARTCHAR uni1EE4
ENCODING 7908
SWIDTH 791 0
DWIDTH 26 0
BBX 24 29 1 -5
BITMAP
FF81FF
1C0038
1C0038
1C0038
1C0038
1C0038
1C0038
1C0038
1C0038
1C0038
1C0038
1C0038
1C0038
1C0038
1C0038
1C0038
1C0038
1C0038
0C0030
0E0070
0E0070
0700E0
0381C0
007E00
000000
001800
003C00
003C00
001800
ENDCHAR
STARTCHAR uni1EE5
ENCODING 7909
SWIDTH 606 0
DWIDTH 20 0
BBX 18 22 1 -5
BITMAP
380700
F81F00
380700
380700
380700
380700
380700
380700
380700
380700
380700
380700
380700
3C0F00
1E1F00
1FE700
0707C0
000000
006000
00F000
00F000
006000
ENDCHAR
STARTCHAR uni1EE8
ENCODING 7912
SWIDTH 791 0
DWIDTH 26 0
BBX 27 31 1 0
BITMAP
00004000
0000E000
0001C000
00038000
00060000
00080000
00000000
FF81FFC0
1C0039C0
1C0039E0
1C0038E0
1C0038C0
1C0038C0
1C003880
1C003900
1C003A00
1C003800
1C003800
1C003800
1C003800
1C003800
1C003800
1C003800
1C003800
1C003800
0C003000
0E007000
0E007000
0700E000
0381C000
007E0000
ENDCHAR
STARTCHAR uni1EE9
ENCODING 7913
SWIDTH 606 0
DWIDTH 20 0
BBX 21 24 1 0
BITMAP
000200
000700
000E00
001C00
003000
004000
000000
380770
F81F70
380778
380738
380730
380730
380720
380740
380780
380700
380700
380700
380700
3C0F00
1E1F00
1FE700
0707C0
ENDCHAR
STARTCHAR uni1EEA
ENCODING 7914
SWIDTH 791 0
DWIDTH 26 0
BBX 27 31 1 0
BITMAP
00100000
00380000
001C0000
000E0000
00030000
00008000
00000000
FF81FFC0
1C0039C0
1C0039E0
1C0038E0
1C0038C0
1C0038C0
1C003880
1C003900
1C003A00
1C003800
1C003800
1C003800
1C003800
1C003800
1C003800
1C003800
1C003800
1C003800
0C003000
0E007000
0E007000
0700E000
0381C000
007E0000
ENDCHAR
STARTCHAR uni1EEB
ENCODING 7915
SWIDTH 606 0
DWIDTH 20 0
BBX 21 24 1 0
BITMAP
008000
01C000
00E000
007000
001800
000400
000000
380770
F81F70
380778
380738
380730
380730
380720
380740
380780
380700
380700
380700
380700
3C0F00
1E1F00
1FE700
0707C0
ENDCHAR
STARTCHAR uni1EEE
ENCODING 7918
SWIDTH 791 0
DWIDTH 26 0
BBX 27 29 1 0
BITMAP
00181000
007FE000
004FE000
00808000
00000000
FF81FFC0
1C0039C0
1C0039E0
1C0038E0
1C0038C0
1C0038C0
1C003880
1C003900
1C003A00
1C003800
1C003800
1C003800
1C003800
1C003800
1C003800
1C003800
1C003800
1C003800
0C003000
0E007000
0E007000
0700E000
0381C000
007E0000
ENDCHAR
STARTCHAR uni1EEF
ENCODING 7919
SWIDTH 606 0
DWIDTH 20 0
BBX 21 22 1 0
BITMAP
00C080
03FF00
027F00
040400
000000
380770
F81F70
380778
380738
380730
380730
380720
380740
380780
380700
380700
380700
380700
3C0F00
1E1F00
1FE700
0707C0
ENDCHAR
STARTCHAR uni1EF0
ENCODING 7920
SWIDTH 791 0
DWIDTH 26 0
BBX 27 29 1 -5
BITMAP
FF81FFC0
1C0039C0
1C0039E0
1C0038E0
1C0038C0
1C0038C0
1C003880
1C003900
1C003A00
1C003800
1C003800
1C003800
1C003800
1C003800
1C003800
1C003800
1C003800
1C003800
0C003000
0E007000
0E007000
0700E000
0381C000
007E0000
00000000
000C0000
001E0000
001E0000
000C0000
ENDCHAR
STARTCHAR uni1EF1
ENCODING 7921
SWIDTH 606 0
DWIDTH 20 0
BBX 21 22 1 -5
BITMAP
380770
F81F70
380778
380738
380730
380730
380720
380740
380780
380700
380700
380700
380700
3C0F00
1E1F00
1FE700
0707C0
000000
006000
00F000
00F000
006000
ENDCHAR
STARTCHAR Ygrave
ENCODING 7922
SWIDTH 588 0
DWIDTH 20 0
BBX 21 31 0 0
BITMAP
020000
070000
038000
01C000
006000
001000
000000
FF83F8
3C00E0
1C00C0
1E0180
0E0180
0F0300
070300
078200
038600
03C400
01CC00
01E800
00F800
00F000
007000
007000
007000
007000
007000
007000
007000
007000
007000
07FE00
ENDCHAR
STARTCHAR ygrave
ENCODING 7923
SWIDTH 506 0
DWIDTH 17 0
BBX 17 32 0 -8
BITMAP
080000
1C0000
0E0000
070000
018000
004000
000000
FF1F80
3C0600
3C0600
1C0400
1E0C00
0E0C00
0E0800
0F0800
071800
071000
039000
03B000
03A000
01E000
01E000
01E000
00C000
00C000
00C000
008000
008000
110000
390000
3E0000
1C0000
ENDCHAR
STARTCHAR uni1EF4
ENCODING 7924
SWIDTH 588 0
DWIDTH 20 0
BBX 21 29 0 -5
BITMAP
FF83F8
3C00E0
1C00C0
1E0180
0E0180
0F0300
070300
078200
038600
03C400
01CC00
01E800
00F800
00F000
007000
007000
007000
007000
007000
007000
007000
007000
007000
07FE00
000000
006000
00F000
00F000
006000
ENDCHAR
STARTCHAR uni1EF5
ENCODING 7925
SWIDTH 506 0
DWIDTH 17 0
BBX 17 30 0 -13
BITMAP
FF1F80
3C0600
3C0600
1C0400
1E0C00
0E0C00
0E0800
0F0800
071800
071000
039000
03B000
03A000
01E000
01E000
01E000
00C000
00C000
00C000
008000
008000
110000
390000
3E0000
1C0000
000000
030000
078000
078000
030000
ENDCHAR
STARTCHAR uni1EF8
ENCODING 7928
SWIDTH 588 0
DWIDTH 20 0
BBX 21 29 0 0
BITMAP
018100
07FE00
04FE00
080800
000000
FF83F8
3C00E0
1C00C0
1E0180
0E0180
0F0300
070300
078200
038600
03C400
01CC00
01E800
00F800
00F000
007000
007000
007000
007000
007000
007000
007000
007000
007000
07FE00
ENDCHAR
STARTCHAR uni1EF9
ENCODING 7929
SWIDTH 506 0
DWIDTH 17 0
BBX 17 30 0 -8
BITMAP
060400
1FF800
13F800
202000
000000
FF1F80
3C0600
3C0600
1C0400
1E0C00
0E0C00
0E0800
0F0800
071800
071000
039000
03B000
03A000
01E000
01E000
01E000
00C000
00C000
00C000
008000
008000
110000
390000
3E0000
1C0000
ENDCHAR
STARTCHAR uni2000
ENCODING 8192
SWIDTH 500 0
DWIDTH 17 0
BBX 1 1 0 0
BITMAP
00
ENDCHAR
STARTCHAR uni2001
ENCODING 8193
SWIDTH 1000 0
DWIDTH 33 0
BBX 1 1 0 0
BITMAP
00
ENDCHAR
STARTCHAR uni2002
ENCODING 8194
SWIDTH 500 0
DWIDTH 17 0
BBX 1 1 0 0
BITMAP
00
ENDCHAR
STARTCHAR uni2003
ENCODING 8195
SWIDTH 1000 0
DWIDTH 33 0
BBX 1 1 0 0
BITMAP
00
ENDCHAR
STARTCHAR uni2004
ENCODING 8196
SWIDTH 333 0
DWIDTH 11 0
BBX 1 1 0 0
BITMAP
00
ENDCHAR
STARTCHAR uni2005
ENCODING 8197
SWIDTH 250 0
DWIDTH 8 0
BBX 1 1 0 0
BITMAP
00
ENDCHAR
STARTCHAR uni2006
ENCODING 8198
SWIDTH 167 0
DWIDTH 6 0
BBX 1 1 0 0
BITMAP
00
ENDCHAR
STARTCHAR uni2007
ENCODING 8199
SWIDTH 530 0
DWIDTH 18 0
BBX 1 1 0 0
BITMAP
00
ENDCHAR
STARTCHAR uni2008
ENCODING 8200
SWIDTH 265 0
DWIDTH 9 0
BBX 1 1 0 0
BITMAP
00
ENDCHAR
STARTCHAR uni2009
ENCODING 8201
SWIDTH 200 0
DWIDTH 7 0
BBX 1 1 0 0
BITMAP
00
ENDCHAR
STARTCHAR uni200A
ENCODING 8202
SWIDTH 100 0
DWIDTH 3 0
BBX 1 1 0 0
BITMAP
00
ENDCHAR
STARTCHAR uni200B
ENCODING 8203
SWIDTH 0 0
DWIDTH 0 0
BBX 1 1 0 0
BITMAP
00
ENDCHAR
STARTCHAR uni2010
ENCODING 8208
SWIDTH 392 0
DWIDTH 13 0
BBX 8 2 3 7
BITMAP
FF
FF
ENDCHAR
STARTCHAR uni2011
ENCODING 8209
SWIDTH 392 0
DWIDTH 13 0
BBX 8 2 3 7
BITMAP
FF
FF
ENDCHAR
STARTCHAR figuredash
ENCODING 8210
SWIDTH 500 0
DWIDTH 17 0
BBX 17 2 0 7
BITMAP
FFFF80
FFFF80
ENDCHAR
STARTCHAR endash
ENCODING 8211
SWIDTH 500 0
DWIDTH 17 0
BBX 17 2 0 7
BITMAP
FFFF80
FFFF80
ENDCHAR
STARTCHAR emdash
ENCODING 8212
SWIDTH 1000 0
DWIDTH 33 0
BBX 33 2 0 7
BITMAP
FFFFFFFF80
FFFFFFFF80
ENDCHAR
STARTCHAR afii00208
ENCODING 8213
SWIDTH 1000 0
DWIDTH 33 0
BBX 33 2 0 7
BITMAP
FFFFFFFF80
FFFFFFFF80
ENDCHAR
STARTCHAR quoteleft
ENCODING 8216
SWIDTH 278 0
DWIDTH 9 0
BBX 5 9 2 16
BITMAP
08
10
20
60
60
E0
F0
70
70
ENDCHAR
STARTCHAR quoteright
ENCODING 8217
SWIDTH 278 0
DWIDTH 9 0
BBX 5 9 2 16
BITMAP
70
70
78
38
30
30
20
40
80
ENDCHAR
STARTCHAR quotesinglbase
ENCODING 8218
SWIDTH 278 0
DWIDTH 9 0
BBX 5 9 2 -4
BITMAP
70
70
78
38
30
30
20
40
80
ENDCHAR
STARTCHAR quotereversed
ENCODING 8219
SWIDTH 278 0
DWIDTH 9 0
BBX 5 9 2 16
BITMAP
70
70
F0
E0
60
60
20
10
08
ENDCHAR
STARTCHAR quotedblleft
ENCODING 8220
SWIDTH 458 0
DWIDTH 15 0
BBX 11 9 2 16
BITMAP
0820
1040
2080
6180
6180
E380
F3C0
71C0
60C0
ENDCHAR
STARTCHAR quotedblright
ENCODING 8221
SWIDTH 458 0
DWIDTH 15 0
BBX 11 9 2 16
BITMAP
61C0
71C0
79E0
38E0
30C0
30C0
2080
4100
8200
ENDCHAR
STARTCHAR quotedblbase
ENCODING 8222
SWIDTH 458 0
DWIDTH 15 0
BBX 11 9 2 -4
BITMAP
61C0
71C0
79E0
38E0
30C0
30C0
2080
4100
8200
ENDCHAR
STARTCHAR uni201F
ENCODING 8223
SWIDTH 458 0
DWIDTH 15 0
BBX 11 9 2 16
BITMAP
70C0
71C0
F3C0
E380
6180
6180
2080
1040
0820
ENDCHAR
STARTCHAR dagger
ENCODING 8224
SWIDTH 504 0
DWIDTH 17 0
BBX 13 28 2 -4
BITMAP
0700
0700
0700
0700
0700
0200
0200
FA38
FFF8
0200
0300
0700
0700
0700
0700
0700
0700
0700
0700
0600
0200
0200
0200
0200
0200
0200
0200
0200
ENDCHAR
STARTCHAR daggerdbl
ENCODING 8225
SWIDTH 488 0
DWIDTH 16 0
BBX 13 28 2 -4
BITMAP
0700
0700
0700
0700
0700
0200
0200
FFF8
E2F8
0200
0700
0700
0700
0700
0700
0700
0300
0200
FA38
FFF8
0200
0200
0300
0700
0700
0700
0700
0700
ENDCHAR
STARTCHAR bullet
ENCODING 8226
SWIDTH 409 0
DWIDTH 14 0
BBX 11 11 1 6
BITMAP
0E00
3F80
7FC0
7FC0
FFE0
FFE0
FFE0
7FC0
7FC0
3F80
0E00
ENDCHAR
STARTCHAR ellipsis
ENCODING 8230
SWIDTH 1000 0
DWIDTH 33 0
BBX 26 4 4 0
BITMAP
600C0180
F01E03C0
F01E03C0
600C0180
ENDCHAR
STARTCHAR perthousand
ENCODING 8240
SWIDTH 1208 0
DWIDTH 40 0
BBX 36 24 2 -1
BITMAP
1E00300000
6100600000
61FFE00000
C0C0C00000
C0C1800000
C0C1800000
C0C3000000
C0C3000000
C0C6000000
618C000000
638C000000
1E18780780
0019861860
0031861860
0063033030
0063033030
00C3033030
0083033030
0183033030
0303033030
0301861860
06018E18E0
0C00780780
0400000000
ENDCHAR
STARTCHAR guilsinglleft
ENCODING 8249
SWIDTH 257 0
DWIDTH 9 0
BBX 6 13 1 1
BITMAP
04
08
18
30
70
70
E0
70
30
30
18
08
04
ENDCHAR
STARTCHAR guilsinglright
ENCODING 8250
SWIDTH 257 0
DWIDTH 9 0
BBX 6 13 1 1
BITMAP
80
40
60
30
38
38
1C
38
30
30
60
40
80
ENDCHAR
STARTCHAR fraction
ENCODING 8260
SWIDTH 150 0
DWIDTH 5 0
BBX 15 25 -5 -1
BITMAP
0002
0006
0004
000C
0018
0018
0030
0030
0060
00C0
00C0
0180
0180
0300
0600
0600
0C00
0C00
1800
3000
3000
6000
6000
C000
4000
ENDCHAR
STARTCHAR oneinferior
ENCODING 8321
SWIDTH 380 0
DWIDTH 13 0
BBX 6 14 3 -8
BITMAP
30
F0
30
30
30
30
30
30
30
30
30
30
30
FC
ENDCHAR
STARTCHAR twoinferior
ENCODING 8322
SWIDTH 380 0
DWIDTH 13 0
BBX 11 14 1 -8
BITMAP
0E00
3380
61C0
61C0
21C0
0180
0380
0600
0C00
1800
2000
6060
7FC0
FFC0
ENDCHAR
STARTCHAR threeinferior
ENCODING 8323
SWIDTH 380 0
DWIDTH 13 0
BBX 10 14 1 -8
BITMAP
0E00
3380
61C0
61C0
01C0
0380
1E00
0300
0180
01C0
C1C0
E1C0
6380
1C00
ENDCHAR
STARTCHAR uni20A5
ENCODING 8357
SWIDTH 923 0
DWIDTH 31 0
BBX 29 24 2 -3
BITMAP
00006000
0000E000
0000C000
0000C000
3838C700
F9FFBFC0
3E0FC3C0
3C0781E0
380780E0
380700E0
380700E0
380700E0
380700E0
380700E0
380700E0
380F00E0
380F00E0
380F00E0
380F00E0
381F00E0
FF3FE7F8
00180000
00380000
00300000
ENDCHAR
STARTCHAR uni20A6
ENCODING 8358
SWIDTH 780 0
DWIDTH 26 0
BBX 24 24 1 0
BITMAP
FE00FF
1F003C
1F0018
1F8018
1BC018
1BC018
19E018
1FFFF8
1FFFF8
187818
183818
183C18
181E18
180E18
1FFFF8
1FFFF8
180398
1803D8
1801F8
1800F8
1800F8
180078
3C0038
FF0038
ENDCHAR
STARTCHAR uni20A9
ENCODING 8361
SWIDTH 940 0
DWIDTH 31 0
BBX 33 24 0 0
BITMAP
FF00007F80
3C01C00E00
1C01C00C00
1C01E00C00
1C03E00800
1E03E01800
0E03601800
0E7FFF9800
0E7FFF9000
0706303000
0706383000
070C383000
070C382000
038C1C2000
03FFFFE000
03FFFFC000
03980E4000
01D80E4000
01D00EC000
01F00F8000
01F0078000
00F0078000
00E0078000
00E0030000
ENDCHAR
STARTCHAR Euro
ENCODING 8364
SWIDTH 684 0
DWIDTH 23 0
BBX 24 24 -3 0
BITMAP
0007F0
003C1F
00F007
01E003
03C003
038001
078000
FFFF00
FFFF00
070000
0F0000
0F0000
0F0000
0F0000
FFFF00
FFFF00
078000
078001
038001
03C001
01E003
00F007
003C1F
000FF8
ENDCHAR
STARTCHAR uni20AD
ENCODING 8365
SWIDTH 658 0
DWIDTH 22 0
BBX 21 24 1 0
BITMAP
FF87F8
1C01C0
1C0380
1C0700
1C0E00
1C0C00
1C1800
1C3000
1C6000
1C8000
1D8000
FFFFF8
FFFFF8
1DF000
1CF800
1C7800
1C3C00
1C1E00
1C1F00
1C0F80
1C0780
1C03C0
1C01F0
FF8038
ENDCHAR
STARTCHAR uni2103
ENCODING 8451
SWIDTH 1017 0
DWIDTH 34 0
BBX 31 24 1 0
BITMAP
00000FE0
1E00783E
3F01E00E
6183C006
E1C78006
C0C70002
C0CF0000
E1CF0000
618E0000
3F0E0000
1E1E0000
001E0000
001E0000
001E0000
001E0000
000E0000
000F0000
000F0002
00070002
00078002
0003C006
0001E00E
0000783E
00001FF0
ENDCHAR
STARTCHAR uni2109
ENCODING 8457
SWIDTH 913 0
DWIDTH 30 0
BBX 28 24 1 0
BITMAP
001FFFF0
1E038070
3F038030
61838010
E1C38010
C0C38000
C0C38000
E1C38000
61838000
3F038040
1E038040
000380C0
0003FFC0
000380C0
00038040
00038040
00038000
00038000
00038000
00038000
00038000
00038000
00038000
001FF800
ENDCHAR
STARTCHAR trademark
ENCODING 8482
SWIDTH 1100 0
DWIDTH 37 0
BBX 34 15 1 9
BITMAP
FFFBE00FC0
C718F00F00
8708F01F00
8708B81700
0700B83700
07009C2700
07009C6700
07008C6700
07008E4700
07008EC700
0700878700
0700878700
0700830700
0700830700
1FC3E11FC0
ENDCHAR
STARTCHAR uni212A
ENCODING 8490
SWIDTH 658 0
DWIDTH 22 0
BBX 21 24 1 0
BITMAP
FF87F8
1C01C0
1C0380
1C0700
1C0E00
1C0C00
1C1800
1C3000
1C6000
1C8000
1D8000
1FC000
1DE000
1DF000
1CF800
1C7800
1C3C00
1C1E00
1C1F00
1C0F80
1C0780
1C03C0
1C01F0
FF8038
ENDCHAR
STARTCHAR uni212B
ENCODING 8491
SWIDTH 627 0
DWIDTH 21 0
BBX 23 29 -1 0
BITMAP
003800
00C600
00C600
00C600
004400
007C00
003800
003800
007C00
005C00
005E00
00CE00
008E00
008F00
018F00
018700
010780
030780
030380
03FFC0
0603C0
0601C0
0C01E0
0C00E0
0C00F0
1800F0
180070
380078
FF03FE
ENDCHAR
STARTCHAR uni2132
ENCODING 8498
SWIDTH 580 0
DWIDTH 19 0
BBX 17 24 1 0
BITMAP
01FF80
001C00
001C00
001C00
001C00
001C00
001C00
001C00
201C00
201C00
301C00
3FFC00
301C00
201C00
201C00
001C00
001C00
001C00
001C00
801C00
801C00
C01C00
E01C00
FFFF80
ENDCHAR
STARTCHAR universal
ENCODING 8704
SWIDTH 635 0
DWIDTH 21 0
BBX 23 24 -1 0
BITMAP
FF03FE
380078
180070
1800F0
0C00E0
0C00E0
0C01E0
0401C0
0601C0
07FFC0
030380
030380
010780
010700
018700
008F00
008E00
00CE00
004E00
005C00
005C00
003C00
003800
003800
ENDCHAR
STARTCHAR existential
ENCODING 8707
SWIDTH 606 0
DWIDTH 20 0
BBX 18 24 1 0
BITMAP
7FFFC0
700E00
600E00
400E00
400E00
000E00
000E00
000E00
100E00
100E00
180E00
1FFE00
180E00
100E00
100E00
000E00
000E00
000E00
800E00
C00E00
C00E00
E00E00
701E00
7FFFC0
ENDCHAR
STARTCHAR uni2204
ENCODING 8708
SWIDTH 606 0
DWIDTH 20 0
BBX 18 24 1 0
BITMAP
7FFFC0
701E00
601E00
401E00
401E00
003E00
003E00
003E00
107E00
106E00
186E00
1FFE00
18CE00
10CE00
10CE00
01CE00
018E00
018E00
818E00
C30E00
C30E00
E30E00
771E00
7FFFC0
ENDCHAR
STARTCHAR minus
ENCODING 8722
SWIDTH 570 0
DWIDTH 19 0
BBX 16 2 2 7
BITMAP
FFFF
FFFF
ENDCHAR
STARTCHAR fraction
ENCODING 8725
SWIDTH 150 0
DWIDTH 5 0
BBX 15 25 -5 -1
BITMAP
0002
0006
0004
000C
0018
0018
0030
0030
0060
00C0
00C0
0180
0180
0300
0600
0600
0C00
0C00
1800
3000
3000
6000
6000
C000
4000
ENDCHAR
STARTCHAR periodcentered
ENCODING 8729
SWIDTH 265 0
DWIDTH 9 0
BBX 4 4 2 6
BITMAP
60
F0
F0
60
ENDCHAR
STARTCHAR uni2236
ENCODING 8758
SWIDTH 265 0
DWIDTH 9 0
BBX 4 17 2 0
BITMAP
60
F0
F0
F0
00
00
00
00
00
00
00
00
00
F0
F0
F0
60
ENDCHAR
STARTCHAR uni2259
ENCODING 8793
SWIDTH 570 0
DWIDTH 19 0
BBX 16 16 2 4
BITMAP
0180
03C0
07E0
0660
0C30
1008
0000
FFFF
FFFF
0000
0000
0000
0000
0000
FFFF
FFFF
ENDCHAR
STARTCHAR uni225A
ENCODING 8794
SWIDTH 570 0
DWIDTH 19 0
BBX 16 17 2 4
BITMAP
1008
1818
0C30
0660
03C0
03C0
0180
0000
FFFF
FFFF
0000
0000
0000
0000
0000
FFFF
FFFF
ENDCHAR
STARTCHAR notequal
ENCODING 8800
SWIDTH 570 0
DWIDTH 19 0
BBX 16 24 2 -3
BITMAP
0018
0038
0030
0030
0030
0060
0060
0060
FFFF
FFFF
00C0
00C0
0180
0180
0180
FFFF
FFFF
0300
0300
0600
0600
0600
0E00
0C00
ENDCHAR
STARTCHAR equivalence
ENCODING 8801
SWIDTH 570 0
DWIDTH 19 0
BBX 16 8 0 4
BITMAP
FFFF
FFFF
0000
FFFF
FFFF
0000
FFFF
FFFF
ENDCHAR
STARTCHAR uni2262
ENCODING 8802
SWIDTH 570 0
DWIDTH 19 0
BBX 16 24 0 -4
BITMAP
0018
0038
0030
0030
0030
0060
0060
0060
FFFF
FFFF
00C0
FFFF
FFFF
0180
FFFF
FFFF
0300
0300
0300
0600
0600
0600
0E00
0C00
ENDCHAR
STARTCHAR lessequal
ENCODING 8804
SWIDTH 570 0
DWIDTH 19 0
BBX 16 20 2 -3
BITMAP
0001
0007
001F
00FC
03E0
0F80
3E00
F000
C000
F000
7C00
0F80
03E0
00F8
001F
0007
0001
0000
FFFF
FFFF
ENDCHAR
STARTCHAR greaterequal
ENCODING 8805
SWIDTH 570 0
DWIDTH 19 0
BBX 16 20 1 -3
BITMAP
8000
E000
F800
3F00
07C0
01F0
007C
000F
0003
000F
003E
01F0
07C0
1F00
F800
E000
8000
0000
FFFF
FFFF
ENDCHAR
STARTCHAR uni226E
ENCODING 8814
SWIDTH 570 0
DWIDTH 19 0
BBX 16 24 2 -3
BITMAP
0018
0038
0030
0030
0031
0067
007F
00FC
03E0
0FC0
3EC0
F0C0
C180
F180
7D80
0F80
03E0
03F8
031F
0607
0601
0600
0E00
0C00
ENDCHAR
STARTCHAR uni226F
ENCODING 8815
SWIDTH 570 0
DWIDTH 19 0
BBX 16 24 1 -3
BITMAP
0018
0038
0030
0030
8030
E060
F860
3F60
07E0
01F0
00FC
00CF
0183
018F
01BE
03F0
07C0
1F00
FB00
E600
8600
0600
0E00
0C00
ENDCHAR
STARTCHAR uni2270
ENCODING 8816
SWIDTH 570 0
DWIDTH 19 0
BBX 16 24 2 -5
BITMAP
0018
0038
0031
0037
003F
00FC
03E0
0FE0
3EE0
F0C0
C0C0
F0C0
7D80
0F80
03E0
03F8
031F
0307
0301
0600
FFFF
FFFF
0E00
0C00
ENDCHAR
STARTCHAR uni2271
ENCODING 8817
SWIDTH 570 0
DWIDTH 19 0
BBX 16 24 1 -5
BITMAP
0018
0038
8030
E030
F830
3F60
07E0
01F0
00FC
00CF
00C3
00CF
01BE
01F0
07C0
1F80
FB00
E300
8300
0600
FFFF
FFFF
0E00
0C00
ENDCHAR
STARTCHAR fi
ENCODING -1
SWIDTH 610 0
DWIDTH 20 0
BBX 18 25 1 0
BITMAP
01F000
031E00
0E0F00
0C0600
1C0000
1C0000
1C0000
1C0000
FFFF00
1C0700
1C0700
1C0700
1C0700
1C0700
1C0700
1C0700
1C0700
1C0700
1C0700
1C0700
1C0700
1C0700
1C0700
1C0700
7F9FC0
ENDCHAR
STARTCHAR fl
ENCODING -1
SWIDTH 610 0
DWIDTH 20 0
BBX 18 25 1 0
BITMAP
01F100
070F00
0E0F00
0C0700
1C0700
1C0700
1C0700
1C0700
FFC700
1C0700
1C0700
1C0700
1C0700
1C0700
1C0700
1C0700
1C0700
1C0700
1C0700
1C0700
1C0700
1C0700
1C0700
1C0700
7F9FC0
ENDCHAR
ENDFONT
